<mxfile host="Electron" modified="2024-09-20T13:56:10.954Z" agent="Mozilla/5.0 (Windows NT 10.0; Win64; x64) AppleWebKit/537.36 (KHTML, like Gecko) draw.io/24.4.8 Chrome/124.0.6367.207 Electron/30.0.6 Safari/537.36" etag="xeN-C8WeT28z8dZ8hCVP" version="24.4.8" type="device">
  <diagram name="Page-1" id="9wqXBkbRQcBQIQ-F6ZOK">
    <mxGraphModel dx="1420" dy="822" grid="1" gridSize="10" guides="1" tooltips="1" connect="1" arrows="1" fold="1" page="1" pageScale="1" pageWidth="1169" pageHeight="827" math="0" shadow="0">
      <root>
        <mxCell id="0" />
        <mxCell id="1" parent="0" />
        <mxCell id="M0Q4n2A1zxkFsByB2gW8-2" value="" style="rounded=0;whiteSpace=wrap;html=1;" parent="1" vertex="1">
          <mxGeometry x="41.74" y="160" width="1118.26" height="600" as="geometry" />
        </mxCell>
        <mxCell id="JrpFoXeW5vId14_0qBcH-9" value="Workload VMs" style="rounded=0;whiteSpace=wrap;html=1;labelPosition=center;verticalLabelPosition=bottom;align=center;verticalAlign=top;" parent="1" vertex="1">
          <mxGeometry x="650" y="260" width="500" height="400" as="geometry" />
        </mxCell>
        <mxCell id="JrpFoXeW5vId14_0qBcH-39" value="windows_exporter installed on WIndows VMs" style="rounded=0;whiteSpace=wrap;html=1;labelPosition=center;verticalLabelPosition=top;align=center;verticalAlign=bottom;" parent="1" vertex="1">
          <mxGeometry x="670" y="490" width="460" height="160" as="geometry" />
        </mxCell>
        <mxCell id="JrpFoXeW5vId14_0qBcH-38" value="node_exporter installed on Linux VMs" style="rounded=0;whiteSpace=wrap;html=1;labelPosition=center;verticalLabelPosition=top;align=center;verticalAlign=bottom;" parent="1" vertex="1">
          <mxGeometry x="670" y="280" width="460" height="150" as="geometry" />
        </mxCell>
        <mxCell id="JrpFoXeW5vId14_0qBcH-29" value="" style="rounded=0;whiteSpace=wrap;html=1;" parent="1" vertex="1">
          <mxGeometry x="70" y="320" width="280" height="120" as="geometry" />
        </mxCell>
        <mxCell id="JrpFoXeW5vId14_0qBcH-2" value="Observabilty&lt;div&gt;Server&lt;/div&gt;" style="image;aspect=fixed;html=1;points=[];align=center;fontSize=12;image=img/lib/azure2/compute/Virtual_Machine.svg;" parent="1" vertex="1">
          <mxGeometry x="175.5" y="443" width="69" height="64" as="geometry" />
        </mxCell>
        <mxCell id="JrpFoXeW5vId14_0qBcH-3" value="linux-1" style="image;aspect=fixed;html=1;points=[];align=center;fontSize=12;image=img/lib/azure2/compute/Virtual_Machine.svg;" parent="1" vertex="1">
          <mxGeometry x="730" y="290" width="69" height="64" as="geometry" />
        </mxCell>
        <mxCell id="JrpFoXeW5vId14_0qBcH-4" value="windows-3" style="image;aspect=fixed;html=1;points=[];align=center;fontSize=12;image=img/lib/azure2/compute/Virtual_Machine.svg;" parent="1" vertex="1">
          <mxGeometry x="1000" y="560" width="69" height="64" as="geometry" />
        </mxCell>
        <mxCell id="JrpFoXeW5vId14_0qBcH-5" value="windows-2" style="image;aspect=fixed;html=1;points=[];align=center;fontSize=12;image=img/lib/azure2/compute/Virtual_Machine.svg;" parent="1" vertex="1">
          <mxGeometry x="865.5" y="560" width="69" height="64" as="geometry" />
        </mxCell>
        <mxCell id="JrpFoXeW5vId14_0qBcH-6" value="windows-1" style="image;aspect=fixed;html=1;points=[];align=center;fontSize=12;image=img/lib/azure2/compute/Virtual_Machine.svg;" parent="1" vertex="1">
          <mxGeometry x="730" y="560" width="69" height="64" as="geometry" />
        </mxCell>
        <mxCell id="JrpFoXeW5vId14_0qBcH-7" value="linux-3" style="image;aspect=fixed;html=1;points=[];align=center;fontSize=12;image=img/lib/azure2/compute/Virtual_Machine.svg;" parent="1" vertex="1">
          <mxGeometry x="1000" y="290" width="69" height="64" as="geometry" />
        </mxCell>
        <mxCell id="JrpFoXeW5vId14_0qBcH-8" value="linux-2" style="image;aspect=fixed;html=1;points=[];align=center;fontSize=12;image=img/lib/azure2/compute/Virtual_Machine.svg;" parent="1" vertex="1">
          <mxGeometry x="865.5" y="290" width="69" height="64" as="geometry" />
        </mxCell>
        <mxCell id="JrpFoXeW5vId14_0qBcH-12" style="edgeStyle=orthogonalEdgeStyle;rounded=0;orthogonalLoop=1;jettySize=auto;html=1;" parent="1" source="JrpFoXeW5vId14_0qBcH-10" target="JrpFoXeW5vId14_0qBcH-3" edge="1">
          <mxGeometry relative="1" as="geometry">
            <Array as="points">
              <mxPoint x="580" y="370" />
              <mxPoint x="580" y="410" />
              <mxPoint x="765" y="410" />
            </Array>
          </mxGeometry>
        </mxCell>
        <mxCell id="JrpFoXeW5vId14_0qBcH-13" value="GET :9100" style="edgeLabel;html=1;align=center;verticalAlign=middle;resizable=0;points=[];" parent="JrpFoXeW5vId14_0qBcH-12" vertex="1" connectable="0">
          <mxGeometry x="-0.5686" y="-2" relative="1" as="geometry">
            <mxPoint x="-6" y="8" as="offset" />
          </mxGeometry>
        </mxCell>
        <mxCell id="JrpFoXeW5vId14_0qBcH-14" style="edgeStyle=orthogonalEdgeStyle;rounded=0;orthogonalLoop=1;jettySize=auto;html=1;" parent="1" source="JrpFoXeW5vId14_0qBcH-10" target="JrpFoXeW5vId14_0qBcH-8" edge="1">
          <mxGeometry relative="1" as="geometry">
            <Array as="points">
              <mxPoint x="580" y="370" />
              <mxPoint x="580" y="410" />
              <mxPoint x="900" y="410" />
            </Array>
          </mxGeometry>
        </mxCell>
        <mxCell id="JrpFoXeW5vId14_0qBcH-15" style="edgeStyle=orthogonalEdgeStyle;rounded=0;orthogonalLoop=1;jettySize=auto;html=1;" parent="1" source="JrpFoXeW5vId14_0qBcH-10" target="JrpFoXeW5vId14_0qBcH-7" edge="1">
          <mxGeometry relative="1" as="geometry">
            <Array as="points">
              <mxPoint x="580" y="370" />
              <mxPoint x="580" y="410" />
              <mxPoint x="1035" y="410" />
            </Array>
          </mxGeometry>
        </mxCell>
        <mxCell id="JrpFoXeW5vId14_0qBcH-16" style="edgeStyle=orthogonalEdgeStyle;rounded=0;orthogonalLoop=1;jettySize=auto;html=1;" parent="1" source="JrpFoXeW5vId14_0qBcH-10" target="JrpFoXeW5vId14_0qBcH-6" edge="1">
          <mxGeometry relative="1" as="geometry">
            <Array as="points">
              <mxPoint x="280" y="510" />
              <mxPoint x="765" y="510" />
            </Array>
          </mxGeometry>
        </mxCell>
        <mxCell id="JrpFoXeW5vId14_0qBcH-17" style="edgeStyle=orthogonalEdgeStyle;rounded=0;orthogonalLoop=1;jettySize=auto;html=1;" parent="1" source="JrpFoXeW5vId14_0qBcH-10" target="JrpFoXeW5vId14_0qBcH-5" edge="1">
          <mxGeometry relative="1" as="geometry">
            <Array as="points">
              <mxPoint x="280" y="510" />
              <mxPoint x="900" y="510" />
            </Array>
          </mxGeometry>
        </mxCell>
        <mxCell id="JrpFoXeW5vId14_0qBcH-18" value="GET :9182" style="edgeStyle=orthogonalEdgeStyle;rounded=0;orthogonalLoop=1;jettySize=auto;html=1;" parent="1" source="JrpFoXeW5vId14_0qBcH-10" target="JrpFoXeW5vId14_0qBcH-4" edge="1">
          <mxGeometry x="-0.1491" relative="1" as="geometry">
            <Array as="points">
              <mxPoint x="280" y="510" />
              <mxPoint x="1035" y="510" />
            </Array>
            <mxPoint as="offset" />
          </mxGeometry>
        </mxCell>
        <mxCell id="JrpFoXeW5vId14_0qBcH-26" style="edgeStyle=orthogonalEdgeStyle;rounded=0;orthogonalLoop=1;jettySize=auto;html=1;dashed=1;dashPattern=1 4;" parent="1" source="JrpFoXeW5vId14_0qBcH-10" target="JrpFoXeW5vId14_0qBcH-24" edge="1">
          <mxGeometry relative="1" as="geometry" />
        </mxCell>
        <mxCell id="JrpFoXeW5vId14_0qBcH-27" value="scrape" style="edgeLabel;html=1;align=center;verticalAlign=middle;resizable=0;points=[];" parent="JrpFoXeW5vId14_0qBcH-26" vertex="1" connectable="0">
          <mxGeometry x="0.5684" y="-1" relative="1" as="geometry">
            <mxPoint as="offset" />
          </mxGeometry>
        </mxCell>
        <mxCell id="JrpFoXeW5vId14_0qBcH-37" value="scrape" style="edgeStyle=orthogonalEdgeStyle;rounded=0;orthogonalLoop=1;jettySize=auto;html=1;" parent="1" source="JrpFoXeW5vId14_0qBcH-10" target="JrpFoXeW5vId14_0qBcH-30" edge="1">
          <mxGeometry relative="1" as="geometry">
            <Array as="points">
              <mxPoint x="280" y="308" />
            </Array>
          </mxGeometry>
        </mxCell>
        <mxCell id="JrpFoXeW5vId14_0qBcH-10" value="" style="shape=image;verticalLabelPosition=bottom;labelBackgroundColor=default;verticalAlign=top;aspect=fixed;imageAspect=0;image=data:image/png,iVBORw0KGgoAAAANSUhEUgAABQAAAAKACAYAAADD89WhAAAABGdBTUEAALGPC/xhBQAAACBjSFJNAAB6JgAAgIQAAPoAAACA6AAAdTAAAOpgAAA6mAAAF3CculE8AAAACXBIWXMAAAsTAAALEwEAmpwYAAACC2lUWHRYTUw6Y29tLmFkb2JlLnhtcAAAAAAAPHg6eG1wbWV0YSB4bWxuczp4PSJhZG9iZTpuczptZXRhLyIgeDp4bXB0az0iWE1QIENvcmUgNS40LjAiPgogICA8cmRmOlJERiB4bWxuczpyZGY9Imh0dHA6Ly93d3cudzMub3JnLzE5OTkvMDIvMjItcmRmLXN5bnRheC1ucyMiPgogICAgICA8cmRmOkRlc2NyaXB0aW9uIHJkZjphYm91dD0iIgogICAgICAgICAgICB4bWxuczp0aWZmPSJodHRwOi8vbnMuYWRvYmUuY29tL3RpZmYvMS4wLyI+CiAgICAgICAgIDx0aWZmOlJlc29sdXRpb25Vbml0PjI8L3RpZmY6UmVzb2x1dGlvblVuaXQ+CiAgICAgICAgIDx0aWZmOkNvbXByZXNzaW9uPjE8L3RpZmY6Q29tcHJlc3Npb24+CiAgICAgICAgIDx0aWZmOk9yaWVudGF0aW9uPjE8L3RpZmY6T3JpZW50YXRpb24+CiAgICAgICAgIDx0aWZmOlBob3RvbWV0cmljSW50ZXJwcmV0YXRpb24+MjwvdGlmZjpQaG90b21ldHJpY0ludGVycHJldGF0aW9uPgogICAgICA8L3JkZjpEZXNjcmlwdGlvbj4KICAgPC9yZGY6UkRGPgo8L3g6eG1wbWV0YT4KD0UqkwAAQABJREFUeAHs3QmcG3d9/3/N6JZW2ju+nbXjOIdzQtKQcJWbpvTXQikUKD/aUn60XAESoFBuGgI0QChQCiltKUf/LeUsUAjhaAJJSELIbTtxEl/x7dWxh46VZv7v73q12dhee3e90nx39ZrHY1bSaDTzmeeMHg893vv9zjcUYkIAAQQQQAABBBBAAAEEEEAAAQQQQAABBBBAAAEEEEAAAQQQQAABBBBAAAEEEEAAAQQQQAABBBBAAAEEEEAAAQQQQAABBBBAAAEEEEAAAQQQQAABBBBAAAEEEEAAAQQQQAABBBBAAAEEEEAAAQQQQAABBBBAAAEEEEAAAQQQQAABBBBAAAEEEEAAAQQQQAABBBBAAAEEEEAAAQQQQAABBBBAAAEEEEAAAQQQQAABBBBAAAEEEEAAAQQQQAABBBBAAAEEEEAAAQQQQAABBBBAAAEEEEAAAQQQQAABBBBAAAEEEEAAAQQQQAABBBBAAAEEEEAAAQQQQAABBBBAAAEEEEAAAQQQQAABBBBAAAEEEEAAAQQQQAABBBBAAAEEEEAAAQQQQAABBBBAAAEEEEAAAQQQQAABBBBAAAEEEEAAAQQQQAABBBBAAAEEEEAAAQQQQAABBBBAAAEEEEAAAQQQQAABBBBAAAEEEEAAAQQQQAABBBBAAAEEEEAAAQQQQAABBBBAAAEEEEAAAQQQQAABBBBAAAEEEEAAAQQQQAABBBBAAAEEEEAAAQQQQAABBBBAAAEEEEAAAQQQQAABBBBAAAEEEEAAAQQQQAABBBBAAAEEEEAAAQQQQAABBBBAAAEEEEAAAQQQQAABBBBAAAEEEEAAAQQQQAABBBBAAAEEEEAAAQQQQAABBBBAAAEEEEAAAQQQQAABBBBAAAEEEEAAAQQQQAABBBBAAAEEEEAAAQQQQAABBBBAAAEEEEAAAQQQQAABBBBAAAEEEEAAAQQQQAABBBBAAAEEEEAAAQQQQAABBBBAAAEEEEAAAQQQQAABBBBAAAEEEEAAAQQQQAABBBBAAAEEEEAAAQQQQAABBBBAAAEEEEAAAQQQQAABBBBAAAEEEEAAAQQQQAABBBBAAAEEEEAAAQQQQAABBBBAAAEEEEAAAQQQQAABBBBAAAEEEEAAAQQQQAABBBBAAAEEEEAAAQQQQAABBBBAAAEEEEAAAQQQQAABBBBAAAEEEEAAAQQQQAABBBBAAAEEEEAAAQQQQAABBBBAAAEEEEAAAQQQQAABBBBAAAEEEEAAAQQQQAABBBBAAAEEEEAAAQQQQAABBBBAAAEEEEAAAQQQQAABBBBAAAEEEEAAAQQQQAABBBBAAAEEEEAAAQQQQAABBBBAAAEEEEAAAQQQQAABBBBAAAEEEEAAAQQQQAABBBBAAAEEEEAAAQQQQAABBBBAAAEEEEAAAQQQQAABBBBAAAEEEEAAAQQQQAABBBBAAAEEEEAAAQQQQAABBBBAAAEEEEAAAQQQQAABBBBAAAEEEEAAAQQQQAABBBBAAAEEEEAAAQQQQAABBBBAAAEEEEAAAQQQQAABBBBAAAEEEEAAAQQQQAABBBBAAAEEEEAAAQQQQAABBBBAAAEEEEAAAQQQQAABBBBAAAEEEEAAAQQQQAABBBBAAAEEEEAAAQQQQAABBBBAAAEEEEAAAQQQQAABBBBAAAEEEEAAAQQQQAABBBBAAAEEEEAAAQQQQAABBBBAAAEEEEAAAQQQQAABBNpCwGmLo+QgEUAAAQQQQACB4AUi3d3d6XA47JlSxh9HRtJ+OJyphEL+lPL8mO+blbq1bLrfar4+EHYcp8Pz/egx1puy2RN66ruOM+b7/rAKqh9jf74bCuWqjvO4deI6DqdeHwql0yP1el2raCN6zOVyI3paM6+ZEEAAAQQQQAABBJonMN2PyubtkS0jgAACCCCAAAILV8CEVxHN7sqVK52hoaGEORQFY07S8yK1eNyEceOvFXBFtdysG3Jdd8z1/fVKxU5WaDdmlk08Dmjl9fpBNr7MLNcbyvT8hJafr1dme+OBoXlrcvJ9T+uZfZ+i7UwubuYT1WQ2/5DqKmvf4yHeYfszy8b03m9UU1nrTa6jT0a1/AG9v1XbGTeSh3nc5mm553njy/S5moLRMT2O7yxSqYyVXLfWeJ3JZMo7d+407xkTExweaaOFTAgggAACCCCAAAKPF2jNL8bH75NXCCCAAAIIIICAbQKN30SN0Mq8biwbfxxQjpfv6lqqMGqlAquUHpOO71+o9VytYMK+pQq51mmua3lCKdVqrdM/EZzZdrzW1SMrZYb+fllu9w8FiGEt2KLle2RpAlJPy2/TOsoE3VE97uzK5/dsfSwEHA8NtZ55bDxvBISN13qLCQEEEEAAAQQQaD+Bxg/b9jtyjhgBBBBAAAEEEJgQ6OzsXKuWZ6ZF3dkhz1upcCms5xcoNVJbtPFgb41em/dNQGjmxm8o08Kv8dwsN58zYZNZ1lhXT5lmKGACOzM3DE1X4qkhXqO7sHm/sa5pbfiIwsE9QjfLb1doWFezy516fo9aYpYLhcLDes6EAAIIIIAAAgi0rUDjB2vbAnDgCCCAAAIIILDoBWJ9miqeNxCt11cp0DtJqdKA47pLTLinxKhHMV9cIZIJ7FL6cRTTo+mD2jEhY16Pd1GdeM2DfQKmhWDVlKXzN6wH02HZvB7VufX0qqLlgyYk9D1vr1LarXq+bywc3hF33a0HNGnd8c/rkQkBBBBAAAEEEFh0AgSAi+6UckAIIIAAAgi0pYCj+8OdqlZ8yyL1emfddZdJYZV+6CxXEGQG00hpzioMyioMSup5p+a05rjpejoeF+mF1mVaRAKTP3QPdS82R6bxVkJm4JGCroWSzntRz808qnVzOv+79HxH2PN262aEBbUe3K37PD6oZVwaQmBCAAEEEEAAgYUrMPm7aOEeApUjgAACCCCAQBsJRFNqzRer1ZY6nmfCvR519exVkLNSP2pW6XWfmvFl9NgvE3O/vvFBOqb6qHvv1Jc8b1OB8eD3sGPXtVHWItOVeL/6Fw/p8YCulh0KC3eqa/hBvR70XXdXNRLZM3qo1eBjg7ccti1eIoAAAggggAACNgnodwwTAggggAACCCBgpUAsnU53J1y3WyFMt7ps9qjKNQpjTMu+dVp2ql6vUJBjlj9uIuR7HAcvZikwTTg4qM08qmvvQV17WxQ6b9frrepGPqhlubLn5UZGRnJaRlfiWXqzOgIIIIAAAgg0X4AAsPnG7AEBBBBAAAEEji8QXrJkSUIBSioajZouulmFeOv0eJaClnP1g+U8PV83NZgh5Ds+KmvMv8BRrsEtCgTvVDB9l/Z2r0YoflDX5tDY2FhJAfbo3r17TatCM5gJEwIIIIAAAgggEJgAAWBg9OwYAQQQQACBthYwv0HMiLlOT0+PCfzMyLvnqpvlU/XczGdqNoNyMCGw0ARM2LdR843qnn6jAkMTDO4cHBws6VFZ4XgYaB6ZEEAAAQQQQACBlgkQALaMmh0hgAACCCCAQENAod/KUL1+sVKQZ2rZxZrXaI5oNqFg41FPmRBYkAImBKxpbjw+oue36If3T5xI5KaDBw8+uiCPiqIRQAABBBBAYMEKEAAu2FNH4QgggAACCFgtYH5jPK6VU0dv7xkaoff56tL7O2oVtVyPZiTejOYOzSb4Y0JgsQqYIHBY85C6ChfU2nWXHv+n5ro/Gh4cvP+wgz7iu3PY+7xEAAEEEEAAAQRmLUAAOGsyPoAAAggggAACMxSIdXZ2PkX9eC/U+ucq8Fit0G+Vnq+e4edZDYHFLLBd34md+k5s00HepVGHbysUCr/QcwYRWcxnnWNDAAEEEEAgIAECwIDg2S0CCCCAAAKLVaC7u/tsx/POUPO/CxRwXKyA4zS1+Os3x8vAHYv1rHNccxFoDCii78V+fVc26wtiugnf5rvuxlwud89ctslnEEAAAQQQQACBowkQAB5NhWUIIIAAAgggMCsBhX6dYc87teY4Zzu+/xyFGb+tHxnLzEYI/WZFycptKjAZBoZCu/Wl+bnvOD+O+P49dY0qrDCw0KYsHDYCCCCAAAIIzJMAAeA8QbIZBBBAAAEE2lFg+fLlqZGRkWXq5vtchX4vV/j3FD0S+rXjxcAxz5vAeBjo+yGFgL/Ql+lr6h58XTqd3r1r167RedsJG0IAAQQQQACBthIgAGyr083BIoAAAgggMH8CmUymz3XdZyj8e6u2+qT52zJbQgCBwwRuUQj4Cc/zfjo0NHTwsPd4iQACCCCAAAIIHFeAAPC4RKyAAAIIIIAAAocLdHV1PU0tk96tHxIX672UZuWATAgg0CQB5X8h0/rvJrUKvDKfz9/QpP2wWQQQQAABBBBYpALhRXpcHBYCCCCAAAIINENg5cpkt+O8TWnf+7T5czUnNfMPxWZYs00EHhMw37GY5lX67j09kUh0lPv7fx0qFmuPrcIzBBBAAAEEEEBgegECwOlteAcBBBBAAAEEpgh0dHSclB4bu0r3+HuVFp+smd8RU3x4ikALBMx3rlffwTOTlcrqSDR6e7VaHWnBftkFAggggAACCCxwAX64L/ATSPkIIIAAAgi0QkBdfk92HecDaob0Ss09rdgn+0AAgaML6DuY0TsbdA/OkxLJ5N3lcplRgo9OxVIEEEAAAQQQmBAgAORSQAABBBBAAIFjCmSz2Z6wGeHXcd6pFaPHXJk3EUCgVQJRhfJPUBi4IxqLba5UKqVW7Zj9IIAAAggggMDCE+CG3QvvnFExAggggAACLRXQfwuf73ve63zfb+l+2RkCCBxbwHwnzXfTfEePvSbvIoAAAggggEC7CxAAtvsVwPEjgAACCCBwLAEN+hFy3Ysd1z3lWKvxHgIIBCMw/t3UdzRkvqtMCCCAAAIIIIDANAIEgNPAsBgBBBBAAAEEQqFssXi2HFZjgQACVgusnviuWl0kxSGAAAIIIIBAcAIEgMHZs2cEEEAAAQSsF4i67koV2Wt9oRSIQHsL9E58V9tbgaNHAAEEEEAAgWkFItO+wxsIIIAAAggg0PYCusfYsO78V9YAIG1vAQACtgo4vl/W93TY1vqoCwEEEEAAAQSCF6AFYPDngAoQQAABBBCwVyAc3qjwb7e9BVIZAgj45juq7yoSCCCAAAIIIIDAdAIEgNPJsBwBBBBAAAEEQoODgzvUuugutQSswYEAAvYJmO+m+Y6a76p91VERAggggAACCNgiQABoy5mgDgQQQAABBCwVCDvOT0K+//9ZWh5lIdDeAvpujn9H21uBo0cAAQQQQACB4whwQ5/jAPE2AggggAACCIRCPZnMJb7rfkMW/ZrDmCCAQOACdVWw3/G8PxwcGrop8GooAAEEEEAAAQSsFqAFoNWnh+IQQAABBBCwQyDV2fkb3WfspRpo4CE7KqIKBNpbwHwXzXfSfDfbW4KjRwABBBBAAIGZCPAf/JkosQ4CCCCAAAJtLlAsFmvlpUv3pkqlW0KOs14Dg5zc5iQcPgKBCEyMyH2D6/uvzxUKv9Z3sxxIIewUAQQQQAABBBaUAAHggjpdFIsAAggggECAAvl8rVSp7EymUlt0T8CUKjkrwGrYNQLtKvAfIdf9iMI/0+2XwXna9SrguBFAAAEEEJilAAHgLMFYHQEEEEAAgXYXKJfL21Pp9CaFgAVZbNCcbHcTjh+BFggMah/XOOHwZ3K53K9bsD92gQACCCCAAAKLSIAAcBGdTA4FAQQQQACBVgmUSqX9mWz2V/VaTT2Cx7sD97Rq3+wHgTYUeMj3/X+MJ5MfO3DgwKNtePwcMgIIIIAAAgicoAAB4AkC8nEEEEAAAQTaVWB0dLRarlRuSCUSMRks12xCQAYYa9cLguNuhoDp4nu/Ewp9MVcsfmRkZGSsGTthmwgggAACCCCw+AUIABf/OeYIEUAAAQQQaKqA7gt4k+4LuENdgldpRys1EwI2VZyNt4mACf9+qfv9/W0un//XNjlmDhMBBBBAAAEEmiRAANgkWDaLAAIIIIBAOwnovoAPpKLR2xRWrHR8f0D9giPtdPwcKwLzKaDvUFnfoR849foVavn3i/ncNttCAAEEEEAAgfYUIABsz/POUSOAAAIIIDDvAqVqdb9aAt6s8OIk3RfwVM2ma7CvWT0YmRBA4DgCvr4zjr4sI1rv66Fw+B0K/7Yc5zO8jQACCCCAAAIIzEiAAHBGTKyEAAIIIIAAAjMRUEvAQtJ1b/cikb3qErxacUb/TD7HOgi0u4DJ/jTQx0algFc71epnckNDO9rdhONHAAEEEEAAgfkTIACcP0u2hAACCCCAAAISKNVqxY6Ojvs83z+oEHCpcg1zb0AmBBCYRkDfEX1V/JsV/l0TiUS+drBYPDDNqixGAAEEEEAAAQTmJEAAOCc2PoQAAggggAACxxBwNEJwRa0B71eX4Ee13mr1A16qro3cF/AYaLzVngL6blR0v7+bdf/MD+fz+e/qu1OSBN3m2/Ny4KgRQAABBBBomgABYNNo2TACCCCAAAJtLWACjLpCwC2pVGqTnqc0r5h41AMTAghI4IBa/33Hcd2P5HK5n+l1XbP57ph7ZzIhgAACCCCAAALzJkAAOG+UbAgBBBBAAAEEjiZQKpV2lvv6fpisVjN6/wmao0dbj2UItJnAqI73c7nu7itKu3c/0mbHzuEigAACCCCAQIsFCABbDM7uEEAAAQQQaEuBYrGWSqdvU7Omg2re9FwZuG3pwEEjcKh1n6f7/b3dDYc/o/DPjPrLhAACCCCAAAIINFWAALCpvGwcAQQQQAABBBoCaglY0QAHD4cd5y7d8+w0Le/TzL3OGkA8toOA6dp7r0b8eLW+A99Tt99COxw0x4gAAggggAACwQsQAAZ/DqgAAQQQQACBthGoVqujHZnMtrrn3ajkb0AHvq5tDp4DRSAUus4Lhd7U1dNz6549e4YBQQABBBBAAAEEWiVAANgqafaDAAIIIIAAAuMCGuW0WqlUdsfi8c2u43Ro4dnQINAGAv9e9/0PF4vF2zXab60NjpdDRAABBBBAAAGLBAgALToZlIIAAggggEA7CSgE3KX7ApoRgk23yCWau9rp+DnWthHYpu6+X3HC4U8q+LuzbY6aA0UAAQQQQAABqwQIAK06HRSDAAIIIIBAewnovoD7y+Xyj1PxuHpGhlYrKOG+gO11CSzmo/V1r7+N6ur+uVyh8CFd63sW88FybAgggAACCCBgtwABoN3nh+oQQAABBBBY7AJmEJB6qVK5JRWL1RzHWabXyxf7QXN8i19AF/avHd//7ODQ0Gd1tCbgNtc6EwIIIIAAAgggEIgAAWAg7OwUAQQQQAABBA4XKFWrv04nk1v8Q60A1x/+Pq8RWDACjvN9jXb9wYPF4jcWTM0UigACCCCAAAKLWoAAcFGfXg4OAQQQQACBhSUwWi5vTSaTd+umgGU1l7p4onpzj0BaTy2sU9lu1U5eowqwP6GWrFcP5vO3thsCx4sAAggggAAC9goQANp7bqgMAQQQQACBthTQPQH3xePxLbofYFGp3xMUpsTbEoKDXjACukZNQD2k8O9jvu9fq8E+Ni+Y4ikUAQQQQAABBNpCgACwLU4zB4kAAggggMDCEtAIwblwJrPR9bwtClSWuY6zYmEdAdW2i4DJ/jzfv02B9YfGotF/Hxoc3NEux85xIoAAAggggMDCESAAXDjnikoRQAABBBBoK4Gx0dFhtQa8M5lK7dVoqiYAPLmtADjYhSJwg+O6H1Grv/8w1+xCKZo6EUAAAQQQQKC9BAgA2+t8c7QIIIAAAggsOAGFgA+k0ukHFAKequI7NScW3EFQ8GIUyOugbnXC4XfmcrmfLMYD5JgQQAABBBBAYPEIEAAunnPJkSCAAAIIILBoBUql0s54IvG/utFat4LA5epumVm0B8uB2S/g+7t1DX7LC4XeppZ/99hfMBUigAACCCCAQLsLEAC2+xXA8SOAAAIIIHBsATO4gZkDn8x9AcuVyvdSyWRWxZytORl4URTQjgKD6vL7j7lC4XJzTVoCYM331BIPykAAAQQQQACBwwQIAA8D4SUCCCCAAAIIPCbQ2dn5rEQisTYWixWq1WrpsXeCe1Yql29KJhKm++XTNDNCcHCnoh33PKSDfpfCv7/XY90GgEwm05tMJi/R93SNAslHbKiJGhBAAAEEEEDAPgHXvpKoCAEEEEAAAQRsEdB/Crv0Y+EtEdf9ara396IpdQXZKrAaSyT+TQX8oeP716ummrpjmtL8KfXxFIH5EPAnrq0xc63pu/Aic+1pw5X52PgctzH53TPfSfPdVF1vNd/VOW6PjyGAAAIIIIBAGwjQArANTjKHiAACCCCAwFwF1NJugz77u5qf4nreqbF4fLdaGW3Ta93+LLiuwSMjI2OlSuXhdCJxn+roVThzirplRvXchICTAYmeMyEwVwHfMZPnlfX3O67jvP9gofBLc+3NdYPz8DlzbZtrPNKTzT5X1/0H9PxZmkf0xo36Ttyv50wIIIAAAggggMARAgSAR5CwAAEEEEAAAQQaAgoAz1ALqAsUgKxSwDCgkG1NKpHwItHodnUJHm2sF9TjaKWyuyMS2eJFIr7CkJNVJ4ODBHUyFtl+dS05GnBmj++6X47Uap8+MDT0GxsO0XT57UilXqp08s36Tj7VlKnv6MP6e7MCwI021EgNCCCAAAIIIGCfAAGgfeeEihBAAAEEELBGQAHgmQoXLla4sGq8aZ3jrPZ9/2y1hnLSrvtIqVYz90QLdBodG9vT0dFxp5okVhXYDKiYnkALYueLReChkOt+PhyJfOZAofCgDQelm/2tcCKRP1ctb9ZX8JyJ76TaBPo7CQBtOEPUgAACCCCAgL0CBID2nhsqQwABBBBAIHCBqQHgRDGmW6QJ2H4rFA6flEyn7yiVSsWAC3VGR0eHyuXyrfFEYruCEDNCcH/ANbH7hS2wUYHyu/L5/Jd0bZkBZ3RZBTv19PSsVCD5QVXxWn0HlyqIn8j/xksjAAz29LB3BBBAAAEErBfQPYOZEEAAAQQQQACBGQuop63JHUIZ/X15qF6/prej44wZf7o5K44XpE1XCoXCtxXcvFnPbwk8sWnOsbLVJgpMXDO36Bq6zFxL2lVjsI/GNdbEvU+/6fHvmL5rKuJlWisz8R3kEp+ejHcQQAABBBBA4DABAsDDQHiJAAIIIIAAAjMWSCqQ+D9+OPyd7mz25TP+VHNXrCu4uV7NFP9YXZf/Xi2lmrs3tr5oBMavFV0z5trRNfQTHVjdhoMz3y3zHTPfNdWTtKEmakAAAQQQQACBhSdAF+CFd86oGAEEEEAAgZYJHKUL8OH7Nr8lehW2bUgkk1F1w73l8BUCeO2rjoJGLH5AdQ0qAnxGADWwywUmoODvfZ7vX6vwb6tKD7TFX4Ouq6vLDPTxVr0+TfNRf7dPhNx0AW6g8YgAAggggAACRxU46g+Jo67JQgQQQAABBBBoO4EZBIANkz51KzglkUhkU+n0VgvuCxiqVCo5DQ7yoF+vP6wgcK0K5b6AjbPF42MCjnO/BtF4v0a2/loul9v+2BvBPdP9/lYlYrE36jv1GlVhwr9pJwLAaWl4AwEEEEAAAQSmCBAATsHgKQIIIIAAAgg8XmAWAaD5YK/mcx3PWxlLJHYqgNv1+K21/tX44CCVyq/VOnGXWlItUQUDra+CPVos8HO1/PtIvlD4iq6VoAezGWfq7Oy8QMHfX+vFqzSvPJ4dAeDxhHgfAQQQQAABBIxABAYEEEAAAQQQQGAeBXo1UumrXN9PqhXTpwYHB2+ax23PdVOeRnP9Zk82O+I5zpiCwKdpQ/G5bozPLQqBivr43qDr9OO5QuFHthyRvjOXqMXqZarnJbbURB0IIIAAAgggsDgEaAG4OM4jR4EAAggggEBTBGbZAnCyBrVK2uB73tpkKrUlmUwWdU++6uSbAT0pVSoPqXvyHRpBdblCQNMdOKVZT5naSMDc2++A/lznhsPvHMznb7bg2B0Ff1l1n78w5Hkf0nfnBROj/M6oNFoAzoiJlRBAAAEEEGh7AfUwYEIAAQQQQAABBOZXwAQYCiaeoUDju9ryK3UvPivuv6cWifepu+crdM+3L6iuHfN71GxtAQjscHz/8+YaMNeCDfWa74a+L/9X35XvmO/MbMI/G+qnBgQQQAABBBBYGAIEgAvjPFElAggggAACC05gIsjoUbDxd9Fo9C/S/f1LLTmIaq5YfLfuVfhp1bNtogWVJaVRRjMEJs7xNnPOB4vF92gfgbdINcdpvhPmu2G+I3rZQ/hnVJgQQAABBBBAoBkCdAFuhirbRAABBBBAYJEIzLUL8GGHH1GLu4sinrcsHY/vGK1Udh/2fiAvs9XqXV48fre6g8YVEG2YKMJ0EaVbcCBnZN53On4uTfinYO0/1fLvQ9GhoW+OhEJj876nOWywr7PzCWHPe6eKe60+brqjz2maCDd36qK9Wd3cN85pI3wIAQQQQAABBBa9AIOALPpTzAEigAACCCAQvIDCiQ6lMS+tO85JvZnMFw8ODX1roioTtpmgpuXT3lBoJFQsXpfNZnOu45RUyCsVpignCqSclh//Yt/hxLn0vVDoy57vf7ZYLN6mYw7y5E5e6/oOvFDfhVernmdoYSrIohb7dcDxIYAAAggggMAhAQJArgQEEEAAAQQQaLqAAg5fLZ1MK6dLfdc9qTubjfcWi9/aEgpVmr7z6XcwHsgoGLo109tbjNRqexT+vVzB0UpCwOnRFsI7Ooem1d9O1fq1ejj8L0P5/KaJuidDuACOw1+n1qYHs9kX+o7zVhV4gWpwxr8btDoN4HSwSwQQQAABBNpLgC7A7XW+OVoEEEAAAQRmJTBPXYDNPhvBi3lcoT9nl+LxUDqT2TE6Ojo0q6KasHK1VDpQ7u29KVGrVRTMrNEu+pqwGzbZOoHNCtk+nc9kPl7du3dP63Y7/Z76+vqWj0Yir9K1/zbVdo7WNN8F0/jPPM55MmGnJroAz1mQDyKAAAIIINAeAgSA7XGeOUoEEEAAAQTmJDCPAaDZ/2TQ4bhun5KP5/ue19GRyfxaIeDwnAqczw8NDY2Vy+VfpRKJfdrsEzUnNEfncxdsq+kCJe1hhy60d+cKhS+qi3et6XucwQ4U/i2rj429V0Njv9tc+1M+MvmdmLJsVk8JAGfFxcoIIIAAAgi0rQCjALftqefAEUAAAQQQCE5gShfbP6tXq5/rT6fNCMFW3JpksFD4thMOv1L13KC5GJwSe56lgDlXN5hzZ87hLD/brNUj5to217h28OdmJ1Ou/Wbtk+0igAACCCCAAAJHCBAAHkHCAgQQQAABBBBooUBMraKeVYtE/qOzs/Pp2m+8hfueblfVwcHBWzV4xMtU23e1UnW6FVlujUDVnCtzzsy5s+Scxc01ba5tc42rppg1WhSCAAIIIIAAAm0nQADYdqecA0YAAQQQQMA6gQ5VdJF+lPxLV1fXKyyprlYoFHLVsbEr1MXyY6ppaKKrpSXlUYYRmDgn5tx8zJwrc8602Ipuv+ZaNte06rlIs7nGmRBAAAEEEEAAgcAEuAdgYPTsGAEEEEAAAfsF5vkegMc64IhuhtapFc7WPjtS6fRdpVKpMULwCd8n7Vg7PtZ7Y2NjI5Fo9O6w6z6irptrtO6SifVPePCGY+2X944pMNX+boV/7x+r1/9teHh4/zE/1dw3J6/Rnp6ebCIWe6sWXKZ5QLttatf2iRCUQUCae37ZOgIIIIAAAgtegABwwZ9CDgABBBBAAIHmCbQwABw/CIUZ3Up3ztKLJYlEYpcG5TChztTAp3kHO82Wq1WNEVwu35uOxR5VISvU7Gy16jSBT6B1TVPuYl+sAXQn7W90Pe/Dg8Xif+kcBTmITONacNXq71zd5O9yXRivdh1nlblAmj0d4mAU4GY7s30EEEAAAQQWugAB4EI/g9SPAAIIIIBAEwVaHQCaQ1Fw0qEQ5SKlKr2JZHKPQsCdWqzbuwU2mYDHK1Wrm5Px+J6Q6zpqDbhMdaYDq6hNd2zCP8/39+vh27pGPjc4NPQ9c240m3MU5GTCv6fowrhcRfyZuYZbNdgHAWCQp519I4AAAgggsHAECAAXzrmiUgQQQAABBFouEEQA2DhIBRsb9Lw/mUzme8rlR4dCobHGe0E9liuVLeFs9pdhz3MUQD1BddgwaElQHEHsd0gtMD89FotdWRwcvDOIAg7f5/JQKBXp7n6OEsjLdM2+8PD3m/2aALDZwmwfAQQQQACBxSFAALg4ziNHgQACCCCAQFMExgPAUOgShQyrmrKD42xU+12voO1J9VjMVwu827V6kC0Bx6sdGxkZiUQi97nh8AGFPmaAh+RxDoO350cgp/6/76vVal8cyeX2zc8mT3gr0Wgm83pt5b26Vp/UqlZ/U6smAJyqwXMEEEAAAQQQmE6AUYCnk2E5AggggAACCBiB8RuuBUUxEaisVfBzRU82+9Hu7m4zUEjgkxlwIhqNflFp5ItVzG8CL2jxF/AbY23MAx7sY1LaXIvmmtQ35AotPCWI8K9RzET/56C7QTfK4REBBBBAAAEELBSgBaCFJ4WSEEAAAQQQsEUgnkz2q5YL1cpoXaA1OU5GQctpqmG9Bgd5SPcF3BtoPdr56OhotVKpPBpPJH4ln6WaTX1M8ygw3rrNcb6r8O/yQqFwu8xL87j5OW/KDPah+/19WNfkizWfNOcNzcMHjZEGG7lPIfl1+l5sm4dNsgkEEEAAAQQQWIQCBICL8KRySAgggAACCMyXQCqVSpsuuAoZzMi8QU+mq+06dV/YoGByWGHHxqAL0v7rCgF36z6F9/ueV5bTuVoWtaCuxVDCqFrVfUYB2zUK/8z9/uo2HJTCvxe5vv8e1fIczdmgaxoPSUOhO9Ql/QelUsmMms2EAAIIIIAAAggcIUAAeAQJCxBAAAEEEECgIaBA4UAiHr9Eo5perFZGNkwmXFujvo4DGpF3WINy3GtDUaZFYrqj496Q5x1QPWdqDjwYssHlBGrYqXP8ETca/UIul3vwBLYzrx/tzmZfprreqo0+VbMVQa++myGNjHxdLp//6rweLBtDAAEEEEAAgUUlQAC4qE4nB4MAAggggMD8CyhoO0Xh3+/O/5ZPaIsr1TLsPA1SMpZKp/coqCye0Nbm4cOqYahUqdySSiZ9hUS92qTpGsr9lmdnW5PdHerO+oVcoXCNDefVlN/T07MyEYu9XNfcu/XynNkdUnPXNsG8zL6iMPy25u6JrSOAAAIIIIDAQhYgAFzIZ4/aEUAAAQQQaIGA7nHXqYDBjAK8pgW7m80uetT98QXqeluLxmLbq9Xqwdl8uEnr+qVy+RZ1Ud4rsz7tY7Vmfm/NDLuq1X6m8O/qfD7/JT23otFpJpNZrxT3r3StfVg19czsUFq61s88x/m2uqI/3NK9sjMEEEAAAQQQWFAC/CBdUKeLYhFAAAEEEGi9gO5vV1fLp34FWk9r/d6Pv0cFM0/WnFZQea9CkCF9QmNGBDupS/DmRCRyj+u6S1TJgGYruosGq3LMvQ/r+vq+X6u9Jz80dMMx12zdm5HOzs4BdbF9p+Y3BDnK77EOWYHpV3T9X69rrnCs9XgPAQQQQAABBNpbgACwvc8/R48AAggggMBxBUywEI/HCwponqWVzb3trOvWqtrOVQhyoUYI3qd6t6rGwAeMKI+N7U1nMr9QC0VTywbVmNIj0xQBnTPTzG+f5g/X6vWriiMjtrRii2uwj0sV/F2t8/Z7KlkP1k01VfSw7P5Wg6Rssq46CkIAAQQQQAABqwQIAK06HRSDAAIIIICAnQLqBjmsgQYeVgryDM0dFlZpApoV+nNJIpncp5ZbD42MjIxpmVke2DQ6Ojqieu5QC8pHNK9XoHSSAhsmCcjChH/3y+W94XD4awqxBgOGGb9WlixZko5Goy92fP+jqmeDZut+L09c1PvU+u8tqvU2XWem+zQTAggggAACCCAwrYB1P2imrZQ3EEAAAQQQQCAwARMwdHR07Kx73maFD+vVcmtpYMVMv2PTMrFL9T3Rq9c71CX4YbUGzE+/emveUQ1lDSKxpV6pbFbf5LSCrzNas2d792Ja/ilQ/pbr+1cl0+kf7tu3b9iGatXq72S/Xn9jyPfNSL8na7avteuh4PROXUt/rfDvxwcOHDDd3pkQQAABBBBAAIFjChAAHpOHNxFAAAEEEECgIWBCQN1jb6NatO1X66h+LV/TeM+mR4VLnbpf2wYlN/2peHyfRuZ9dKK+iYZTra92aGhoTHVsUSj5kIowdZyrP9aFS82WmTgBpuvqP6n136fyxeINxqbZ+z3G9idK0rDN2exFenGZ6nqlrqFlx/hMoG+pxp+agVLUYvKbtPwL9FSwcwQQQAABBBaUAAHggjpdFIsAAggggEDwAmrQtjGRSj2kVlJJVWNaScWDr+pxFSgfcdIKAc9RmLMiqRGCy9XqTq2hl8FOClB3pTs67pBdVMWYVpRdwVbU8r1v1bn5shuJXJXL5Ta3fO9H36HTk8lcoovmb/T2ix3XzejaMdfKZDh49I+1fGlRe/xGyHU/plGSr2v53tkhAggggAACCCxoAQLABX36KB4BBBBAAIFgBBQC7lBrtp8qIVmqe7gtVxWZYCo56l5NcOOrrrDmdXpxeiIW25/p7NxlQ4upUqk0VCqXf5iMx83oyqtUqxkpuB2mexR8fiZXKHzQGNhwwP39/R2xcPj5CiXfr3PxrPFr5lBQbFf45zi75fVNdft9q8K/B2ywowYEEEAAAQQQWFgCBIAL63xRLQIIIIAAAtYIqDVbuVypfC8Rjy9TgLJGhdkWAhorR6HOas1/oPsCjpSXLft1KJ83XVADn2R3q7pT75Xd2SrGjK4cCbyo5hRQkf8DamH3vnyh8KXm7GIOWx0YSMRHRt4g/8+ovrXaQiP0azzOYaNN+IjCPzVI/Jrs3mS+c03YA5tEAAEEEEAAgTYQIABsg5PMISKAAAIIINBMAQVZP04kEjkFKadqP+begDZOURV1YaJU6lW91nSfNN2p4/H4D8O+v1QBmQlRYzbinUBNwxro49v1UOg1umfdTSewnfn+qNPleR/TNftGbdim4Prxx+k49yuNvFKtJj/2+Dd4hQACCCCAAAIIzE6AAHB2XqyNAAIIIIAAAkcRUJB1p0LA+xX2rB1vcXeoNZVt91FLKPA5XV1vL0ml0/eoG+qBoxxKyxepVVc+G43eKKyIQsDTVGNaRdhmNxsXHYaGqg2F9rue9/mI77//4NBQYyCW2WynGes6GpF5QyIavVYl/r520N2MnZzANhvn3Vd36V8I8u25fP472p5ZzoQAAggggAACCMxZgABwznR8EAEEEEAAAQSmCpj7AqYTibvVXdHcF/AUBSzmd0Yj0Ji6apDPkyagVI0X6x6GWxW+PRxkMY19j1SrI52x2F21cHirgp8lsjP3BlyQk2rXINH+zQqvrop73r/tHR7eb8uBdHZ2Pke+n1KJl6gm21r+NYLTmmr8fliDkgwWCr9Snbr1HxMCCCCAAAIIIHBiAgSAJ+bHpxFAAAEEEEDgkIBp8eWNapTbTDK5WYnFsF6vVtDSaSFQ1NXowCp4ne7B56VSqYfVGrASdJ3D1eqo6RKcTKV2KQAyowOv02xcF9JkAt//0Ui1n9RgFd/VMZmRawOf1Oovq67WL9d5v1zzk1SQdfdbnAhOd6i2f4q47qcPFAp36LltAXrg55ICEEAAAQQQQGBuAgSAc3PjUwgggAACCCAwjYBSrD2RaPRONxwuqyXYGiVYvdOsGuhiBS6rFLSdrTmmLsFbFQIGHVaZsK+uEPBBtU7cpBfm9RrVmQwUagY7V41mrUHNX1H4e7XCvxv03Ay2Mv6GHgObFP6t8uv1/6dCLlOd59jal1Z1PajWqZ+t1eufyxeLVrRMDeyksWMEEEAAAQQQmHcBAsB5J2WDCCCAAAIItL2AU1WXVgUvdynM2KsQ8CyFL2aUW+t+dygQMveAu0Thi5tMJncpfDP3BQwyIzKBma+uybsz2ezPNXJxh16v1mxjS0qVNTlt17MvRWKxdw8ODm6bWDp+LJNrtP6J293dvUHX31+qkCt0rvv1vPVVHH+PY6rqIcd1P6jWqF8+ePBgQR8xdkwIIIAAAggggMC8CVj3Q3zejowNIYAAAggggECgAkNDQ2MK1DarS+uDCl5Ml9ulKsiMxmvTZBIh0yX4EtPtVrXuUc07bChwdHS0qhGLr08lErtUz1maTRhom19JNW3Ruf0bjVT7KVOzXlsxKYC+OOR5b9W5fa0KMl1+zbm2LVgrqahfKvx7Xy6X+56+M2Ur8CgCAQQQQAABBBadAAHgojulHBACCCCAAAJWCYx3aQ1ns9e59fpJSl/Ot6q6xwdCpjvwBelYrFyqVu+0pc5SpXKfgskbNaJuVKNEnKa64pbUVtSoz1/xw+G/1ki1P7OkpvEyejOZP1Ww9rd68ewpddkW/plE8stjsdjriwcP/kZ11qfUylMEEEAAAQQQQGBeBQgA55WTjSGAAAIIIIDA0QTGRkeHFWLdqYCtpBTmqUdbx5JlSxTKnJqKx6MK3swIrFZMpmuyutfepB9uN+k+cWrUFhpQl9aWB4Hap/EY0vwNDfX7njEFgIVCwbSY1K3/7Jh6stnLFJS+UU5n21HRkVVMJJEfVsu/jyv8e/TINViCAAIIIIAAAgjMr4B1/wmd38NjawgggAACCCBgk0BXV9eAgqM/Uk2v13yyTbVNqcWEWTsUVv6v5zgfUMBl04AMcXVtPSlUq21QyPVM1flChXLrTO3Nur/dROhntr9Fu/mWzt9PQ5HIfbrX3z69Dnz0ZHPsZurs7FyrFonvU/D3dL1cqdnWf3RvVW3/oPP3dQ2WYp4zIYAAAggggAACTRcgAGw6MTtAAAEEEEAAgakC2Wy2x3XdpylIeruWXzz1Pcuem1Fs/0uh0icPFou3WlZbqLe3d4U3NnaO77qnyvIizRcoVFqlwO6xUYM16IVaNM5oGv9ReKiF3/j6CvxK2uYObfN2zb9yPO9BNxq9W4NUWNdirTeb/S2FtW9R4S/WbO73Z+t0syw/KtsbFCznbC2SuhBAAAEEEEBg8QkQAC6+c8oRIYAAAgggsCAEurPZ31UYcpl+jDzH6oId53sKwv5+sLv7xtDWrVYO0tCXyayvO86Fav1mRgxepXmZnver2V6PHrv0GNMyM4BIhwJC04XYtOgzLR2HNY9pnaoW5PU4qIEzDujRDDxiWkFuD/v+bQeGhh7Qa/umgYFETy73VF1Hb1Stv2dfgY9VpCD2el1H1+SKxe8/tpRnCCCAAAIIIIBAawQIAFvjzF4QQAABBBBA4CgC3d3dTw7V63+twOlJertXs3W/TUxBCm82KWS6ql6v/0AjtR44yqFYtSjd3780OjZ2mvrAnuz5vgkEUwr8krrnnAkFzWtJOzt8z9uvQNCM5Dvq6nU9FNo2Fo1uHtm/f8/4Ohb/yWQyfeFw+FKFau/UOTp9pi0dW3xIpqyDMr8lFA5/RCP9/rLF+2d3CCCAAAIIIIDAuIB1P7I5LwgggAACCCDQXgJ9fX0Zv1J5t+e6L9eRm3u3WTnpR5Np/XeZE4l8X91gTQs5SzMnK/nmsyhH3Z+Xe7XaC3ROrtFJSMznxud5Wzs1evPXnHj8bw8cOGAGT2FCAAEEEEAAAQQCEbD15siBYLBTBBBAAAEEEGi9wOjoaLVUrf4knUgkFeasUQXdra9iRns095a7VC3qeuLx+I5KpbJ7Rp9ipXkV0GAfT1Brxnco/HuXNmy6Nts6PaK+1tfq/pHv0zVuzWAptmJRFwIIIIAAAgg0V4AAsLm+bB0BBBBAAAEEZihQqlR+mY7F8upqe4q6pS6Z4cdavZqr4Ol8zati8fiDCgFNS0CmFgloAJkLw47zQfm/RLscv5dhi3Y9493o2jXr3qOWfx9R+PdZPael6Iz1WBEBBBBAAAEEmiVAANgsWbaLAAIIIIAAArMV8Hur1c2VROL+iYEqzpnYgAlQxlOV2W6wieufrHvmnZtOJqulcnmT9qPb51lXYxMPv2Wbbpz3WG9X1yv04r3a85M12/Yb9rFr1HG+otFVPpouFn9YNAOsMCGAAAIIIIAAAhYI2PbjyQISSkAAAQQQQACBgAQcE5ioVd0jiUTiEdUQUeBzpsJAM3qtTZMJe0x3YDOYxhmpeDybct2HSrWaymeab4HeZHJFKpV6g9Bfp22fp9n8fn0scJvvHc5he7pGTVBZVlH/qsFVrikUCjfrYqhpWSPAnMNW+QgCCCCAAAIIIDB/AgSA82fJlhBAAAEEEEDgxAXGA5NyubwnnkjcpxdVbXK18pWuE9/0vG1hMtRRXX0Kfc4NuW4qFYtt170MrR8heN4UWrCh3kzmdD8cfoO6hf+lrFdP2eXkOZiyLJCnJvvTPQm3aefX6lr4e4V/pkWomUyNJqhkQgABBBBAAAEEAhcgAAz8FFAAAggggAACCBxNQC0Bc+VVq36RHB0d0funau472npBL1MAlFJAdZ7nOCsVAj6qEHCvajJdgpnmLhDrzmSepJGh36Vw9eUyzipkm/vWmvvJzdr81bn+/msqu3cTADfXmq0jgAACCCCAwBwFrPnv6Rzr52MIIIAAAggg0AYC3dns76hr5ad1qCs1xy0+5E0KA/+qo6PjVzt37ixZXKe1pa1cuTI5PDx8keP7n1ORp1tbaChkRvbdqeZ/b8wVi/9jcZ2UhgACCCCAAAIIWHcDZU4JAggggAACCCBwhEC5UtmuLsE36D+XZ+nNpZrNPfhsnHpU47OrY2P7y0uXbgrl8+Y+cEwzFRgYSLjF4ksV/n1GHxnQbOs/q0349ysN9vGafLF4i57T4lMITAgggAACCCBgrwBdgO09N1SGAAIIIIAAAo8J1NUl+IBCwG8qEerV4nM12/g7xgRWWf15XqJU6spks78cHR019zFkOo5Af39/R2x4+ErZmZF+ezS7x/lIUG+bkX3/2YR/ut/fDj1npN+gzgT7RQABBBBAAIEZC9j4w3nGxbMiAggggAACCDRXoKen5+JoNLq8q6srPzIyEnTQ4SkELIcjkdvdcLikoOjJOvrGbxlzgzgTvtkwmTqium/d6Z7nnRaLxe5W3YMThdlSoy1O43Vks9l16kp7tXBeogUZzTY5Tb22xtTF+8pYrXb14NCQud+fcsBgpyVLlqTD4fD56XR6dalU2hlsNewdAQQQQAABBGwVaPxotrU+6kIAAQQQQACBAAWSsdiTXNd9Rb1We2JPb+9NQ0NDjRAwsIBmbGxsRPfYe9Cr13eqiVi/7g1ougSb1mJTg5oA1SZ3ndCz9QoCz0kkkwV1Cd5Gl+BJm0NP1OVXwztfqovpg5qfr4Udh60R9MvGNeWpW/LtenF1JBr9yv5CYU+AhU1+95YvX56qlErvDbvuM0Ket6dUqdwfYF3sGgEEEEAAAQQsFiAAtPjkUBoCCCCAAAJBCyQTiQ1q8WRaZT1fIWA4Fo8XTVdcvQ70nmfqVjuk+wL+JhGPb1PAtkT1rFYQaOPvmojrOGs1gu36eLlcTSaTD5c1BX1ebdi/WpV2xUulP1aadYWMTGtO++7rqItLdY3pz88U/l2l+/19Xdde3gK/aGdn5/lerfYXquUyXftx1XgjAaAFZ4YSEEAAAQQQsFTAxh/KllJRFgIIIIAAAu0noADwDB31hcpBTIj1dAUN/fF4fL9CwG1ablpHBTnVFQJuSSUSu1REp+YBzVHN1k0KuJarqDMV0oR1H8NH5WdDiBSYk8KrNWqy+acq4I2y2aBrK7BajrNj09X8+5qvGSwWr9O6gQbfE7WG5ffb+k5eoW7Tr9VjTI8Pq8abFABuPM7x8DYCCCCAAAIItKkAAWCbnngOGwEEEEAAgZkIKAA8U6HfxQoXVpn1FdaYQHBFMpXap4ZsD+t54MmNQo9HEpHIRsd106pnrea4ZpVs1eTLrlfdSJ+i4GtFRzx+1+ihEDBwvxYruf3Z7Cnapxns4y91zk5S+GcMrDtfqqmgov7Tr9U+qvv9mZF+bZjc7u7u5ynwe7uup0tNQYcaKYZ2qtabCQBtOEXUgAACCCCAgJ0CBIB2nheqQgABBBBAwAqBwwNAU5SCh7UKIM7Qfe12KwTcqkWBt4oqj43tiyUSNypJ2q2A7SLVZMJAm6ZDAZfjRJTYnKY6T40nk4/Kb7uKNAFYO0yuev0+VdfO36pb+QvkYIJaM9kW/pkTsl/z32i+Jj80tO1QmcH+Xadg2+vqulQh8gf1HXxyo9UkAWCw54W9I4AAAgggsFAECAAXypmiTgQQQAABBAIQOFoAOFHGMgURT0/H4yd3RCJ3jI6NDWt5oEGOutWWM5nMAxqWdZvCkbNNi7sAyGayy7DCr1OE9Qz5ltWN+faZfGihr9Pd2flaHfPVOvYn6Fjsu9+fijJhmkK/LWqZ+K5IJPJfuVyuELD7+HeqP51eWkomP6zw9G0qcv3UmggAp2rwHAEEEEAAAQSmEyAAnE6G5QgggAACCCAQOkYAaNKSjFpynea77tJUNPpgqVrdHzSZBmio9vX1PVipVu9WMNKl+bSga5pm/2qoGOpSunOaBgbpC0ci91Wr1dFp1l3QixXK9nWkUu9QsPb/dLym+685duumifDvu6rzPRpl+ro9e/aM2FBkb0fHGV4k8m59116m71zf4TURAB4uwmsEEEAAAQQQOJoAAeDRVFiGAAIIIIAAAuMCxwwADxmZbpwmBFyhLsEHJ7oEB6pXLBZrag34SCwWe0iBkxoEhi4ItKBj77xXgdPpYdc9M5VO318qlQIPUY9d7uze7enpOVNp30d1jC/WuVg9u0+3fO3P133/U7p+fmGuoZbv/Sg71GAfzwy57hWye5HezhxllfFWi1rOPQCPhsMyBBBAAAEEEJgUIACcpOAJAggggAACCBwuMIMA0LQEjOlzpymkWKsQsK4QcLNeB35fQIWAu2Lx+CbXdcOqbUA12XZfQJU03m+6Qw9nqXtnvwZXKav12W7TknH8zQX6R60wMxot+rkhz3uTDuGl8jfHaOWk2vbpGv5XhX+fUPB3ryVFJnS/xJcpPH2L6nme6ktMVxctAKeTYTkCCCCAAAIITBUgAJyqwXMEEEAAAQQQeJzAjALAQ4NYmN8UAwpTfksh4AG1vtuuAK70uI0F8EI1DKqL7S8VrnkKUZaphP4AypjRLhXkbFCdZyo0K6d1L8OFGgKa8M8bG3uZuV+djunZMzr4oFZynPu162vVvfajhUJhV1BlTN1vNpvt0TX7Yt1j80otP1uz6TKtRpRHv8cmAaBkmBBAAAEEEEDguAIEgMclYgUEEEAAAQTaV2CGAaByv8kpqxfPVpfWfET3BdR97QIPAdUisaKBNm5MxmJ5hYBmAIWTNE+tebL4oJ8ozFmqpOdczSOJRGKvah9STSb8WQiTGeV3ted5L1Wxf61jOb0xUq2FxRvTexVSXpUrFv9BzmULanTM/RKj4fCfqq6PqZ6pg9hMe70SAFpw5igBAQQQQACBBSBAALgAThIlIoAAAgggEJTADAPAw8uLKZR4rua18UTiNrXCK2qFwEMshYD3qHXiJtX1W0pTzP3UbByJ1jh1KQB6btj318eTyfuUTe09HNjG1wr/zgl73tWq7fWau22scaKmsoLgB9Xq7035QuG/LanT1f3+BjRy9ad0fb5ZNZlu9TOatL5Zj3sAzkiLlRBAAAEEEGhfAStHYWvf08GRI4AAAgggsDgETMsvxRIv1A+Nf1WrplN1VNO2YGrlEefz+V84tdofaZ9f1ZybCE9aWcLx9tVwiniOc6le/IOCtRce70NBv29qNLWamlWLjcGqMr9x2pz+ftVcA+ZaCNptYv+m5d+p5rui2l5ocatJS7goAwEEEEAAAXHcaPoAAEAASURBVATmIkALwLmo8RkEEEAAAQTaRGCOLQAbOuYfjUvCjvPUWCIxWOnvfyQU/OiqXqlaPRiNx2+MaGAFhS1nOK6bahRs2aNJrJbrz3mJeLxbLRhv0mszqrGZzHtBTVP3HenKZt+lBabV2rmarfxtacI/neuDuiCvrfn++/NDQztVa+AD1YRWrkx2Os4f6Fr8hOo5X/OMW/5p3fGJFoANCR4RQAABBBBA4FgCVv5IO1bBvIcAAggggAACrRM4wQDQFGpag5kQ68JktepGY7HNFtwX0DcDlGQikXtCrntAXUFXKkRZMqFquuBODbgmFgf2YELUfhV0ugaGOEf3BQyVV658JDQ4WAusIrPjdeviXZ73+7o+3qHBKl6i5nVrtdTUatM0fi7Hw79Q6B5Xo/yG6/UvDg4PH1CRgXdJV6u/3vTY2Gt1bt+pes7UPKeWkwSANl1y1IIAAggggIC9AgSA9p4bKkMAAQQQQCBwgXkIAMePQSFFt0KiDbrHWVr3BXxEAVxu4uCCCtuckbGx4Y5s9n6/Xt+tNKhT9axRMbaFWIeYHMfcs9C0sFufHB1drXsZ1sp9fXtb3qJSLda6XPfJyZGR16iWP5PX83ReTW3WTarNXFumxeSP9eRT4Xj86/vzeXPdmeVBTJP71f3+1qpl7Btk91p9N1afSDEEgCeix2cRQAABBBBoHwECwPY51xwpAggggAACsxaYrwBQO1ZDOyerx/OUgnRqRN7Cymp172AoFGRLNmd0dLRaqlTui8XjD7iuu1T1rdA8626Y+kxLJgWoy7Sjp8jwjFS12mG6BqtVpVNdvnwklM83x3JgIJGp19emE4knaZ/mHn+XaX7pRC0tOe457mREAduP6r7/gXyxeJ0519qOCeECa/23LhSK+5nMJfouvE51/IUe+9Q1ebyl4hyPUYc4nisyCMhcAfkcAggggAACbSJAANgmJ5rDRAABBBBAYC4C8xgANoKXuOp4ol6cPRqPb9d97R7S68ACmYaJWiQ+mkql7tHrqGob0GO68Z6Njwp9Vir5ea5q+yMFl71qFRhJplKOjiEWiURiamHmKvAy97ibrW24v78/HQ6Hsx0dHT3qcnyytv10Nxw2Lf4+pP0+f3zfNqJMqUnncJ98vqb7O35Ug33cOeWtIJ+6fjb7PPldpdp+T4WYoPmEwj9zMNqeeSAANApMCCCAAAIIIDCtwJzuNTLt1ngDAQQQQAABBBCYXmA8qTBv+657gUZluKo3m+05WCx+efqPtO6dwcHB+7S3y7s7O83j32lOarayS/ChRmOqToGlHP9EQdef+J43qmaWP1UgePfY2NgDGpn3zr58ftPo8uXj//B1d+3yE+oSu2UiFFRrNKes4/OWm1s0hkKpXbvqB7q6Ttdnz9M21mt752jbzzSDpDT213g061s6mS6/JaVq78/l8/+s5xVb6tS1/gqNkvw2naOz5dooa/I70VjAIwIIIIAAAggg0AwBAsBmqLJNBBBAAAEEEDi2wKEA5GwFIlcpcDsnVyj8jT5gumgGPVU0MMjXPM/br+Tv8yqmJ+iCZrL/iWAuqWDp+ar7OfqMZ0Kmg52dw6Hh4c1qJjYSymb3lxxnZ4/jmEEwQjnf7/N8f0VoZOQkrZsudXaepgE9OrSu6SfrapkJDsMLIPQzh9OY8koA/58CzOu1wJbwL6Zr/ErV9ceqaaU5L0wIIIAAAggggECrBQgAWy3O/hBAAAEEEEBgqsAKxSGvVECyMhyNXn7gwIFdU98M4nkulyv09fX9qF6v/75awb1PYdizg6hjDvs0rcnMb7vIlJApqUDPDHDi6bGmEGpM743fK1DuES2Ljq/vOKal46F7Hy7QgErHc71aK34gGg7fpetoSMcT+KTraHl9bOzjqu2ZOjknBV4QBSCAAAIIIIBA2wpwD8C2PfUcOAIIIIAAAscXmMd7AE67MwUjHXpzrcK2tal4fKcG5dg57cotesMMGFEul7frvnp3Op5nQrTzWrTrZuzG/N4zwaAJ+Ey3ZnN/QzOb52aZeW9B/yZUy8V/DYXD71d4e/vEYB86pGCnnmz2SWpJ+n5V8Xu6xruaVQ33AGyWLNtFAAEEEEBgcQks6B97i+tUcDQIIIAAAgjYJ9CKAHDiqE1LtDMVtJ2SjMcrGhzkfr1Ww6lgJ4WA+5Lp9IMKAWvqGnyyqskEWxF7f5yA4+xW+PfPoUjkMwr/7n3ce8G9cLuz2ZfqWn67SvhdzYdaVjapHgLAJsGyWQQQQAABBBaZgPmPLxMCCCCAAAIIIGCDgLIM5xnqprpCA1gk9Pxbpjtu0IVpcJD7s9nsB/WjaYcSyVepng2arRwcJGirFu5fl0noPrWs+5L6M/9LUSephfuedlfd3d2dumfiCzW/03Wc9Qvs/onTHhdvIIAAAggggMDCF6AF4MI/hxwBAggggAACTRNoYQvAyWNQstarF8/Qver2xhOJg5VKxdzPLdDWgKqhVCqXb07H4yMqZKlad61QTcqfmAIQMAOc3KLr5NODhcI/mnMTQA2H7zLc2dk5oNaIf6CL4mrVZu5t2ZKJFoAtYWYnCCCAAAIILHgBAsAFfwo5AAQQQAABBJonEEQAOHE0pgXgCxS0dcXj8W0KeXY37yhnvmXdn/CuVCKxQ0FPv2o7deafZM35EpD9j3RtXDVYLH5rvrZ5ottR+He+anqHWv2Z0awTJ7q92XyeAHA2WqyLAAIIIIBA+wrQfaV9zz1HjgACCCCAgNUCpvukfqi8SqHKexWwXGBLsWp19mN1O32T6rnKlpraqI4Py/6N5hzYcszqHn6huUbNtUqXX1vOCnUggAACCCCAwOECtAA8XITXCCCAAAIIIDApoBaAZ6lL4yVq7bZycmHrn5yqGs7TiLyjGpSjMdBDoN1v1SJxUPU8KJcD4jhDxTA4SJOui/ET7Ti7NAjLR+T9L4VC4ZEm7Wqmm21ce47u+fcKBX/v1wd/W7Oetn4yLQBV0KPa8y1qoWoGz2FCAAEEEEAAAQSOECAAPIKEBQgggAACCCDQEIglEsv0/EKFDKc0lgXwaIKV5er6eZZGCO7piEQ2j46NDQdQx+N2qTCyEIlENrmue5feWCGjkx+3Ai9OWMCEW7qX3g2+utbWarXvFItFK7qCn5ROL4knk29V8PZ6HeQ5ms1vanPbv0Y4qKetmYyRRkTZqPl6BdNBh6OtOWj2ggACCCCAAAKzFiAAnDUZH0AAAQQQQKB9BFKpVFrB20UKGczIt0FNJlgxIWCfWoCd7bluLKP7Ao6qFV5QBTX2W61WTavEzal4fLeK7JPTusZ7PJ6YwHj45/s/1PX3d7lC4QfG+sS2OD+f7s9m19XC4dfpWvwrbXG1ZhP6BRL+mSMyTprucFz3B7oW95kXTAgggAACCCCAwOECBICHi/AaAQQQQAABBCYFkslkRSOuXqKQ4cLJha1/MtmqSnWktPszlbYsVQusvAKPba0v58g9quvlQxqxeLMK7dS7ptWkqZNp7gIH9dH/Vqu2K/PF4o1z38y8ftLp6ur6bX0f3qTU7eW6Fs1o1Y1p8hptLGjV40QAeINq+qa+D5VW7Zf9IIAAAggggMDCEiAAXFjni2oRQAABBBBoqYAJFHQfwHMUMjyrpTuefmempVVKYcd5SlzOTSSTm/r6+vapa6jGhgh2UvfLXeVK5duJRKJPtZl7JpowkGn2Ajt0kr+aLxReJ9Ods//4/H9i+fLlqXA4fIlaI16ja+/52kNSc2Ct/qYe4UQA+O1cPn/91OU8RwABBBBAAAEEpgoQAE7V4DkCCCCAAAIIHCGgkO0kLTxbc/8Rb7Z+wdSWVkv14jljtdpGBZVbVUq99eUcsUdPIeB1Ck3Teme9ZjM4yNSaj/gACyYFTKBmBrP4vMK/9+hRDQCtmGIK/56r8O+LquZUzY3z2XgMtkjHuV/3SPy6vgMbgy2EvSOAAAIIIICAzQIEgDafHWpDAAEEEEDAAoFoNOrp/mK9SjsusqCcqSWYACarLpmXKqSMqOXdXQpBylNXCOq5QsAb06pHidYa1XByUHUssP3eqBs9vmWwUPiSLXWry2+XrqsrFP59TDWZINxcc1ZNCv/+vR6J/KA6Omq6TTMhgAACCCCAAAJHFSAAPCoLCxFAAAEEEECgIaDBFw7G4/Gqko+XaFm0sdyix4Rqe6Lr+6s1avEN6jZqRQio+wI+0pFI3KOAcpW6ja5TV00THplWbtaFSAGdS2VXh0wUsP0w7DjvOFgo3BRQLUfstrOzszvs+5/UG6/WnD1iheAXmGuprD/vK+ZytwdfDhUggAACCCCAgM0CBIA2nx1qQwABBBBAwBIBtQIcDruuGYX1qcpsbPz9EFfItkb1nZVMpXapIaDpShp42KaRivcmo9E7Qq5r7mVnQsBuG+pSDUFP4+Gf7/tbVcjHHM/79MGhoXv13JyzoKZGMBvu7u5+soLbq3RNXapirAv/DuWmIXPfyw/V6vX/sWWE5KBOHPtFAAEEEEAAgeML2PgD/vhVswYCCCCAAAIItFRAAUO5I5N50Pc8E5KcogCio6UFzGxnpiXgGVr19GQsNtLZ1fXIyMhIdWYfbdpafqla3Z9Kp+9WmDSqUGmt7Gy4l2LTDngmG5aBGv35mxSMfkrdy/9J3X5NQBpk+Dde9pIlS9K64d+L9OLdupaeo8fE+BsW/RGdLiN/j0r6Qjga/Vw+n9+v54HbWUREKQgggAACCCBwFAECwKOgsAgBBBBAAAEEjhDwR0dHhyPR6J1uODykBGKFAhJzTzTbJpMtmS63p9VrNRNaPqC6gw4BQ6VSqdLR0bHRr9d3CcwEgGaUYN3yri0n03LtRl1Dn1CA9fWDBw8O2aCg0aQztWr1FQolL9c19ETVZMJuqyZTkJK+e9V88jNq+fePCv/2HlpkVZkUgwACCCCAAAIWChAAWnhSKAkBBBBAAAFbBUxXQ3WvvSWVSBzUEK3nKpAwXVptC0pM99IlqmuD5/tjun/hft0XsKDXQbaSchREVjQ4yL2xePwXruueonpWaI5pbqdpWOHsj+u+//pCsXjDRDgb9PUT1v3+1qpV3R+rEBP+nabn5loJuq7DrwszKvIDKuoDuULhi3T7PZyH1wgggAACCCBwLAECwGPp8B4CCCCAAAIIHFVAA1xs1L327tSbT9Kc0Rw56orBLDTBjQlwuvXkORrIYV0ilbpXwaVpLRX4pDByUPdU/LFCwNUqZr1mGwdWaYZTSeHfN9Ry7fVDQ0Omy68Vk+73d3bY8/5Oxbxec49mG8O/suweVOvE1+by+R9N1KgHJgQQQAABBBBAYGYCBIAzc2ItBBBAAAEEEHi8gK9AbVcymfyuunKu0ltrNNvUms2EgGZy1RzwVA0ycWo8Gt1Wrla3HVoc7N+JlpTfTiYSB1SJCVFTwVbU9L2b43yHWq6926aWa10dHU9TP+wrdY08T/U1umQ3rp2mo8xwB2bwne8o/PvTXC63Uc/rM/wcqyGAAAIIIIAAApMCBICTFDxBAAEEEEAAgVkKeAoBh+KJxE+UmJjBEi7S3AhRZrmppq7uqPXUgAabuCAZj7vqhntbU/c2i4339PZuHKvV7pXf+fpY38RHbWyBNoujGl916jFsUsD2Rg2E8m21/Bub7YaatX53Nvs6XRPv0bVh63VrDt3cL/Hv1ff3nRODfRD+NeuCYLsIIIAAAggscgECwEV+gjk8BBBAAAEEmizgq0trOROJ3OO57kHt6ymaG11ap4ZATS7juJs3rbqW6P5u6xOJxNLysmU3hfJ5E64EOplATCHq1nQ8fpOCqE4VaUYJNn422c3WyNyDUWPVhkoa6vdbSoTfppZ/N+lYy7PdUFPWHxhIdPv+B1Thq7X9MzWba8OWaep5L6mo90ZqtX8cHBoyLSjNe0wIIIAAAggggMCcBAgA58TGhxBAAAEEEEBgqsDo2NiwBrfYGHbdh9UluE9h1jLN5nfG1EBj6keCet6rHZ+eLJe71CJtt0bn3R9UIVP2W9c9FXelotH71M1zTOnZgMKp7JT3F9RT1e7opD+qVO2L6np9zcGhobt0AFa0XOvp6dmQGB19s+ox4Z/pum7T5Os7Y8LIMX2HblHrxCs1WMrXcsPDNlyjNjlRCwIIIIAAAgjMQYAAcA5ofAQBBBBAAAEEjhRQS8BSqVz+TTqR2K5BVE131gHNNg0O0ig6rScXKGRZpu7LOdX9cOONIB9L1eqBjmz2Ht/zhhWgrVQtJwVZz5z37Tj3KcX6XDgW+8KBfH7rnLczzx/USL/PVovEy7XZV2m2MWBthH8/ch3no4OFwjfMd2qeGdgcAggggAACCLSpAAFgm554DhsBBBBAAIFmCag128PJWGyHGjN1ah9rNDe6BDdrl3PZbkT1bVDicrJCwB29vb17Lbg/nTM6OjqsEPXX6qa8Q7UZOxOk2hiiHs3cdPH9tVowflAj1X5Vx1LQax1GsNPy5ctTGnHZDPbxHp3zS1WNrZ5FYZlBdT45WCz+PFg19o4AAggggAACi02AAHCxnVGOBwEEEEAAgeAFHI22u70jHjddP1MKhE7RoxkkJPAw6HAaFTSg+cnVsbHt0Wh0vyUj1NZ1X8BN6lL9cwVWq1XfGtVtY4g6lbOkVovf1/y6QqFws96wostvR0dHf61We67Cv2vkeL7qs3EyZeXV5fdaDfZxVb5YvEevVS4TAggggAACCCAwfwIEgPNnyZYQQAABBBBAYIrAaKUymEilfqF0Y5vSjAs0mxaBNk49qu1FbjhcUcu7RxS+mZZrgU/q/jkYiUZ/rvsqmpGVn6jZ1hDQdFP9VK1ef7daUe4MHG6igK6urpNF91rhfUqLzL0frZsmUr6dCsnfEXKcazXS717riqQgBBBAAAEEEFgUAgSAi+I0chAIIIAAAgjYKaAwrdLX1/dARS0CFXasV4u2JXZWGnJV31MVwkQUAm5U3Xkb6jQtEjsymVs9379D9ZyiGlfIMPDSGjUo3L1NZm9SUPllhVe5wAubKEDh34CeXq57/l2hRyt/7xpD+d2tVn/vzWQy39y3b9/wRPk8IIAAAggggAAC8y5g5Q+ieT9KNogAAggggAACgQkUi8VaZdmyh+Ll8v2KrpIKPjYEVsyxd2yitTM1n52Mx71ypXLvxOqBJm66l151abm8rZxM3qSwbZMZvESGSxsh3LEPaX7fNfs0swZ5uUut1j6iF5/uyudv3aUi53dPs97a5DnqzmZfrhfv1Px/tBXT9dy6acLwPxX+XVno7r6+uH27uX8iEwIIIIAAAggg0DQBAsCm0bJhBBBAAAEEEJgUyOdr6tL6SCKZfEjLxjSfr9m23yHmXmxxzacq2FqbisWqS6rVTWoKWNOyQCdTg1ol7k0mk5tU5G+UwG3Ro6eQa7XCpLAJlJo1mW1PbH9M+/yp9vPPCv8+r2U/Uqu/bTb4mGMfUNjnZjKvDLnuW/TyqRIx59Kc0+bhaONzmMYE+jkZfnr8fon6bsxhG3wEAQQQQAABBBCYlYBtP4hmVTwrI4AAAggggMDCE1CX4OUamOFt6p75CoVI/WpNZtNBTA2Mtqiwa51w+N8HBwd32FSkanG6u7ufHPK8p+u5abV4qgpfq+e942GdTOeqOv7j8FArP3PIB/X6YW3rQT2/X+Haz3O53E16PtfNm23O+9TT07PKr9dfpg2/RvO6iR2YGq35rWvOi671/Qr+vhqJRP7uwIEDuybq5AEBBBBAAAEEEGi6gDU/ipp+pOwAAQQQQAABBOwRWLky2TU8/HaFgP9XRa3RbN1vEhPY6N57FRX2xbrvX6OuzCYEs2EyVpMBnALVjFetXqJw6emhcPgcpUxmwIsuzR2ak5pNSzgzTzeIiGmRWZmYzYAe5l50ebVSOxiq1++Ww/+6sdhNCqyGtLwxPa6GxsIgHrPZ7KlqAvlmgbzadZy4ZYFyg8Scr0cU/v1bvqPjY6GdO40zEwIIIIAAAggg0DIB635st+zI2RECCCCAAAIIBC6gVmy/p1ZsV6qQMzRHAi/o6AX4CsN+oDDwMtX76NatW62+X5sGlOjT6LfnKrg7y/W8k33XPUmh2BL96Fuhw8tq1q3nxiczunBRydSjWnev43n7PNfdpnXv9TzvLo3oe2BiPSsfBgYGEmqNuEKh36cUel6qIm39XWu6+G5U68m/Ub3/bSUmRSGAAAIIIIDAohew9YfSoofnABFAAAEEEEDgkIBacF2oFlzX6tXpmk1LNRunmn40PaIw7fJYLPbTvXv3jthYZLvUtGTJkrRGSH6mQsuPK8A0XZ9tu59k41SYlpWb1IL0NWpBeltjIY8IIIAAAggggECrBWz9sdRqB/aHAAIIIIAAAgEJaHCQA9FY7MdqtdanEtaoNZqNIaBpLdeplma/49Vq+0qVyp16bbp1MrVeIByPRF6lc/EZ7XqpZutajuoaNipDajn6zZrnvVGtKTfrdd0sZEIAAQQQQAABBIIQIAAMQp19IoAAAggggMBUgbpacx3UwAi/iDiOp2DnNMd1zf3rbJtMCGjuqXd+MpHoT6XTm0qlUtG2IhdzPRrsY2UiFvtrHeMbNS/RbM6JVdN4+Od5exQBfnasXv/Q8PCwGUCG8M+qs0QxCCCAAAIItJ8AAWD7nXOOGAEEEEAAASsFFAKORmKxe9UdeFhN685QkNI5UahpaWfNbUtUiLmP3gYFlQPxRGK7WjA2RnO1pkYrT/Dcipo07ezsvECDxrxHm/ljzSb8s2kav0ZN+Kd7KG5X0R8f8/1rFf5ZfR9FmwCpBQEEEEAAAQSaK0AA2Fxfto4AAggggAACMxdwTAiYSKU2Kug5oETFjFq7SqGKebQrBHQc0xLwbNW2PJlMFsorV24PDQ6awR6Y5ltg3bp4t+8/T6HaFdr0H8rc2Ns0aXDf8T6/ZnCYH6vOz/vh8FcLhUJOrycDTJsKphYEEEAAAQQQaD8BAsD2O+ccMQIIIIAAAjYLOGVNusfeHclU6h41p1qq+6iZQR5MCGjT1GjxtV5FDSRGR6vRaHSnAsySTUUu9Fo0onFvqlx+kVK0N2t+9sTxWBUGqyZH16g579/TSL/vzeXz/6NL2Az+YcI/UysTAggggAACCCAQuAABYOCngAIQQAABBBBA4GgCClH2xuLxO5WiZDWfp3VMoGLLNFmLGn+tDnnek3Uzunims/PW0dFR0xKQ4OfEzpTb39+fDtVqb5frO2R8hrrWNrY4ad9YEPCjp8r+zfP9D6nV38aAa2H3CCCAAAIIIIDAUQUIAI/KwkIEEEAAAQQQsEFA99cb1H327lfiM6J6ztEc02xbAKSKnLTmMxRYrYzG45tUt+n+yTQ3ASebzZ7i1uvv8133lXLtn9tmmv4pT3swg8B8UgHgp4vF4pam75EdIIAAAggggAACcxQgAJwjHB9DAAEEEEAAgdYImDAtGovd5YbDt6pL8NO018bgIK0pYOZ7SepmcGe4jvPMRDK5SS0Yt838o6zZEOjq6nq6Wv19UZbP0DJzru0LfA8Vu1Ndfv+8Vq9/XeHfo436eUQAAQQQQAABBGwUIAC08axQEwIIIIAAAgg8TsDcW6+np+fRerV6l4Kh0xSyrXjcCna8MEGVaaG4VPNZyXi8VK5U7rajtIVRRXc2+yeq9D2CfIIe45qtC//MeB9q8XebQso36z6VNxw8eNC0AmRCAAEEEEAAAQSsFiAAtPr0UBwCCCCAAAIINASGhobGNDjIw2pdt0UtAU04dIZm5TDWTWZI2BUKKs9KJZMnmfsYqhWjGSGWaRoBtfrrSiUS71Kw9jrZma7e1gV/E6XX9fif6pb80Vyh8FNzTU5zSCxGAAEEEEAAAQSsEiAAtOp0UAwCCCCAAAIIHE9AXWu3pqPR+xXC1DWfrvUTx/tMEO+rlWKvBq44X/tOp9LpnaVSaX8Qddi+T7XsPNP3vMtU5+tlttzievOO73/B9bxP5IrF2yyuk9IQQAABBBBAAIEjBAgAjyBhAQIIIIAAAgjYLlCqVg8kUqlbFLBl1FRsmerttrTmuOq7RHOHBjPJKbzcozpNKzImdfFVw7+nKFR7gzD+SrNp1Wnr9IhaJ34tFA5/cLBY3GlrkdSFAAIIIIAAAghMJ0AAOJ0MyxFAAAEEEEDAagGFaRXdY+86dbONqFDTcqxPs5VdR9Wy7Tx1Wz5N3Zf3mxaMqrOmuZ2nhMK/SxX+vVc2L1C4ZutkRvq9T/f9u1Zdfj9grjlbC6UuBBBAAAEEEEDgWAIEgMfS4T0EEEAAAQQQsF6gVC7frPvHPaRCT9Y8YGPBJuBSiLRKIeAFagk4lMlkHhwdHa3aWGuza+rr68tEo9E/0c0bPyCTc9SKs9m7PJHt36BE+T2DhcJXTmQjfBYBBBBAAAEEEAhagAAw6DPA/hFAAAEEEEDghAU0OMhD6Xj8fm1oQEnbWj2aloDjudsJb3x+N9Cjwi4Jed7aWCJxtwYHyc/v5u3eWmdn5xrH866SwetUqY0jOTeuGV+tE69XSPlOdfm9wW5VqkMAAQQQQAABBI4vQAB4fCPWQAABBBBAAIEFIKAQcE86FvuV57oFlXuGupam9dgIdGw6gpSKOU0B09JUPL5bdbfFPeV6s9mLdNzvUED7Ej1mbTohE7Vo4GbH0QWzXzV+Iux5Hz04NHSf3jPXEBMCCCCAAAIIILCgBQgAF/Tpo3gEEEAAAQQQmCLgj1arByORyH1uOJxTd9sB5Tn9U9636WlUIdMpms9Q9+WIQsDf2FTcfNfS09n5aqVrb9XxPkvbNgGoddN4+Of7m1TjJ2u12j/nh4e3q0jCP+vOFAUhgAACCCCAwFwECADnosZnEEAAAQQQQMBagWq1OqJ77N1Xq9eL6mo6oEKXWFpsTHWZ+tYrBBxLdXTsKZVKQ5bWOqeyent7VyRjsZcpRbtcG7hAszlmKyfVeKsJ/3R/wq/m8/mclUVSFAIIIIAAAgggMEcBAsA5wvExBBBAAAEEELBWwDEDbCh82jxWq21Ty64OVWruN2dr+GRGL77E97xEMpXao5Fm91krO4vCuru7z/bq9b/UR0z4t3oWH231qsMK/n6kAPDDhULhv3XtlFWAsmMmBBBAAAEEEEBg8QgQAC6ec8mRIIAAAggggMBjAs7Q0NCYwrTN4UzmZ+F6/RS9NaDZ1hAwpaDyEo2Ia0LAh1V3UbXWNC+8aWAg0a2uzQo036L7MJrBPqzs8jsBO6LH71djsdcPDQ7eo+eeZhP+0fVXCEwIIIAAAgggsHgECAAXz7nkSBBAAAEEEEDgKAJjo6PDiWTyegVs3Xr7Qs3Wtu5SYecrBHxiPJH4/9l7E/i6jvLu/567aNeVLEt27MiJHDvOvu+7YxICCQFCWJIWWkqBwlvon6W0tJS3tEALpfzL+y+8paWsZd/Clo2QnZCELE6cPY4TJXGcyNa+WMu995z/97m6ciRbsrY7R3f5zcfH9+gs8zzzPTNnZp7zzExXS0vLM/39/UVlBGxtba32+vouZf7Fz5CW10zzOArpkI/n338xN+GHMf51FpJi0kUEREAEREAEREAE8k1ABsB8E1V8IiACIiACIiACBUcAjzoLv6murHwMg885GKdsWHBBBnQ7kO2MsVSqg7kMt9lwZhTlUMGGrG4YLOtg/OZoJPJZDhxRsNri3Yd7305WYX53T1/fF9B5dwHrKtVEQAREQAREQAREIC8EZADMC0ZFIgIiIAIiIAIiUAQE/IbGxmeCVOp+PL/ME9Dm3rNgwz0LzcBWj05nRtLpQ+vi8Wd3p1IvmaKFGlpqa4/P+P4/APK9gFyFnoXGc/IzfgIj5Z9V4BU6NDRk8/0piIAIiIAIiIAIiEDJE5ABsOQfsRIoAiIgAiIgAiIwQQCDT2p4dPQ5htg+goUqyfE2hgYnJs4X0K+HfnVsh/uxWGtNZWUvem8rIP32qNKUTL4KHT+Mrq/HsNrICXYLK/CMTScz9v2KSf4+0dvXd6uMf4X1jKSNCIiACIiACIiAWwIyALrlq9hFQAREQAREQAQKj4A/Ojr6DIttPBbxfTMMrWerLjw10cjz4ln9PG8D8xjWVVZW7kL3nkLQtaGhYV11dfUfocv72Daia6EusGK4uhn4+81ILPb53t7eu/jbFvtQEAEREAEREAEREIGyISADYNk8aiVUBERABERABERgMgHmfuuoiUYfwnDlsR3MuYbJ5wtk34auWnutFUvleWz1GAIrampqBoeHh22l4NADhr+1tVVVr0SXt7F9CAXWsjGqtiCHUhuf5zD+fdVLpf5Pz8DAVjugIAIiIAIiIAIiIALlRoB2m4IIiIAIiIAIiIAIlCUBawcFrXj/7U4m383iIG/n76PZzOuuIIPZKlkluBflvh+JRr/t+/6L7LOWRZ8ZAzOOlI5h9LPh0stisdgBge//GUpcgS4V6OJIZF6itRWUH2axj2/W9Pf/5/ZIZJi/s888L7ErEhEQAREQAREQAREoIgIyABbRw5KqIiACIiACIiAC7gjUNzWdEc9kPkHj6JUFbdYCwSQr1mb+/AnGwJ/39PQ8zljm2FPjhkAb4rrQYa7mzRediGvZsmWHM1T6dRy7nO0EtoIPOT6/Tsdinxjo7r6z4BWWgiIgAiIgAiIgAiLgmIAMgI4BK3oREAEREAEREIHiIZBMJk+Ned6H8G57S4F7t01ANa8/22yBi2007G70Pe938Xj87s7Ozh0TF83nt7m5eVU6nT49GgRnYQjdxL3r2KrYbChywU8fk/OS/EEmCP7f/v7+36OzggiIgAiIgAiIgAiUPQEZAMs+CwiACIiACIiACIjAJALR5fX1GzKx2JsYOvoxjldOOlfouzbkdYBtiG0E4103rnwv8LsLD75tXjTahXEsxbmJ9h82ziDBkN7leBCu42ALLoMH8tvENbYoSg1bPVvBDolGtykB3UcwgH6UdP2KYdHtnHQ1LHqKXP0hAiIgAiIgAiIgAoVOYKIBWOh6Sj8REAEREAEREAERCI0AXnCr/VTqNRjP/haj2cEYlEKTnQ9B1sDLaWwGP5v7zuYIHOH4lITwh11q3n02x58Z/RKT7uXP4gg5r79n0f2fUr7/04GBgc7i0FxaioAIiIAIiIAIiEA4BKyNpyACIiACIiACIiACIrAvgURTQ8PbMZK9g1On73taRwqIwF00ar/W3df3DXQyo6eCCIiACIiACIiACIjAJAIFP4/LJF21KwIiIAIiIAIiIAJhEvCHR0fvr6mqeg7jUi2CbS48tZ3CfAKzyxrj2fyc7XMY/37E5Qtd+GR2SbpCBERABERABERABIqYgBqxRfzwpLoIiIAIiIAIiIB7AhgBn66oqrqP+fTakNbCZnPjKSw9gU4Mf79hkr+/6u3ru3fp1ZEGIiACIiACIiACIlC4BGQALNxnI81EQAREQAREQAQKhMDo6GhPXTJ5te/7qyJB0BrxPFscQ2GpCATBDhYu+VG8ouJ93d3dHUulhuSKgAiIgAiIgAiIQLEQkAGwWJ6U9BQBERABERABEVhSArt3706NjIxcw5DgAVYIXs+quuYNqBAiAVvsA/aP8fuZnr6+T9kzCVG8RImACIiACIiACIhA0RKQAbBoH50UFwEREAEREAERWAoCDAl+sKqiwlacPQgj4EE5HWx1XQ4pOCCQZWvGv4jv38GKzJ/o6e//IXLsuIIIiIAIiIAIiIAIiMAcCMgAOAdIukQEREAEREAEREAEJhEIWsfGnt1dUfFoEI0OYZY6BuNUBedlBJwEKU+7AWzNsLqbnS97vv9vywcGftutlX7zhFfRiIAIiIAIiIAIlAsBGQDL5UkrnSIgAiIgAiIgAvki4GGASo+MjT1fVVX1aM7tbwN2KlspWCGPBMz4h8ffLqL8CvMu/h88/x6GPet+yNsyj5gVlQiIgAiIgAiIQBkQkAGwDB6ykigCIiACIiACIuCGAHMC9sWSyYfimcwAHmqtSNG8gPlE7XlmYP3SWEXFfw50d7+Qz6gVlwiIgAiIgAiIgAiUE4HcR+tySrLSKgIiIAIiIAIiIAL5J9DQ0HBhNBL5PDEfzpbIv4SyitEW93jMj0T+sq+v74aySrkSKwIiIAIiIAIiIAIOCMgD0AFURSkCIiACIiACIlB+BEZHR5+tqq6+g5SfwhfWZn7j5UchLykeI5bNeFT+Kca/u9nXYh95wapIREAEREAEREAEypmADIDl/PSVdhEQAREQAREQgXwSCBgS3BmLx38ei0aXEfERbLY4iMLcCQxx6bfG0uk/GxgYaGff5vtTEAEREAEREAEREAERWCQBGQAXCVC3i4AIiIAIiIAIiMAkAkEqlRrCE/C3eAEOc/xsNnkCTgK01+7klZNHOfdJPP8+g/Gvi315/u0FS3+KgAiIgAiIgAiIwEIJyAC4UHK6TwREQAREQAREQARmIIAn4Eg8kXgyHottZRnbFaxgeyCX2tzLkw1eM9xdNocnWPgwusuLRj+ZymR+0N/fb8Y/BREQAREQAREQAREQgTwSkAEwjzAVlQiIgAiIgAiIgAhMEBgbGxsaHhl5tBZDIF5tKzECrvU8z9peE4aviUvL8RcknhlE05EguD7m+5/s6u+/Gmb95QhDaRYBERABERABERAB1wRkAHRNWPGLgAiIgAiIgAiUM4HM7rGx9uqKiufN3sWqtgdGPa+unIFY2s345wdBB6sm/wgD4Je6Bwdv47Dm+yv3jKH0i4AIiIAIiIAIOCMgA6AztIpYBERABERABERABMYJjIyNPefV198TC4JMEARH4vpW1kZAXCA7sAJ+aTSR+PxAb+8jyiciIAIiIAIiIAIiIAJuCcgA6JavYhcBERABERABERABI+Cldu8eqKmpeQDj1wsYAE/kWNKO28kyCjb8+XmMf38XjUa/0d/VZfP9lRuDMnrcSqoIiIAIiIAIiEChEFCDq1CehPQQAREQAREQAREoFwKVyWTy2Jjn/QsJ3lguic6l8xZcIP+KhT4e5O+xMku7kisCIiACIiACIiACS0ZAHoBLhl6CRUAEREAEREAEypRAZnR0tKO2ru5OhgMnmQ7vuFLnYPMf4vX3rWg8/tHe8SG/6VJPs9InAiIgAiIgAiIgAoVEQAbAQnoa0kUEREAEREAERKBcCATDw8OdVVVVmzGNbSfRp7BVl2jiezAAfpyxv1/q6enZRhptGLCCCIiACIiACIiACIhAiARkAAwRtkSJgAiIgAiIgAiIwGQCIyMjfXgCPhzx/Rc53sa2cvL5EtjfgoHz09FE4lvd3d07SyA9SoIIiIAIiIAIiIAIFCUBGQCL8rFJaREQAREQAREQgVIhsHv37rHh0dH7q6qrd3pBUIe33BrSlijm9GH0G44Ewa+DaPQLPX1937E0FnN6pLsIiIAIiIAIiIAIFDsBGQCL/QlKfxEQAREQAREQgZIggDfgY3VVVU8wL2Ad8+UdTKKKdUhwD8a/q1jk5LPdfX03lcTDUSJEQAREQAREQAREoMgJyABY5A9Q6ouACIiACIiACJQMAW/36OiOumTyrsD3fVJ1GFtdkaXuJTwY/yNeUfHPnd3dW9EdZ0AFERABERABERABERCBpSYgA+BSPwHJFwEREAEREAEREIFJBBguO5hsaLgnlU4/hfXsWAxqzZNOF+QuOppeT2C1/Kua2tqvd3R09BSkolJKBERABERABERABMqUgAyAZfrglWwREAEREAEREIHCJTA0NJQaHR3dhjHtN3gDNmJgO6ZQtTXjH8OWv+fFYu/r7e29c2BgYKRQdZVeIiACIiACIiACIlCuBGQALNcnr3SLgAiIgAiIgAgUOoHM8PDwrkRFxcNeNNqNj91JGNsqC0XpnNffQOB5n8n4/r/39fU9jm6ZQtFPeoiACIiACIiACIiACLxMQAbAl1loTwREQAREQAREQAQKjsDY2FhXIpF4OBqJPIqxbQhD4IEY32qyg25D1tZk5gx/nejyY1Yt/gLGv+/j9fd8yKpInAiIgAiIgAiIgAiIwDwILEXbcR7q6VIREAEREAEREAEREIEJAvXNzRti6fSrokGwMWB+QI6vs8Yc+07DJBnb2N/ie94tmXj8uoHOziedClbkIiACIiACIiACIiACeSEgA2BeMCoSERABERABERABEQiPwIoVK1YySeBlTL73alzyDkayLRTSxFadZy2Gia+brRNZzyLr2kRl5VU7d+7syLMcRScCIiACIiACIiACIuCQgAyADuEqahEQAREQAREQARFwTaChocHmBjzX8/3zMNCdhjyb4iWR2yr4jbPN1uYzJ8I02xhbKrdlMPrdHUSjt7LIx23M8XcfxxVEQAREQAREQAREQASKkMBsjcEiTJJUFgEREAEREAEREIGyJBCtr69fFo1GT2Q7DIPgMX4kcgKNvXXQSLLNNPezLdzRjwVwG/MMbsbg95Dv+4+zbWZuvx7OEY2CCIiACIiACIiACIhAMROQAbCYn550FwEREAEREAEREIGpBKxtl1i5cmWCxUPiqVSqojoIYkF1ddQbHvbH4vFajIMH2C0Y+F6qSKeHJs4Ne16GxUbGKioq0h0dHRNegK6nF5yqvf4SAREQAREQAREQAREQAREQAREQAREQAREQARFYNAEbEmybggiIgAiIgAiIgAiIgAiIgAiIgAiIgAiIgAiIgAiIgAiIgAiIgAiIgAiIgAiIgAiIgAiIgAiIgAiIgAiIgAiIgAiIgAiIgAiIgAiIgAiIgAiIgAiIgAiIgAiIgAiIgAiIgAiIgAiIgAiIgAiIgAiIgAiIgAiIgAiIgAiIgAiIgAiIgAiIgAiIgAiIgAiIgAiIgAiIgAiIgAiIgAiIgAiIgAiIgAiIgAiIgAiIgAiIgAiIgAiIgAiIgAiIgAiIgAiIgAiIgAiIgAiIgAiIgAiIgAiIgAiIgAiIgAiIgAiIgAiIgAiIgAiIgAiIgAiIgAiIgAiIgAiIgAiIgAiIgAiIgAiIgAiIgAiIgAiIgAiIgAiIgAiIgAiIgAiIgAiIgAiIgAiIgAiIgAiIgAiIgAiIgAiIgAiIgAiIgAiIgAiIgAiIgAiIgAiIgAiIgAiIgAiIgAiIgAiIgAiIgAiIgAiIgAiIgAiIgAiIgAiIgAiIgAiIgAiIgAiIgAiIgAiIgAiIgAiIgAiIgAiIgAiIgAiIgAiIgAiIgAiIgAiIgAiIgAiIgAiIgAiIgAiIgAiIgAiIgAiIgAiIgAiIgAiIgAiIgAiIgAiIgAiIgAiIgAiIgAiIgAiIgAiIgAiIgAiIgAiIgAiIgAiIgAiIgAiIgAiIgAiIgAiIgAiIgAiIgAiIgAiIgAiIgAiIgAiIgAiIgAiIgAiIgAiIgAiIgAiIgAiIgAiIgAiIgAiIgAiIgAiIgAiIgAiIgAiIgAiIgAiIgAiIgAiIgAiIgAiIgAiIgAiIgAiIgAiIgAiIgAiIgAiIgAiIgAiIgAiIgAiIgAiIgAiIgAiIgAiIgAiIgAiIgAiIgAiIgAiIgAiIgAiIgAiIgAiIgAiIgAiIgAiIgAiIgAiIgAiIgAiIgAiIgAiIgAiIgAiIgAiIgAiIgAiIgAiIgAiIgAiIgAiIgAiIgAiIgAiIgAiIgAiIgAiIgAiIgAiIgAiIgAiIgAiIgAiIgAiIgAiIgAiIgAiIgAiIgAiIgAiIgAiIgAiIgAiIgAiIgAiIgAiIgAiIgAiIgAiIgAiIgAiIgAiIgAiIgAiIgAiIgAiIgAiIgAiIgAiIgAiIgAiIgAiIgAiIgAiIgAiIgAiIgAiIgAiIgAiIgAiIgAiIgAiIgAiIgAiIgAiIgAiIgAiIgAiIgAiIgAiIgAiIgAiIgAiIgAiIgAiIgAiIgAiIgAiIgAiIgAiIgAiIgAiIgAiIgAiIgAiIgAiIgAiIgAiIgAiIgAiIgAiIgAiIgAiIgAiIgAiIgAiIgAiIgAiIgAiIgAiIgAiIgAiIgAiIgAiIgAiIgAiIgAiIgAiIgAiIgAiIgAiIgAiIgAiIgAiIgAiIgAiIgAiIgAiIgAiIgAiIgAiIgAiIgAiIgAiIgAiIgAiIgAiIgAiIgAiIgAiIgAiIgAiIgAiIgAiIgAiIgAiIgAiIgAiIgAiIgAiIgAiIgAiIgAiIgAiIgAiIgAiIgAiIgAiIgAiIgAiIgAiIgAiIgAiIgAiIgAiIgAiIgAiIgAiIgAiIgAiIgAiIgAiIgAiIgAiIgAiIgAiIgAiIgAiIgAiIgAiIgAiIgAiIgAiIgAiIgAiIgAiIgAiIgAiIgAiIgAiIgAiIgAiIgAiIgAiIgAiIgAiIgAiIgAiIgAiIgAiIgAiIgAiIgAiIgAiIgAiIgAiIgAiIgAiIgAiIgAiIgAiIgAiIgAiIgAiIgAiIgAiIgAiIgAiIgAiIgAiIgAiIgAiIgAiIgAiIgAiIgAiIgAiIgAiIgAiIgAiIgAiIgAiIgAiIgAiIgAiIgAiIgAiIgAiIgAiIgAiIgAiIgAiIgAiIgAiIgAiIgAiIgAiIgAiIgAiIgAiIgAiIgAiIgAiIgAiIgAiIgAiIgAiIgAiIgAiIgAiIgAiIgAiIgAiIgAiIgAiIgAiIgAiIgAiIgAiIgAiIgAiIgAiIgAiIgAiIgAiIgAiIgAiIgAiIgAiIgAiIgAiIgAiIgAiIgAiIgAiIgAiIgAiIgAiIgAiIgAiIgAiIgAiIgAiIgAiIgAiIgAiIgAiIgAiIgAiIgAiIgAiIgAiIgAiIgAiIgAiIgAiIgAiIgAiIgAiIgAiIgAiIgAiIgAiIgAiIgAiIgAiIgAiIgAiIgAiIgAiIgAiIgAiIgAiIgAiIgAiIgAiIgAiIgAiIgAiIgAiIgAiIgAiIgAiIgAiIgAiIgAiIgAiIgAiIgAiIgAiIgAiIgAiIgAiIgAiIgAiIgAiIgAiIgAiIgAiIgAiIgAiIgAiIgAiIgAiIgAiIgAiIgAiIgAiIgAiIgAiIgAiIgAiIgAiIgAiIgAiIgAiIgAiIgAiIgAiIgAiIgAiIgAiIgAiIgAiIgAiIgAiIgAiIgAiIgAiIgAiIgAiIgAiIgAiIgAiUJAGvJFOlRImACIiACIjA/AlU2C0rV65MjI2NxT3PC+zvIAi8dDod5zdmf08KAdf4iUQiZcfsung8ntm1a9cYf1r9ar/ZOPhVEAERWDgBK3vxtrY2b3BwMOH7frb9OqlsRjk/pU1L2czEYrFMNBr1TaxdW11dndqxY0fa/iZY+VQQAREQAREQAREQgbIhMKWxVDapVkJFYF8CYZUFGQOmsi9V7mGla4Km8tUEibn97v18gqampmQmkzkZY0Eq4vtHYk1ow7qXNRB4QVAJYPu7FSvCuPEgCKIYGMY43sXvk4jNYGCoYH8n1obNto/RcMvQ0FAH5/aRNzc1C+aqvfUvGMVKXJFyLddT8ltra2vV8PBwG2XqYMpobTwaPZz9Kp59mt9qLt7AfgOw4vyOMxsvn7sor9sj0Wg3x6OU44qM5z3Gfjvl1O/p6bmH/VG2KfL4u1y5k/R5hb25zevmArhYz3lhDyHs567nNLfnFPZzMa30bOb2bHSVCBQUgaV4WRQUACkjAnV1dS2JWOwNdBQuiXjeUD6JUDMmsBJsJ84tGA920Vm5vZeQTxlFFpe9c7INBrivwDvj3FgQHMixtb7nHcjJCc+MfCVrGXH+tLuv77/yFeFs8Sxbtuxoz/f/kUSa8chZ44iI4xip+vm9t6ev7yvIyje72ZJalOcbGxsPRvHjYLceQ9+xlMvD+XslmxkUEmz2zOzXPI5s34LH+yHO+2HysfEzkYh5Fxl7u9byt/1tzz67z39W3p/j5DZ+n8EY8VAqlboHL6ad/F3oId7Q0HAwrN5J+o8g/cOFrnBJ6BcENUE0ej/G6K91d3e/QJqyHmwlkbb9JIKy2cjp46JBcBi/66kvDyPPHc9+BeUoShmy8kd2zBr6rHxNlDkz/NnxKQGDn0/5znBwgp/dY2V1/F3peSny9QjbC8h5BN5buPCZsUTi/qGdO81wrzADAeq5Y3l/vgagJ/EQ7H1XcAG94ui3k/r4aVyzR3IKejzjNO2NHo4/acfwJn22v7/fjMQKsxNINCWTn6O8HARfM567ClFkjEUymeeCWOwrNJvbXQkqhXippzfxAryI/H6o4+diuGK8W4coOL/qHhz8SSnwUxpEoNwIWKNJQQTKmgAd8V3LGhqW09i4FBCDk2BYZ8EC9Wm2Mz/xO/nYdPt2zIJHBNSTdDAs3iAY4+9OZN1Cp+QHNGgeyF5VXv8FzfX1h/nR6DuB+UqSXgeLSn7Ni8MMMMbYwnSspzs23bV2zJ5dlP8GuOlGOxBW4Hm3IOv1bGYsmUjPbOInp82unfz3xP7Eb/Y8aUsgq4tcZp3ZfTq/dpFCJNLc0HAyHbxzMahsgJkZFez51JDvamBXb/tsZljYf7DSvIDAQzN5B7OdTAzDge8PxmOxnqaGhu2ce5zO6P2pROKO3Z2dL+4VvQm0Z76UwfJVA5zO5fdMtokPJKbXBJC99zmVDRPnJ/7e3+/kOOy6yX9P7E/8znR+4rj9Wihe+Z5XS8Vh78Mfs+2wxJRiSCaTh1LwTsEb7wTK42GUzVU8tDoedC3ptfJpZbPa0m4Pf76BOPd/S5CL1fPWcOHRvCcu4chwxejoUEVDQwf6PIrB/jZ+t/T19T29/8jK62zU91swop0Gm0tI+YRxbfJjmgX+FF523+TrJ/89sT/xazfub38i4mz7iz/GyAe7ee/yqiXYUZTmxZZmP/s+4yPtCO2y3dnzkcijGKBf4J4XSd/TvJsfG9q166XcubL/aaOu7PO8TYA4ms2Y7f0sOJQNk5/nxLGZfifHYdfY37GscZ4PZuz/0A4qzEwg5nmv84PgCqAnucrahIvlP3H/xLOZ+M0qQfmojcRiZviXATBLRP+JQHERkAGwuJ6XtHVFIAieobbbQaW22oEI68Q05WrT9dSiR9DA3LAsmfxqT3//NTl5dtoq2JIOpPlK3DGuIJHn0elroB3uLL3Eb0B/TyP/UWdCpokYj8YY+cgMv/bcnYVshjEDludlO8jOBBVZxCvxLE3hWcqzN4PCesblrqMTfzDJaGaryeYLy3cO8940yGxuwQqkNthzy+lwCrtddERfqEyltlc2Nm7j3AP0UjfzcWAz57h86QMMzTham9PZDDMKjglkWcMc9maALeawd73mYZA/iXSdgXHlcBK2jnK4hoy+mt9GDDHZcrkEGd/awuZ92JgFbnUH7weew+nsnM9x+0i4jd8HeJ/cj7eYDR0u64BXVtzLZMxIS5UXFPJ7wXS0ZzseJr33LXNasPI2EUiLeTT28/cAlXh3RSq1C2OwGQCf5aonMHo8ilduqG2KCd0K6LceZtbGcf3crd6sQ87sH+gKCE7IqmS99GF0Gu/PFfyGIj5bZoLgBD5kXsgIm5sQStNeQQREoFgIyABYLE9KejolQAv2fuYGsi9Z73claKJapuI0w9dlyFnJvGO9NCbvY9/lUApXSZpzvG149/UnkxsxjH2U9B9rjZRQGipBcF08kbh1zooW0YW5/JRhGNO4Z0MR6Z5vVW1YL/lpHZ33w/gkfTzxn0YGO4whfeZFtSevZZmF1ECeKY176bCc8rCca4/N6fk0fz/cmEzeQ2fzPowkj+N59MxMcYVxHH1M5bLPY2GwniIjCDJYJqYcKsI/LO/EGS56BO+pI8zol/H9U0mVef2tyKYnZ2yz/VDqhKzQmf/bq3w2oOfx9hTQ7UJ+XohFo5sxBm7h2BbS9GDXwMBWjpdf5zeTGX8vLPH7dOYnOfuZGfJbLe2UWp7vKp79eCTjeXSYBD/JkNQnmhobn8Sj8Al7P3PBNt7RPbNLK6krwsrvlslomo8vxlVSBPOUGPoQNUE6/SrqCptKJ7SQKzvrKCFvROiNoQmWIBEQgbwQkAEwLxgVSbET6Byb7PEaAABAAElEQVQYeIJ5Ta6msfEu0pI1GrhKExWnNZw9KuyzsN18mM7RJ5iM3IY5lGzoW7ZsAw3nj5HAI2ZodOc77T49tk4a8nexIqsN67aWvHFXKBUCra3VDQMDq22+MB7shbgInMPvSROdNnvYIeW1RRHdS8dDyKiHeNHoazn+DGn5FV/Yb2P48hPMl9ne2dk5sChhulkEQiLAnFTL4pnMAZl4/BTmirKhta/AQL8cb9zxclkkhqO9yqfNU3sg5fI11N1Wv1zLx4ffxHz/sVHmkbPpRMBrrx6FIieQfYhT86hNU3Ic7bbjso0JzxsgP99OMm8jD9wVy2Q6vMrKF/SOLvIHX3zqJ8mPl5Jfl+31rgojJU3IPXX58uWrurq6bK5aBREQgSIhIANgkTwoqemeAJ8Zt9KguxtJp7K5HFZp7cdswHjxBlxrfskfJWsAbKmtPSDt+xfRcD47l+wwfmxy9+8xSd72nDB1ysKg7l6Gt3r16uqBgYHq2OCg5ac/Jl9dRrnd0+umEWzPek8Zc69SfiVMasSvJV3vJzHvJy/fzFf+b9HQvqGrvr4r0t4+MedWfoUrNhFYHAHz9qvFONaM9+1FuAm9g3GCWaO85etJeXtxUpbw7mw67HXjec0YAt9G+t6GIXBrPB7/NkbPq6uqqh7v6Oiw+V/lNbuEz8mF6GwjwvLxeHVjw2AvRs7FZOxhPtLcGkmnv4dH1s2JRKKbPDAxX6oLVRSnCBgBGwCyjnxo82ln7dK5XzvnPOQErvHT6dfW19f/kHZZl3OhEiACIpAXAtZvUhABEYAAlWg3DflvsNMTpvWADsSZdJpsQuWSDOlo9FAS9mq2bPs5pETakOrv7+rvfzokeRITAgEamU3Dw8OXxaPRX1NufkI5taH0exsWwiy+TlO9x2DCPGRM8P0VGtrfWdbXd2Fzc3O9U8GKXATmRyBb5qjHzMP7f9OwvBOvvy9x8CSLZk8+nl+chXx1Nr05Y6BVbIeS5n9gu2psZOTvMALZXMKJQk6AdFsUgZef/7iXYDV54FW8o7/J0OCrx8bG3kZZaFiUBN0sArMQYBGl9VxiC87Zoh8WsvlyfNf9/7kGvc11/Xoma2xxL1ESREAE8kVABsB8kVQ8RU+Aiff7+Ir/a3orO8OyVOXknMRnPJsQvTSD57WSsI1sYTVOhhF0D0Ny2pEpLwwglEJgAZkrMPz9CsPCf5AemzOv3CYGN4/9s0j/NzKp1C/gYUZ1BRFYKgJ73ud4pq5mXrxPkzd/gGHe5tFdvlRKLZXcnJHT5uH6QJDJ3MU8cR/HI/CQpdJHcpeIQBAcSTn4ZwyBNzB9w5vQwt7bCiKQdwI0gDbQX/kDIl7KPGajpV6ZicVW5T2BilAERMAZARkAnaFVxEVIIGD+lp1UqHeie5iu7CdipTq9CHnNqjJfwQ9izqez8K7c01mc9aZFXJATs5PJuX8Zqamxuf8UipxAc2Pja+lI/RTP3H8jKSezmffbUjZ4l5KopbuJ7Sx4fAmjy2fxNlozSaFQytkkedotXwIBc581Yuj6IJ6pvwDDe9gOYzPPt3JtW1q6bQ7hAzEI/i866D+Aj83zO9kbTGUUQCUc7MNUIw/5RH6/2NjQ8GWKyQmT0qvnPwmGdhdOgGHnh9rKv8RQCHlq415tkYUnTHeKgAg4J1CunSjnYCWgaAmkqVS/j0feMUzEf3YYQ5eyRiu+GtNJOKbUFgOB42l4OZ6MsSK8DOF5z6fT6e/i0bk7PKGSlG8CDG85FI+/P8oEgc2zdIIZkcMoj/lOh6P4EpSotZStd/mZzDoMpD/s7uv7KbImhgI5EqtoRWCcQM4D9Q8pk+eSF9eE5TVfRPyXw8Q8IQ/ko+KxdI6/293dfT1/C1URPcRFqBqj3bOCsvEHPP8DlyeT3+3q7/8O8WlUwiKg6tZxAsvq688iX50Xatt6P/BpnL2Z+Qgf4JLn93OZTomACBQIARkAC+RBSI3CIYDh6DY8a7ZQudoiA+7D+BwyhzFsxIb0ldRiIMyJcwZ2m+PDMtwgp4+GyO9zqzG6f3aS4IJABcbwVzKE6o95nlYmak0I+9ZxDtGSbFILN+RgLEPDy9k/lHfWwcxh+kPeX88WrtbSrEgJWLnLGq7wZjqYd+zF/GELfJxsH7DGi2aRpsyx2oBbBZ8/4n22DnaHszjKTzAEbncsVtEXAIFcnWVDJF9FeWnjHb2Gd7R9nGwvAPWkQhETwPPvfCzJ5xbKu5d64HDedeb1elURY5XqIlA2BMp1mEbZPGAldGEEaKTdTYPt8YXdPb+7sr2qSOQQ7trU2tpqjcVSCFEWbFjO18ljaRhUkqBcMt0lzTqiNEDuivq+DUdTKEICLG6xik7yWzGG/xMN3DeShKzxL5cUM0IoTCIwUajI+zYn4icB9JHm+nobhqkgAvkkYFktjlfuqfx+iO1fKZ82HF/GP4Own5AzAlnddBYGU5sb7q/4wGGLfukD/H64lcipPXUWI0tsnudPc8CGhB9UIulTMsIn4DG36LKM59moiKbwxc8skUrihKZksiSnM5o51TojAsVJQAbA4nxu0to9gdswAl5rRqUwQk7OoXiunVIiRsB4LBa7lHRNTAwcFsjfdw4O3hrGM5OMvBKIMUTuKIZu/xmd5C+Rb44plC/beU2lo8hyrCqxxvw5HYPP0UFYhygZGBzxLsNoKxjye2EsGrUVfv+C9NeofM45F2Trvhyvasro+yOZzP/lQ8fZK1eunPyBY84R6sIiJDA+0sMs5u/kA9fHWCbaVk9VEIH5EsCJOPoqXirr53ujy+uz7zemOkCvC1zKUdwiIAL5ISADYH44KpYSI2BDNJi/7h4qNZuvZcLRxlkqc52DBrzXLh/r6Uk6ExRSxHhyVWLIuZLG7rpc2txLDoKtyCupIdTuoRWGBL4aXxBJp/+LPPP3aFQVWp4pjOTnVwvPuwjvrG/U1dUVlHdAfhOp2MIk0FRf/368ub9I5+4Slc08kPe8c3jXfTs1PHyOjIB54FlcUdgiMZcNJ5OfxQjcWFyqS9sCIBCnnXsJerQV4Lt4DQvwnRFpa7M8nv3wUQC8pIIIiMA0BGQAnAaKDomAEaBwPM3PbWxhTayfxNJ4wVgiUezDgL3I6CgfuCNHstnw31AC7G6MxGKPhiJMQvJGAM+iK4jsE3jcnpm3SMs0IvMkptXdzXZjIpEYLVMMSvbiCWQ7b7iYVGKc/weGL76PKA8pwA7n4lO6dDEcwDvv26Ojo29ABVs5WaF8CLRgUH8L5eny7FQp5ZNupXRxBDxsxqswAJ7GC7rgHAWyI5k876Bkf//Gtra20Nr+i0Oqu0WgPAnIAFiez12pngOBVCSylUr221zq3AMwp06CRuEh7J/DcMiCq9zngCx7CQ3aplQ0eg5/hDu8KQh+weTqj8xVT123ZASyxgWTjmfRu2g0/iUd4dOWTJsSEkyHMsXL6ibclr/AiuIDJZQ0JSU8AlY+g+aamlXdDQ2fYv9dbAeHJ75sJMVI6XJgf5bFIT7IvtrjZfPoswldzgP/OFOlHFVeyVZqF0pgRW3tCjyH7YNpU1idkvnomv1AFARrYpnM22l/FLsjw3ySrmtFoOgIqMFRdI9MCodFoL+/vzvl+7cjL8xl7asYBryJirQtrHTmW048Hl/FEMQ/Jt5Q5rihQTSCrNtiQbAt32lRfHknkDUu2LA3JkK/AsPfB2jInoiUPUbBvEsskwjt6zssf87745NMYdBLsm36AgURmC+BoKmu7kg/Hv8o+emdlFGbx1Xlc74U53g9YI3v+zECfrKYP/zNMbm67GUCUZ79wdEgeBvlTUbAl7lob18C2fdv2vOW0961tnX9vpcUzJEGPBTPoQ/TXDAaSREREIF9CMgAuA8SHRCBlwlUVla+SAfol3SEdr581OlegLxXMB/aQU6lOIycin8dDYCzEeF8CEDW6OF5QzSiv5qOxcJ6Rg7plXzUQWT9+srUyMjF5JGP4fFqw8StcUsRU1gogZzx73dA/M+ugYHHFxqP7hMBDPMNTKXwDsrmO8lXmqPMcZYwrxk4tyLmvUEm83caEjot8JKsH3KJujJgwbRpU62DIjBOwLJKlPfy0fQPbDXpwp4yAENlzPMuYB7iFj1AERCBwiQgA2BhPhdpVSAEOjs7R2mg2zDg56yTHUJAjLcmEo0eHYKsvIvAg2ENXyhPDYkVNqRsE/q5sSC4Juf1lPc0KcL8Emjs7LyEp/YhStPkPB5K4cpvSgomNp9y8DxWhH/q6+u7Kd9aEbc9GxuuqBAmAc8LnXl2UQLf/3PK55vIT7bSb/YFG2ayy1FWDvMy0v4RhoS+TUbAfXKBvYN6+O9Jfs3Tf9aNa7dy3S62QTabDmGYrfBcWT3Ppko5d3ld3RGmn4IITEeADzNH4dL/yunOFeCxGP2At1dEo+sKUDepJAIiAIG4KIiACOyXwBid6vsYnrOVRvpJXGkN0TDCOXTG7saodXMYwvIlw0ulTsR4+cqw+o30TjuwAt4yMDDQk680KB53BMjTx+Ot+ecYiE83qxWSwipP801Uhhusw8hUoAyl9bwx8pktBjSdQYSVNzxbmc/q0wp+K/m7gv2wPrC9QJn7Z3DekdWV//IZotFomjR1E78tKmKd6aUIxtPmFAqlzWLTCuBpYc9/SYZRw7qePNSTZR8S7YaGhmXIfQMF8q8pn0n2C7V8WtkcY7P8mEbJDDrb/nTB3OvGy+R42bXVKW0L3bg6nXLTHSPv/Uvc8+y986XpzpfjMfugyHO+g/fQt9if0/BH8kSaLHwkPFeyMqnP33bfOuIxr9Y4v5Ucs2lK6tjYXZpgxQwdT8QL8B1o8JGl0UJSC50A3sHHk/cvLHQ9c/rFaZOcSuW5gb/vKhKdpaYIlBWBUBrTZUVUiS1VArfS+DzWi0aPGu8XuUtmLv6jsR6cgJSb3UnKf8wZzzuO+f9OhlX+I98rRusUELbZEO29TunPwiMQtcVhyBefI2fYHJem4ZJ1uqbBY4YeMyzYrxkHHkfX+1Gw3YvFRgPf38pKqC9lMpnRSDz+smEvnfbx2KnwfX91PBpdQboOIWWHsa3nXlsJ2wxXlk6L8+X7+CNPoYt4rmbC7f/k14WxKpNKJF6sSqW+SZpuoqyZ4WU8+IiL7pWk6Y5NXL/371yu5RrgZZB7HM/jHKI4eO9o8v63GRt49sR7C5vNpRjdJ50cjEyn/3TH7Nrpwn6uxSBQSZqfYoXYTm4FvftABj0ZQV9EUlWBlc+JcmkcdrNtZ3uK7QnqgJc42Eu9/ESaskjZtLK2J3iZzBgHDo5Fo0dSRs2AfyzbMWxr2MygPLlsTrmXc0sSSFOCNP3p8mSyv6u//3+WRIkCFMrD2dzd1/ejxapmQ9xppxzBXKmHk8/PIl4zqlh+sPxl7+nQA2V9JYbqM80Izwdne+eYLgoiME6gra0q2tt7Mn8clHs3FwUZytYFfPR9CEeGzUWhsJQUgTIiIANgGT1sJXXhBGKJxC/SqdSpVGihTNZMJ8Aq+tMXrnH4d9Y3Nx+GB+DkYZ3OlYDRo719fTc7FyQBiyLA6nUtTGD9GXo1tuBHwQTKs/W0Uvw+wO+NGHp+h0HvPrY+UzLR0eHH29qC9vZ2M67tz8BmljCvtbU1mkqlohhuEtFM5oA0Q/kpy2dh0NnI7/FYlvLWsyM+M1T9umfZsg9G+vpQ30nIDO3atXMoEvluW1tbNNLe7kTITJHSQAmw9KTptL8JhuvpJB9Mmme6PC/Hs3nC8x7kYX+VzvhzbSF5HU5Rvq0N1Nk8Z55gbhOMgKZk8iKEfIZd844riJDL3+YddR3lcnMmCG7HAL+5qqpqhPLpJxIJv2r7dp/8YXxmKpt27iHy7rWWd4dXruTWWDAyMtKEwfAoZBzD8341Ms7EiDhh+FzS9Fv+Rq8TSNCf0Hl+mM7zFhQyI2hZB7js9bVhYTj4WNLPnfey3d8WiXy/v6mpJZLJnA70Kzl2mev3CzL2Cdl3ThCs4sSFzc3N1zL1jFZw34dS+R5o7O09lXx5qL0TiyXkytHxvFttnmcZAIvlwUnPsiEgA2DZPGoldDEEaJC9SGN8C5WadchCmYCXnksbX4Q30Qm9HZkmt6BDxejoGX40emhoSvr+43gb3h2aPAlaEAFb8XdsePh8OliXEUHDgiLJ400ThgWi3MLQsFsp07/EKPB45djYSLy+fnD79u3ZuaL2iJyH0Yt799zGTj9pf35oaOi2Ss/7T1ZVXY/sc/Ecu5zfQ+zCXCN58j1z2s+l4Ro8R76MYcNWwXYZzLgyhkHKpYz9xs2w8bHcML79Xpe3k56XTsXjlg/S7Wx5i3euEYXIum758iP8TOYKOmrHz1U9V9ftKZuedzuZ7ipWdr8jE412YPgbGli+fNDy+uDgvEehZ8i74/VnR8eE6rsjbW2dDT09v8fw90O8A1uQZVN8/AFd7PN4Vy24bE4IWMxv7r1wJs/k0y0tLW/etWvXvBO9GPklfq8ZhbNlut0S2t39PAbiXd3d3ZsZcv8znv8HORpqWTCFCPW4H54SGxm5hX0ZAI2IwjgB338d76QzF9pemCNGy4Z5tTDyPj+GSM8i3u/MUQddJgIiEBIBGQBDAi0xxU+Aysy+Gl9Hz+BS16mxip6auI3tcmTd4VpePuKng34+HZbDc43ZfEQ5Yxy5juINDM+8bsaLdKIgCKSGh8/Gg+fjlJslNf5ZnrFA2bqFnx+SVzdjQHsJA/uzdpiNGe7y2s/2Ozo6cJ6LDBGrrVD9JIvkPIDMaxhSfA76vJ4t6xE574a97z/GvV/v6e29zdQu9QAfm2cxzGR61Xgc2XjTUg+JdPrtpPF1S5lOK5s841EK4W8oHz9Glwf4+1mGwPbs0WsgzzYRjIm4+Zrx3GQ8h6HtiWBs7H48lY9EmdeS216FXrXzLpt7FF70TiUxnIVH8YfxoP7yzqGhPdbLRcesCKYQwEBs+eCp1atX7xgZGNhKHvwo75vXTrnI/R8N5P+LcG/9v+5FSUKREIjVrljR7I2OnsS7qMHRu+gZ3nc2b7FNWZL/4HlH4cF/Np631o8Zb2flX4piFAERmCcBGQDnCUyXly+BeDz+YGZs7JfUYM4NgDnKLfyeW1dX14DXgxkQCjVUUMFvwLPpGBoRVTQmXOtJOyjriXk3X+2nuFy5Fqz450egub5+A548V9CZPtJ5rphBNTMbZWUHwT383ojR+JfkG/McDXtYnZ/Lr9sxNtybHhl5gHkFX4MeF7KtZZtr6MZ4+VmvouL6ud6g60RgGgJxPMzN8HcxnUtbAGSaS9weyhn+bD2gW6k3fhKNx+/t6upaEq/unJedfeS7l/psM2Xsd+j1CuPjlsJ+Y69Dj/elKirujwwN/XK/V+rkogns2LHDbP53Mv/ip/mgOUCefAt/45iXX8+oGRRNcPyweBBYu++ZGa7R4TIigEG6EoP0xbQTbI7KvAd7/+L9/DO8oFtoJ70133WAxUe8h6P4G9h+m/cEKEIREIEFE5ABcMHodGO5EbAOAg1D8+CxxplVyE7LT85w0VoZj59d1dx8Q6HOC8PQ6BpaERdj/FsZgvHPsp0NSbwJ682T9odC4RJg+N7b0e71IeWLaUFg1uhmuynmef/T2dv7i2kvCvlgztjwy2QyeQfDzu6irF9GR/9U9Fw5iyrtnP9u18DA9yMDA6Ps514Ts9yl0yKwFwGMf2sYWv0B3tsb8t3x20vUjH8i92ny/e38fqVnYGCyp/uS5mu8VR5C6YcwBN5A3fYC+69ma50xIe5OMMuF1wyft1DPPs98gA+4E6WYJwjgefp7nv1nyJs1vJPNSG75MYyQoH25FsPPwzljZBgyJaNACaT6+pKRWOwK1DvA1TuaD6I3Mgdmknx3CXKW5RsF5ccWRzuHReCaBwYGOvMdv+ITARFYGIG8TKq7MNG6SwSKj0CQSr1Io/AqNLehfU4DFaeFSr7Q/TGzli9F52Ncg1n+x4BRR+v4Qow8jTmdZ7lj0adTNj8UjYqnFx2TInBFIMbCAqeTHy6kA9uIkJCyxpTkZMiX5jn7FYwc75pk/AurMzdFmen+6O/v76ZT//VoLPZedPwSit3LZkP97P1iw9KGKVf2O8j5R8nzX+vp6/sYf5vxz8JScB2XrP+LlgBe5S2Uy9eQp04hEbZSddj5yD7iPE6n89PdTU3v2cv4Z1zD1sdk7hPMEEh5ezesvkA5fIQLxucS3OdKdweyHf8guAJDpHkLK4REgGf/MB8Z/wlxO0ISaWICPA8PGx4ebg5RpkQVJoEoH1DX8o48H/Vq2PL9TjTP6176Fx14Mli74xYXGHh3Us14qxPR6CuYAiXpQobiFAERmD8BGQDnz0x3lDGB7uHhDha6+DYIeqkwwwg2N8c5mXi8JQxhC5HhpdMH0jI5j3utkeI6WCNoJ4s2XMPXxC7XwhT/wgjQ0Kul4frXlJHDsx3Y8DwoJhRO0WF/nKEzH66urf1HjGy9Eyf4zXdDelLUC9tl2OMLWAI/OVpRcSkfGP4J3X9OTLdQ9m9ku4kGtBkx39Pb3//JhUnQXSLwMgFW0D2MfPZejtjwRgshVWfjwiiA92IB/AuK5TdsYY/xo4X7P2Xz85TJ98DsJrQ042WogfKPA7P3Crw2bboAhZAI0M54Mur73+W5vxSSSMwlkXXUmXn3xApJf4nJEwE8UFv9WOwiosMOnQ15fUeTp8fYfl2BETBSWfkiQn6Xk5PXn9wHjHren5ezmNPyvEauyERABBZMQAbABaPTjWVKIIX3xOOk/VE6MRNeOC5RWBm1xuDJNP4LrlHIsKQ2Jk0Pa05E49xJo+UqJkYv+E6jKVuOgeFLNTT0TiftttUtAYMULeUHMf69FS+O7xfTUKqhXbt2Mvzsy7XJ5DsxXF5eXVPzFn7flOzt/VvS4qSBvgTPRyKXkEC2HvH9sygjR6CG02ks9k4mRiw7dB3G7L9m8Z0b2A/dmLa3TnP9Gy/F37J4z1/Skf0VqZi6UvhcI1ngdbmPKGcyZPutC4xCty2AAHO2DrN6+/+QX1/I5d0FxDK/W2jfVDMPoM0HqFDGBCjza8kLfwgCJ3mBD7Rpts0Y/wZtShK+BD3oEHc9si5ntNCBDmUoahEQgXkQkAFwHrB0qQgYge3bt49Rmf2ARuHW0BqFvr8pkckcW4BPYC0vEZsjZ8KTxJmKWdaetyuIxb6G91+/M0GKeFEEhoaGVjFxlXVUQx/ukSuPT/A1+6MYp81Qn15UYsK/2QwiY7xjhs1wObG1jw8HnvAECF8rSSwlAptIzFvCdoO1sonMq8ngn8fz75ZiBNozOGhexZ9AdxsOHGrA6FhBm+ME3mvnRdraqkIVXr7CUjYUmDzbnjPCOidBGTmMsZnylHJOuqAFxDzfP5oyvx4t8962nui3kK9vwPhn06REkPc8P3eyufq4zveL4AI8Gw8yeQoiIAJLS0AGwKXlL+nFScDHw+lXVGZbQ1Pf8zZmYrEjQ5M3d0FrufRoNufvEnin8b7YQoPcJmgfm7uKujJMArEgWM9zugyZ1WHKtUYtHaff06j9BN5Ft7UXwdDCMPlIlghAwMOr5Gx+TwiZhg3Jv4/y+W+UzZtDlp1PcWmMl1tg+Oek5/aJjnQ+BcwUV85gexBGgT+t7+qqnek6Hc8/ASwXW3jeO/If874x8nyraes48fraV5qOFCKB5oaG49HrTN7WTtQjf40Q893M/9eOAJpMWP18vwfHhl+zO2h/uwi8N1/rZTLmea4gAiKwxAScd9qXOH0SLwIuCAQ2/xyNws1UpJPnFnMhKxsnHQ1r8B9dSF/+l9fXHw6DM8PoBGVleN7jNFpugkOuL+QMtyJeIAEbEk4j8hU8Lxv666b1OoNuZIrtCPw6BoafcElqhst0WATKlsDyhoZXUEZODuOdvRfk5/j7My19fb/l1zxZQ3037KXLYv/M2CqxrM75X7xzHg6ZZQOGqAuZm05eNIt9ivO4n8z6NM/5xTCeNXnKNzP9PNTTpSVGgH7FmeS5C/jNe8pyL96XiPl6VubdM5UBIzdsQZBrEDjsMJ+fEIlGzWFAQQREYIkJyAC4xA9A4ouXAJXzLTTGb3NYWU6F43nHLevrK5hJwFkM5XwaEee7aKRMTfiev+4fSSSu3vOXdgqOAMNIzkCpy0LMExMMxiiLX6zIZH46cUC/IiACUwnwvr4S48JxYZVP62wis4Ofn3ZjmH/q5XlzOVzcoaeh4cd4tHwzLJaTaK1A7gXNNTWrJh3TrksC0egQH7ZcDY10qbniLjYCDO+nbX0qhrIVTlTHq5CX707z9mOKkckjaUb7+/sfQOY2V+806ysR92kMAy7E6Yyc4FakIlCoBGQALNQnI70KnkB2UvBo9JYwFM1WyEFwFLWnrQpWKOEYFDkkDGVI/1jE9+/Z3dkZyjCcMNJUkjI873gaeTZvTZjBOmY302D+XsfgoM1nk/vIHaYKkiUCBU0gxsrcaxjrdQ7lsx5NQzPAURhv8WKxfw9TZihPgikGfFulOxIxr5nsMLpQ5I4LuTJSUXFYiPLKWhTtD+srhVKvUDBDkVPWD7RwE+819fS8jnb+US5VJIM9y1QGtujH3nMkm0HQhgE/4yITWj+GeM9kZe1LXKZPcYuACMxOQAbA2RnpChGYiUDAENhHqNS2cYHzDgAdt0a+/J9OR84WV3BRP8+Uzr2PR1lJch0H19kXvVBCEFxLo8i+TioUKIFkMnkaqi3F8I6XMP59mjyZncwaHUIzbhToo5BaIjCFAEPz65m39tW8rat5j9q5UF7cSNqGoN+wmqpNMF9ygU70ZurkT5KwoRATZ+32E+i5rwlRpkSFRIDyYgVUdVhIvAtMTAzPvHPQqdWMZU4Cc5cT9+0zxO3RlroNye2u5h8k3gMzkciJM8jXYREQgZAIyAAYEmiJKU0CeAA8ieXv+6TOuQHQCCIkyTwdF6xcubJmCYnG4kFwJfI3OGqiTEmaGRnZfonH5d1TTuiPgiIQ87wLUOgoZw3X6VPbxeHrG3p67tGiH9MD0lERYM64Whp750MiGcY724jnPg5dxVx515XyE4hnMs9gBLR5R3vCSme2ToxETuWjx9qwZEpOOAQwAA5GPW/y0MxwBEvKUhOIMjR2NR9oNlG+W1woY+8NDIyPRePx+2aIP2CRvTuyi97McEE+DpPHD00uW/Zq4qrMR3yKQwREYP4EZACcPzPdIQJ7COAB0E6l+mMO7N5z0NGOGVaoOFexvT0YHLRFFpYqpDF8mrHn4Jw3iUs9xki3eVnYyr9a2MEl6UXGjWHBVhY9eJHRzPn2bGM2EtmMUfxf2l+eW2zO9+tCESgXAnj/NZNW63CZ93gYIcN7+3nqh1vw/tsehsClkrFzaKgniMX+Dfkv2TuJEI6N1fePi7MtVbrLSS7PFaelcD7yImcruai7nPgqrZEIC3Iso0P+Wp59k8uPqLycNvNOvmu/zK297ftb93vNAk/m0nZgzPdfjyNDfIHR6DYREIFFEpABcJEAdbsIVKbTO6i0fwOJgRBo1NGpOjNVUbEyBFnTiaisb2o6nRNrSTP/nIcxvlj+zKuoKOlOpHOKbgUkGJZ+FJnhkFwH2K20XOw0JFPI3Myqv09zKJxOdygpkxARyB8BhuY38QHFFudpyF+ss8ZkBpNr+O/JWa8s/gvG8JrZQjIesHcSv87rxVwn+lQMjycVP77CTwGjLg6k3bU8hA+eVpH1+rGYFhwp/GyRLw2z7wu8tOt9Rtbw/N29pzHqxSIRe1ftd8QS7bgttLvvc9iesw9Sm0ZHR514OubrwSgeEShlAjIAlvLTVdpCIRBLJgdpkP83wnY6rDAnp6WRP85dWVfnZpWwyZL22m+prV2WSKdtIZL6kCwuxvSqzs5OW0lSoQAJMGylJkinN6KaNepCCbly9lvzMApFoISIQJESiEajaygnZgAM6ZWdBTXMXFK/wPhYNh9u6FHfSMofC6kNEPGi0UraHetz2dK50TEnpyx/KDjrSPjqEApQgOHFFjoL42NyWT7LAky0ZasE2wm8p21uvCpXOjJy51abtmi2+Lv6++8nH/5utusWeX615/sX19XVyQi4SJC6XQQWQkAGwIVQ0z0iMInAjh07dvf095sH4JO5L/OTzjraDYI34QU40fh3JGTfaFOJxEoaBq/jTO2+Z/N+pI+JpO7Eu+IxYjaPEoUCJFCRSlXS6T0e1WpDy//jHG7sqau7pQCRSCURKBgCrLho00aE6Sk2Skf2UTxaHti+fftwwYBwrAjptdUzH3EsZmr0TKi/fPlyW3xJBsCpZPL6F3APIUJ3nlkva8v0f94DDNF86eVD2it1Asvr6tbjpX0B6XRm/DOGfDS4uae2dtssPO1dYu3thxkGbPlwv96Cs8S1v9NxTv5BPB5v3d9FOicCIuCGgAyAbrgq1vIjYEN/bGWt9hBa4lE6WOcyLMW+SocZonyxOzJn7KlwKTjnRdHOC8rmVwwBqcvUlHbc6crKBJ+wjyGVYRiFDSZ2xmCQxumWCMb30qar1InA4gj40egBfLQ5iljCeo92IsiMYWXlxWQrHVNvzepds7inOeluWyU0CFbjfX0ORxnZp+CAQAID6xF8iFyTa5M4EDElyiHm67QPnprveAqWEv/D8zZgADzfYSrNoPdcLJ2+NzL+UWZ/dUHW0TWaTtuoG1vAKe1IrwTl6hTiXusofkUrAiKwHwIyAO4Hjk6JwHwI8Jnseiq0LWzzuW0h19IWZWXcIDiKiYNDG3bJPG+Hk7ZzwvLyguLTXc3N1wLIVQNkIex1z94ExsbqOWRDV8Ja0c0nb9wQi0ZtqJSCCIjAfghQT6wIyXhB9UDJ9Lw+5qa7p6qqquze24HvP4lRzsnk+Xs/4mwvHa80fs07zXmjY2/55fB3Y2NjbZDJvJk8vTKEds8Ich6gDJmxRqGMCPC+PBnvvCMcJnmAj/fX+onExAfT3OtjZomZWOxFPh7dwhWujNFkda+CF9cm+jGHzayJzoiACLggIAOgC6qKsywJsBjB/XQA7gsx8adjcTkzNHmZjC30YMMUnAca28/SGL498tRTowibtbHiXCEJmJYA8/810FC0r7hhPqMM89jcPlxR8cK0SumgCIhAlkBNc/MqvP8ODBVHEHT2LF/+G4b/lt9CBrHYc/AOcxjwMurkDTxfGQAdZHJGWTTTFnk9Rt2VDqKfEiUPsI/tRjwAB6ec0B8lTQAj83k0nk5w1YDKvRgGMwz/BWT/XGHSn+lh/tgbub5nrvfM97qsUZ3RTHHPsw/ICiIgAiESkAEwRNgSVfoEYkHwII3Fe12nNPc1+lwq9fAMgJ53LEa5Q12nzbxIaAzdk/b937qWpfgXR4B5r2rxMFpNLGF2QG2epHuGdu3SPEmLe3y6u8QJVKdSR1A+nb+zJzDm6qUXy/XDDe+ldl6ED0/wcP2LrBgjD9aw2EpY0y+4TlLBxN/c3Lw6Ho1eiULr2eIuFcu1eYYwHt+A3LIaOu+Sa1HE7fsbeW+eknt35l/l8RFJXbTVrmWagjkbAE2RdDq9m/7MLew6MwKS94+hX3GCyVMQAREIj4AMgOGxlqQyIDAWidyB8eoqa9C5DshgHLB3NENzbRJdp2UZT69j/CA43HWaLP5sQ8jzftvf339PGPIkY+EEvLGxWrLhAcTgPsOPq2nDo7bhmSHvv4U/Nt1ZJgQw/h1AwWxx5V0yDcZOjrVPc7wsDtHB3o5BbnMY9X8WqDUBmHsV65R5AYY1BUNZPEs/lbLpTj5IYp0bV3PGn6dqa2vva29vLz/P2bLIUfskMhpZubKWob8n8UVzxT5n83XA93dSD9w0X+Ofia+urh4NotHfsNvt+J12lPUx8pVkxSMCIjA7AadGg9nF6woRKC0CAwMDnXQA7qJB103K2HUcguBgL53ehBSnBhjScwEyjsc65zhBkYCEmAflFteCFP/iCZDBG8kR5iHhNP9N0tQ6R08nUil1kiZB0a4ITEeAstnM1hTCe3v8BeB5L/Ii2DadLuVyjI7yTurLUOY/NMMRzzfOHGKHMJSwulwYu07nsmTySuq2D/MslyHLad1mhhWe4Va8/64pp1WzXT/DQo+fRlNi2fDwa3k3m/HeScjmLc97nPfEVQiYdz7u6OgYwQvwGnR0Nt+yvcOyHoC+f4UTCIpUBERgWgIyAE6LRQdFYOEEqNCe4+7r2ZwaKbIVZySylobja1pbWysWrvF+77RGQzwaBGezs56q2nXwkPFThis86VqQ4l88AYag19E4tDnG5t24XKD0Ye57ZiQaDaWDvUAddZsIFAQBvDdaUGR5KMqY13sQlL0BMJrJ2KT5z7OF8o6CepwV0VtTqZQ8ABeZ0WtbWg7AkPonGCT+Bq8sd8My99ITQ83dqUTiB3sd1p8lTKCjvr6O5NkQ89ZcW95JamlPP9kzMPBbIl9I8z0zODi4i/LwEO92a3s5CXgoriLiTUxl0MRvWG1JJ2lRpCJQLARkACyWJyU9i4ZARUVFB0a5H1Lbup7MGTFeLV+qz929e/daAMUcQKrANf900rLBviaGELowNt7U1dWlIZ4hwF6siKjvm+G5YbHxzOX+XO4bikSjj1DGRudyj64RgXImQMfShpaFUj5znLvGfH97OTP3YzFbabOdLazVXGPUzSsrKysT5cx9MWlnGpVkUzJ5Op7l78EY8a/UNce4NMpM1pW21Q5k3qI5bSdTKfl9K7OHYFizBdScDTEnD/dgyH4cGQsx/r38EILgDv542FkfYLxvcSCLgVzAHJhmGFUQARFwTEAGQMeAFX35Eejs7Bxo7O29jsJlnoAuA+3GwD6XxVk57uK6urq8e3rYsCIvk3kDMlpCaBD3kqBf4UHxrEtoijuPBDzPGmvheACONxKHmf/vyZqaGvOyURABEdgPAXp9Tc46bdPIRR6Lc1cMTXOqbA7xfhriI9YTJDisd1QU75wkcuNlA3nxCaVJE6lsaWmp4wPnQbB7J8aYb9Fm+3uONy3OWjJP5YLgO1iKb5rnXbq8iAlgcF7FCrsXk4R6l8mgPX0324OLleHjoYq3gRkSnYRc36KB99jllMVGJ0IUqQiIwBQCMgBOwaE/RCB/BGhh/ozYnqVhmb9Ip4+plq98r8cVq3n60ws/WsGwIir+82kQ5z3uyVrlOqk9fjT6s0hNjWvPycmitb8IAjQMbREQG3rmPJNn1fS8DMPDh5grCcdXBREQgf0RoFCGWk6Q91K5e2/zPsww9Nq8AMOyI1VQRx+JQcGZJ9H+8lgxnmtoaGhknr/LMqOj/47R4S6MJJ/nYa0P4SPnZFzmIfocz+7qvr6+Zyaf0H5pE2De7tV8JLiUVLqauoduB3NLspge84P+frE0yZ/beLcv2pA4ix5J9N3EnIMHzHKdTouACOSBgL4Y5gGiohCBvQm08/W/KRb7ViSTuYCK82DHPYEqGrFnBonEIejx6N66LPjv1tbq1NDQScwvtJY4XAwv3qOaNbxh9HQvnpMcHNlzQjuFToDsHWqgrxbEI21tXqS9PVTBEiYCRUTAo4xURnp7a8LUmbLpbJ6oMNOxSFn2TnRaX+6jX2BrZ5V8aLE5+iozGZsnbNbAnIjpiljsaCwhK7k4GmQyB2BgaOZvW23U2jQJ2hw1tJ0mykhYDFHDs3rMZzqLv0XoA7MmRheUFAG+yqwnQSc5TBTZK0iT0R7t6e7uz4ccRgI9xQd6MwIel4/4ZohjGR8yzq5dseK5oZ07O2a4RodFQATyQEAGwDxAVBQiMA2BTHd39/PMK/MAjcwzOO96gm5rUJ7C0IIHTe40+sz7UHNf35oMC4zQYA5jdcFnaAjfiJIy/s37SZXRDUEwUF1Tc19Pe7vmACyjx66kzptANNndvYZ3dy3bvG9e6A1m11jovaVyHx4sQ4lE4ikMS6EsAlIq3PaXDto2dvq1FWNjZnyYU78lFsXHiqHRbFV2M6XAfit4Lg3sL1VGnTD+9bDzzXQq9WsWWegz/RTKgwDT6hzPR/WLsh564/naRcLt3fO7mO/nbS5tHAy24tDwO+J1aQCMUT6vTIyNmVFcBkAXOUNxikCOwJwqUtESARFYGAEMaL9lnP3pVPan5xqxC4toDnfRqL2M+TPu49LFGgCtxxikY7FVWBVtmILT90SuIfRYNB63IdMKIjAzgSBI7dixw4bXKYiACMxMwGOofDUdtniYBsCZ1SmfM7ZAEfXwDirRsBYBKQe4ZgE8gLbCnIcHZuc3mmRgweC2h9MSWqkZlxnsRpOfedHo57MrrO7RSjvlQACz9EnkxU2O+wM+bfefMZ/2c/liimPBYwydv4ly9d58xTldPJSNUygjh3Hu5unO65gIiEB+CGTryPxEpVhEQASmIWCTO982zfG8H6LiPIYvi8fnIWJrH5vR7zga3K38On1P0BCyr+L3MXfUY3nQXVGUMoFo9OVeXCmnU2kTgcURsHc4K0QtlaPT4pQv5rsxvDI1qjeW5V/MCSks3bPvfTOazGsrrDRktUH/q4J0+gsYVLYXoHpSyS2BOI3d43PtameSePn3MVz35l1DQy/lSYiVvyCWyTyKYfFJ9p0tcAQbmw7oJIyNh+RJd0UjAiIwDQGnHftp5OmQCJQTAY/Jc22ox100+vIyD8ds8Kg8j2iur98w23WznWdlvDOo8V8x23V5On9b4Pt35ikuRSMCIiACIiACS0nAOsxZo9VSKiHZBUVglAxxEwaUL/UMDW1R/iioZxOKMrSrX4mgEx0LG6Zj/zBeyIsdCTRZTfugxAD6igH+v5rN2SgMM/BTTjbFg+ASE6kgAiLghoAMgG64KlYRMALZStNLpZ6iQvvxxN+u0JgwGpfHYXC8cNEyMplj+dR+glXGLoP1kND35rHKys0u5ShuERABERABEXBNgDqTajhQ29o16OKKv5uW1O0p339v98DAxMdOt42r4uJTDtra8O9X2/BWV+1q854j7GIk0LVMRZB3Lz28m3tYVfhG0jDk8oGRjkNwoz7TpQzFLQLlTkCNlHLPAUq/cwJ87X2ECt+5AZBK2Yxph9GqPGWxiSKek6iE1yw2nlnu99G1Bza3D+3ala+hCrOI1GkREAEREAERcEOA1Wdt+owkW7Y37kaKYi0KAuMGmWexCH8x4/tXDAwMbC0KvaVkvgnEWKCvlTb6RtrVy/Md+eT4aFN3pD3v552dnXlfkX3Xrl2DDT09NzK1RBjt9Q14TF5M2hKT06d9ERCB/BCQATA/HBWLCOyPgM9s4E9RMdsCHU5XL6VxEeXL2VHJZPJUZFXsT6kZznnMvXEy51wb/+geeaNsv4ozYfoMuuiwCEwlwKqOrKJ3AgcXkrenxqW/RKB0CTDNWPpFkudsqNYM6KjmyjvgJVOHwedIKKjjWsZZgbaYjci4JxKN/k13f/+nMP51g6Psy0c5ZgmMf7UMyd1I2pP2od5VMM9Cvjq09/f3m6HZySrk7SxuRL6+nc3ZKr1ZD0lb8Mf3zyMdslO4yjCKt6wJqGCV9eNX4sMiQIXWjbHrF1T9fa7dAoj/gJjnvaK5ublyAekLuP8KtqOzlfACIpjLLVkG2daK96N4TU0+5yqZi3hdU6wEMHATqlE/m4WKNRnSWwQcE/AxOHRS3zgdqrV3GvAcL3ujFx39KMYf4xDWO8pWemHKLKu6FZaQAI/BvmuOt278IPh8JBb7f2pra3/GYRuOmT1v1yiUFwHyRD0Gs3eQ6hbHmaAdGfc6pssbLnoL7/oXcnndjbggWE3EF2M8XeFGgGIVgfImIANgeT9/pT4kAnTG+migf4emYQctRGdSs0a7IGjhK+PFkd276+crCJf7Bu45h+2A+d47n+tpBI3BYTPeEvd1dHSE2kmdj566dv8EPN+cW0MMZPBMJmMrbCqIgAjMTsBxf3OqAnRyV+TqkKknyusvj0WtwvRQTtOQf5b34kh5YS6s1GIMYc3tYIRnfw0tvHdHYzFb6ffO7du321BMd42+wsIgbfYlEMUb2zyCbVSOfbx0EnLGuAcwzN3gRMDLkfq9dXXX8+e2lw8521tDG/MVjGhqciZBEYtAmRKQAbBMH7ySHTqBNCsCP0Mr8B5sGINOpXteJca1Y/x4/NhIW1vVXGW1trZWo9uJ6Lg615iY663zui4X94vIuaqus9OGxSgUKYEgGh0gz/SifiiGBvJMZdzzDlq5cqXNs6UgAiKwHwIYJMIdAux5dbwPGvejUsmfiqXT1dS/NoVGWO+oFB/8no/H406nFyn5B7eABE5qJ9kH3tuI4l/oVH2iu6/vvzH+bZ8UZSj14yR52i0QAkyps5Y8cSHq1LhWifz4UG9vr+sF9YIIRm3qlofI87YqsMtQiYwrE4nESpdCFLcIlCMBGQDL8akrzUtGgMrsJzTWH5zUcHSlSzVu+q9iwt4D5ypgeHi4iUr9jVxvnbi53rbQ655J+/7P2x3NU7JQpXTf/AiQT8yYbR0d5xnG8iRft+sQdCx5dSHD2+eXOF0tAsVOwPM6KDd5nwx+RixBUEXdNm/P8xnjK8IT6VjMOvqHsIVlAPSZZ66PqRGczPlVhI8gLJUHKVvPIOw2fr9G3fQXzPX39139/feEpYDkFD6BKKv+0q6+BE3dtpF8/yW8T58MiwiJuc8cGhz3ZSqRs9FPpex9qiACIpBHAjIA5hGmohKB2Qj09PdfQ2P9gdmuy8P5KI2OjVTO5okwp8AwBRv2+xY2GwbsLFiHFN02M1HxUwhRp8UZ6VAitkZtaMOAyTcxJoauJw+p7grl8UpIkRPYhf6heVnTIVyLvGOKnNmi1GcyPjP8mRdkKO8oXsBpPxJ5fmxsTB6Ai3py87yZNgzGnU94sdilvf39H8Lz6sF5xqDLy4EAi/LR5rchwLwenYZbeOE84VTCpMhHKyoe4L3j2tuQLoxXgUf1mcwFOOe+zCQ1tSsCIjADgVAaKDPI1mERKEsCGDEexIDxnOPEM1LSOw4Zx7LFZpO1evXqGq4/iuuWszlrqCDDZsm+B2+FW2bTSecLnwDPs5v8/Dia0hZ0H+js1uJpcVRlZWWYc2y5T5gkiIADAsyf1Em0oRgA7UsA3u3JaCbT7CApxROlTfjPNAUoPGu9u9hEWUWNrHTU91+orq6WAXCxQOd+f5p66Mm05z3MUN/+ud+mK8uJAMN/TyK9J4eR5ozn/aayru6RMGSZjN2dnTswINiURvZn9j/byXew+GljbgpSqePzHbfiE4FyJiADYDk/faV9SQjgLnU/rfbbnVnZpqbqBCZlN8PefsPY0NDhdBZfud+L8nSSlsL9XiJxU56iUzRLSMA6n3zdDnPy+VqSezoT3oc1vG4J6Uq0CCyOAN5JPdQ1vZTTxUU0l7vHh+ivpH5rm8vlpXiNLYBCR/xoDKHhJM+eaxCkgljsMS2mFQ7ynJQY5N/G9v1lDQ2f45g+SIWKvziE0cG+iDfBxpyRzJXS9vG1J+b7j+7YsSPUOV8ZcvwCxrk7kO/2A3A0ejp1mS2ioiACIpAnAjIA5gmkohGBuRJgMZD7GMZ4HR2zud6yoOtyX87OxbB32mwRUHuv45pNs1232PM0GHagz727du2yueMUipwAw852kXdsSLvbBuBUTraSnnm2ah7AqVz0lwhMJRCLPUEts23qQXd/YWhsZDvcnYTCjpn5/2wajXUhmf+w/SHJ84YqKiq6CptMyWlnjbcK/juU37djBLwe4+9ZJZdKJWihBDwWKquldJ4U9bwVC41kjvft5kVwTUUQ2JQ64YZ4/CE8YX+BUOftP1ge29jYKC/AcJ+wpJUwAXlRlPDDVdIKl0DM8x7LBMH9aGjzJSVcaUpn7BAqzlnnZOKaQ71odJXjL5W2iMN1yNniKr2KN1wCQ6tW9S7r6tpGAzRMwR5fnU+mw7Wlp6fnuTAFS5YIFBOBrq6urXSa2sP80subYEV9ff2GgYGBp2FVVnO8RlMpm6cqTAPoGO/edrz/UsWUL0tMVxvyvpGPup+jrP0rcwH+tMTSp+TMn0AivXv3BbR17cO662DG6ORoLPbuZclkD+/fUPr1CPVph1Vi+dvAvungLOT6Jccj5GKE2AdnBREQgUUSCOVFsUgddbsIlByBWCbzfCYa/Tpf7z9L4pwZAA0clfRRzcxF0tnXZwbHfSw12a9qQRDGl7VRhF/T29MT2kTFln4FhwSeemo0aGzcTsPMOqBhDYOK0uk9B0/S65ApA6DDx6uoi55Amvf/S669zSdT4l3QlIhGN7a0tOwoN09vWB/JR7fTJ/Nwuu95u3gX2uIT+9TrTuUuTeS2mrUNcZzJ2GAMrE9TyzNgLZZwkSDzDGT+DUaYahZ7+zF6aE5GIJRr8D3vzaS9LYR8WMWHdRvlcyrehgsaV2Tue7N9JJp8je1bIWRETxojp8c7yPl8p4g7iO3sSGtrdWT7dnsXKIiACCyCgAyAi4CnW0VgoQQ6Bgd3MkHw1VS6HySOQxYaz2z3WeODTskRNEbewrVmANwnMIH4+TQgTnLZUKGxMEJz/AGaJ/ehwBhbtv2wjzI6UHQEWNBlFw3BZ2kEHobyYTQEo+SlM8hLByPvrqIDJoVFIEQCvNs78E7agRFwFWJnMp7kRaNcHdJCZBeNjo6aEaR8AgtpRYaGjqUTXueHYHyyrj68O5B3D5CtT16yIZtWa78EwbUksmaGhJrFL0F7ZwU7h7OtJbNbXpzNtjFDdPM7bHmfZ2ELPvw9H1WHWajqes3LOD+GJXK1hwd0G+/bc0lPQwhpsvkos8OMrQAsJMylMT75mj37Zm4M4V1nacq97zYs6+/fWL169a1hz3e4EK66RwQKmYAMgIX8dKRbSRNg3p5dqbGxm6lCrZFgq+86CXQAreN3WltbW2V7e/s+CzYE0eiJVOLOjJC5RPVRgf8gnckM5P5eaFsld7t+CoUA8wCOxWOx35GPbf6rphD0Iit5Ng/gUc3NzfWdnZ0TeSoE0RIhAsVFgMnhX8Q6ZEai14akeT3yzsYgYkMju0OSueRilg0Pn0cvdX2oFZvnvUj9fS+JD1Vs2LDN4OD7/q97+/s/PRfZdXV1LfFo9L08jyu5PrQh2TkD+CF4p/9jenh4O7Ltgyfr4iiUCwHaJKvS6fRbaFMnyyXNYaQzV7aaeRe8PT0+msm8gRVEQAQWSCCUL2ML1E23iUBJE2B4VAr3+Z+TyBfs65arkIu7tbu72+YCnLxwQhwvRJujpM21fHonvcx5+HPmhep1lU7FuzQEMGSbd6d1Qgfc5eKpacs2Bn3/Aj+VCmXl6qnS9ZcIFA8BPxYzI5HNmxSakYj6pD4ej7+xqamptXhILU5TPM/OoNO/PtdRXVxkc7l73POmnXr9eS4vaQ9Ay7jkqTlPMTE4OLgLY+E/RoPgn7k17DnDYih7KCsz/+ny5cttkRCFMiKQyWSayXcbSfKc82sZ4VlsUhsYzXTeaDxeu9iIdL8IlDsBGQDLPQco/UtJYJRFDH6J0cTpKo25DklDLAgua6mtXTaR4NbW1gTjNc+3ITMTx1z8Ir+LeG9m9WP7Iq6v4S4gL2GcdEBH6Jz9HhUG6PiEpgmerWewnReaQAkSgSIkkFso51ZUD6+9FwQJXLYu9dLpA4sQ2XxV9liQqAEj1Sbeg6GlF3nPM/XC1vkqW07Xd/X3f4s64v8jzf0hp7uCZ/NuvBYvQK7TOZ5DTpfEzUIA78/D7F3AZVWzXKrTCyBAC9NWmr+0dsWKlQu4XbeIgAjkCITXIBRyERCB6Qn4/m8xkj0z/cm8Ha2JRKNnjcXje+bP2b17d4KGygVsK115LVBRm9vJNmRfQ0rKakXIvD25wo9ojJUPbWXnUIf7Wd7C4+bkpoaGC5Gtuqzw84k0XCICvN+fwzj/O8TvMwWEI5VsLtDTWejqtEhbW0l3hBnyV4eh8528i9ocTsxXjQAAQABJREFUsdwn2uy7z/MepF61BUAU9k/gJk7/x/4vyf9Z+xSGEfCPmA/wkvzHrhgLkQAen0fQ3t1oz17BGYE4TguvqxwZWetMgiIWgTIgoE5TGTxkJbGwCdBJ+jmdh9uzjXp3qtqcaSewYIPNB5gN8dFRO2aTVrueqHgLXijXIYe2kUKJEsjQKNuMoaEnrPTljNbHkqneiUwNtwkLvOQUHQE8kfooJ9ez9YWkPNWZZwtQvaGpu3tjSDKXRszo6GqMq+9C+AGuPqRNlzCe5f01NTXmea2wHwJ8nHqW8dE/JC/aNBW2AFkogedjK+6cwnZZDfPChSJUQpaUAFOSnIACF9uzV3BGwOwWG/1odIMzCYpYBMqAgAyAZfCQlcTCJsDQWBsC/Hs6D67bDfWIOJkv0o3IizGPxnH8uh7+285L5m7kpNgUSpgA81neRvKecGzI3pugzQVzFl6A57SVuKfR3gnX3yIwVwLMvTrAu/8ajBFDYZXPXHV2HsaXi+aqZ7Fdh/ff6rTnvZlhphMroLuuww0RaINuXCwf0EqYc8sxtbW1j5P3/52rX5zbHfm5KlfWLqxKp/8XMaq/lR+shRnL+vWVFP5TeOZthalgyWgFYkIQnNWSTK4vmVQpISIQMgFVSCEDlzgRmI4Ak7Q/wvHbpzuXz2NWaVJ1rqmvr19G4X8FcTt7ByDHvoDfGInF7sxnGhRXYRIYTadvpwH8WOjaeZ6tPPwBPD2sE64gAiKwL4FRPjTdz+Enc4a5fa9wcCRbB3jeRhabeiPRO6trHKg+pyjx+DmbNJpxZ8LwR5XnPPgI+VEkkwn/Xes8aW4EmKG0q67ux8T+O7w1Q1s91Moaz2oVv3+4PJm00RaaD9DNI17yWJt27TqXd4F5ACo4JpCrwzbx8cX6MAoiIAILIFByDbIFMNAtIrDkBFKJxON4SvwqBEVOYJLiA2KxWB0NU5cNUuroIMKKXXewSIQZNxVKnICtvIhvyoM893AXegmCajp1F7PowGvx9NDE0CWez5S8BRPweff/lLsfNsNcGCHXUTseb7WP4q2xDpnslkZg4Y9j8fy7FJYHkKJwgI6jG6VevbaroeHZ0iAZUiowAnqx2Depo34fVv63lOXKQAt55SPN9fWHhJRaiQmbQBCcywf2Q3PPO2zp5SjPvP+OLceEK80ikA8CMgDmg6LiEIFFEhjatesl5uezefJ6FxnVfm+n4WuV5sFstmrhSfzG93vDwk/agh+3xHxfxr+FMyy6O+O+/yA9nuvDVtwa3eTtD1XG468LW7bkiUCxEPBjsRvQNXTPMeqadXzg+hBGs9BWyXX4TMzYF8UD78PsvDXkDr/Vq0/TVrgvsn37sMM0lmTUfIy8nud1E1tYi+FMcKyjDLwxHYu9uq6urmXioH5LgoDX0tJSh1H+VSzKs7okUlQEicga8T3vOOqUs1G3ZD4sFQF6qVgiBGQALJEHqWQUPwEqtF46FFeREqcTtdNQOQMZNiSrgc3VOyDDF+9feRUVzyNDoUwIdA4O3okl7hfZxln4aba5Ld/NUKu3hS9aEkWg8AkwTL6d9/IdGEA6Q9a2kXrnT/DS/QPmzSv2BRGCpmTy83C8KEzjX+6dugND6hd5dv0hP7+SEcdzu4Y66idLUUfhIfYX8Xj8zJKBqYREbBXwdDr9etruNhWJQkgEsu9eW3nd9y9GpH2UURABEZgHAVed/3mooEtFQASMQLK7e1fg+19ld8BV49QqTRqhp7Jd6Jh6RyyTubqzszPUSbcdp0nRz05glK/gj5DPzPAb7lBgBJpXKx3kd7POzfmTVC30xuEU/ZqamlqZo3MDaWjLLdgzKSnaFYHFEeC9bB66S2EAqcTw8r/pLL9lcSlYkruzZZSymcT4978xIr2RA6FON5CtuyORrVVVVd/Gk21gSSiUgFDmwryPfPgD2lo7SE6odRR5Zi0yX1+/fPnhJYBSSYDAyMhIFd7Ab2K3JWuUEpUwCZhH+avwwKwKU6hkiUApEJABsBSeotJQEgTaaUvUNjTYRO0P05Bw1zANAhsGfLRDaF00dG/w43EZ/xxCLtSomV9yGx3k/0a/0SXR0fNOJf99ioUHzMhtQ0OwCxb0F+IgmUw2LW9s/GOMC18PMpn/jkejX2Yo9Vcx1H+9MZn8eAl4TS1JVpDQfQl0DQw8Tvm8jjqmh7PYy8MLlMtq84Ja1tDwUYZumQf6ROBUQYegqbp6TZBK/TVavpetNUxtcx8EH+NF9uOOjo4hZNs7TWGBBKij7mPV+q9x+wTHid8Fxji320wI+f91iUzmD+d2h64qdAIMx2/DoGyjauoLXddS08/ei5SpA/modL4Nwy619Ck9IuCSgAyALukqbhGYJ4HtzOtD5+wGKrVnXHkB0lixr2W181RtTpfndN5Jb+57DT09S2MAmpOmusgVAbw+OzKZzPeJf6srGfuJ1/pYFRjPzozibdTU2PhHGAKXccyOF2RAvxNjnvdRPwj+jrL/dsrQRWzno/8mfl/P9peZdPpvMZi4NNoXJBsp5YzAA9QD3yV2dx+aplE968XmeWupHz7I/ifwcD0+d1nBlk/Tz8pekEh8BO/m91BGbdGPpQi3Iv97SyG41GRSR71kLDHG3UvaUmyhGaB5ny8j71/Kx56LkGsfqBSKlAAewWuYRPsS1F9epEkoarWz9Yn1ZYLgT8fGxlYUdWKkvAiETEAGwJCBS5wIzEKANmlwFY3Eolw8I1chP97V13dbOx6Ns6RVp0uTgD8wMLCNvPATkvc8eTnMVO4Rxs7Z6PC3VHLvxci2Nkwl5iLLPKAIm9DvU1z/ETiZZy5t2WDKxqEkB97H9ld0OI6yaxREYDEEmAtwOwbnb9iHpsXEs5B7LX9jfFxBRfcBto9SBi4v1IUR0GtF1lCTyXwKnd9FGV2Seb5g9jiumr/p6elxOj/wQp5nkd7jM4z6SfKfeVpvC7OOyub/SOQISsHHMICH6klapM+qcNXOZI5AuTCmNCC7jFuprYFTLJvpHEIwA+CrsKRn208hyJMIESgJAny8UBABESggAgFz1DxDp2MzngaXolfRGOmtEU3j1oYp/Rq90wXEVKqETyCIV1R8Fc+1UxG9JnzxWUMaRchbz1xPH+f3RBYH+RyuHlv7+/tt6GO2Qb0UeiGzAqPHGs/3N+Hl9w8UmlWmR65jOLNKQfA2hgevXF5X94GuwcFtXDg288U6IwL7JZCmnnkID9nvke/ewZWhltGJvE65fEs0CDZFY7GvUCb+O5FI4JzVueTz22GVqR5atuxQm2CeF8WH4dNsNNHb3hvW/w4z2IJa/4Hwm8IUWgayMgyH/25TQ8N5PFYzHoTZH6rAoGx14xswMn9ncHBwZxnwLrUkeixsdCR1+OGUTddps3dON++Bl5AV9vtnYWkLAp88bt7S9tHEtc42v+w5fFR9nI8kzy1MYd0lAuVFIMwKr7zIKrUisDgCd1Fj3kSz4oLFRRP63ZvTicTNoUuVwEIj4NOR34GB4RY6VzbMbyk8HcyblqanV0VZupzG+mtorP8zhoZvY/wwA5oZ18OcAy22cuXKqvTo6AXo9V70umgBHYdNfiz2XdLwTtJg84U673kgQ6E0CaSi8fjnM6nUkSQvVAPgBM5s+WTyfP42T903p1Kpf62trf3Z0NCQGUSs0xhm+bT3QZwymhgaGXkrBvr3UUaPzunIqWxw3ZGdkDPxO4wON7Jwy68xVtmHC4X8EbB3ZyqIRn/0/7d3HvBxVPe+39kiyVaXZRuEAQOmhg6hQyDUEEICeaRACskNIeWmvrz77k1CbpKX5Ca5l/RegZBeIKETsCmhd3BiYww2oAhk9ZVkS9rdmff7r1e2bGmL5J2t3/PxWLszZ075njJ7fvM/56isdxPnU7cr6/zFNHNIET2gPl8TDK7S5Ztn9sLZUiWgZ/ARKr+jVW98T2Lq5fqPBgYH/8P3yPIYgdYv/k+l/aMKsiWPwc4clOvams/36UAAnJkQZyGwDQH7wYODAARKjEB/NHqHfp3eag/+cnH68ax3k85Dw729T5dLmkmnvwTGY7Gr9QPZprT7G1FuodfoB/tleuhdr8m3/9XY3r53brflxVdY071eNzE29ntNvfyp2vbpcxxs2ku7VygPv2htajo7LykjkGolYCL9sNZC+4Xa6F0l0Eb3VL3+Wk04fL/a51fUXg4qZMG0NTTsJ8v7y9RG71G8/6M2esAc22g+k70h6LpfkPj3XD4DJaytBGQxdJO+2aY4hRSbLQE2/mrQb6Z3yDr9lXYCVz4EZLl8jFJ7bEH6CM97Ri8LV5YPnc0pVd02Qe7BQjxbFJeJsayTXG6VhPQWjQAWgEVDT8QQyEhgXGLFU/px0aWHmpnR24/F0naOc0dIaS7tRJK6QhKQJU93bVPTjYrzGNXjYg9yTIW0Rdf30XFpOB4/V9O/Vsky8E7t5Ldca0Lldd1N25VO1n4n6cfvKRITjtQP+D0Vry1UbZvw7IiL6GZbe+gD7Q0NI70jI3fuSGDcW90EJIBcJzF5Vw2gDhGJqTvzFhqMPePm61iq4z16/p0rIfB5/bVB5P0xz3tIa4v26XNenK3B6bruUQr/GLXRY9RGrU016TBrlaJuzmADZj3716tMvhauq1sZiEaZ7p+XUp85kIRmW8g6/NeCXvDdefVQOk/xmxXgQzOnjrOlSEDldoR+0+xeCAFQ/cADUqdXlyKHTGnS76oHtIzCE/JzRiZ/+biW7DMDgYObmpr21jIvxdiALh/ZIAwIFIwAAmDBUBMRBGZHQAOT9W4weJN+aLxDd5a0AGgPX7kbJlz38dnlEt+VTiBYU3NPfGLi26ohP1Re55VAfq0ttWqw16pB/95qZ0doncA3S2zoVD1+RtPBntH5DWp7L8cikZdrE4mwxMHO7dPd2Ni4oKampk4DABnpuO0Sv1tl3beTBgV7KMxl8VhsoT4vUVg2vdKPzQNOSwSDAVktzZPF8OQUMmuIihIHgdwJhGpqro3H44tVbz+T+12++rSdu+3YV8fBGgC/Xjtl97a2tLykCr5Oba5Lgk2PhJN+tdk+DTTt77R6vykYTAQTidZgPN4hP7VaQ3OZ/O0kj4s0MN1VHcEiWUDupL5gsc7LqGdaEL5mMl3gSse4rt2kNRF/3t3dPZrOH+fzQ0DLKTymKZ1Xqj6cqBB30VE4AXjzEhXny+L1eW3Oc1V+ckQoPhII6YXJmXq2F8TaTP2SvQy4Z2jhwpWBofLaA8g2LdIyMKuVfrOutd9d/rnNffex4WDwXEVyuX8RETIEKoMAAmBllCO5qEACmvazTj9Kf6MBzwXKnln9lKpL6AH/sgZS9+fTQqNUM0u6ZkfAphlqofNbIqHQN3XnB/WDtlH1xUbaJlYV21m7WqqELNUPevuhPaLvL2pdqAGd66+NxfqU0JCJgzo/ouv2I9aR36SlkJtI1Np3+W2WJWGTPrUpkA61hTadS17ZnFX7klfnKa4ahXiGwm9c0NhYq/7CprKZpZBFXRpKhhKCK30Ctl6nnjUmPuyqynOhjlpVoJJooxL/djLRLtmelEDVd9skpEdi+5DOD+nEkNqhnZtW59U4XflrlL92fYror61F2q6w5umzPibD2+Zv8kuR/5MQ+xu9gPhhT0+P9Uc4fwlYRVC18h5xgsGr9PfDqhtN+utvrKnQU/EcqjJ/l3Z5N0v0Ll0ywQRXmgT0qHfOV+3YS7XG7xTab+se/Z5YGVi71l4KlJ1T/71GebhLjexVSvzmTteHXKRKYk+9zDURHwHQB8YEWVkEEAArqzzJTeUQsAfluKwWHgokEk9psH+kvpvYUIpuVOm7Vj+Kni/FxJGm4hOwXQ5l4fAVDXL20oD8XFXukqrLUwZ7Dfqxvf/UX6nJzymxYFI0SEtUAwL7ITolvLRed/CCJcuiCqvtnagRSYusEubVzJt3HRZDO0i2Sm+XFdRzaqOfU/bb1UbPUAUrmTa6XXtqVBpN1MuppGQpuNmf/k4NZ+rnnAIqnCcT8n8ga7AnChdlVceU1A40bTAqEfwKmYG+SidOEJHcKlge0FldVn08WJbk79XLsu+wK3AeoPoThKM+cjeVlS1nYhbKfrsx1cUbJWq95HdEfoU/EQ6vjcRi16uCn+xXHJPhJttRILCnZkUco1kRtkkaSydMwuEvBLYj4K9J7naR8RUCEMiZQPJHaTgcTmiAf7Xu6sp1wJNzDPnzOKAB45/q6ur68xckIVUaAQ1oB2XW8BXl64ZSzpsJA3M+CpuxLQNU9Q0HKer/Fxsbu1B/S9lauLCEiG02BDw10ecTodAXVJ9unc2NxfA7lzZajHTOIs4JPfQfcsRfg9cHZ3EfXvNDIG67w+sl1c8V3FOF/L1ldVmuTXF/ULsCH67PGGcYkRJztuyHkvR6HWZJXAg3LqvU21QX+woRmR9xjPb0vKz0P6CwN/oR/tQwU+2oQ2Omf5GYXz/1Gp8hAIFtCSAAbsuDbxAoKQKaArRRFkm/VqJeKKmEbU1MTB9X64fzXV1dXb4/4LdGy6dyJKB68ogGOT9R2u8sx/SXaprth68GCss0jPxwW2PjO0o1naSr9AlE+/oeDCUSP5YKfnfpp7YyUphS8lfqRdqFmgJ6v3LFFNAiFW3/8LDtXH93SkwodCraFPe72pubDy10xMSXnUDE8xbp98sb1DfaZkWFcCOhUOhOe3laiMj8ikNtyZZQMYvmMb/imBLuAk07Pluioy3TgoMABNIQQABMA4bTECgRAq4tpKsH6CM6BkokTclk2BtyDVzWaYpVSVt0lRIz0hIIDESjN+kH2rfE4mUdSdMHuOSHgNrjmBcOj+YnNEKpVgK9w8PXaZD7SeV/hQ7aqI8VwZ6jAny/XvRdplmozyoqxD8feecQdEwi3A3qS5enhNkcbsmjF8d5U9xxzgksWVIKG2blMWPlH5QbDu+rXJyi+lFXgNz0q/7dJgFwqABx+RpFQmu0qlO7RtxsbWX/nefZTu7n1S9cuJP/kREDBMqTAAJgeZYbqa4yApoWtEIPz4JOS8mCODko1EP9eW2YcI38MmjJAozLWwnMnz//ZlWYt+vM6q1n+bQjBNQgX9JLgiv0wuC3OxIO90LACAwMD98rUeqjEgL/IquXMROq5BADjUKeXFL887ybtdL/Z9VubSdv+OaJ7Y4Eo7K4TX3pH1OFUdgyMWtubfzWMjLylh3JA/fml4CmlO6hfvDo/IY6c2jJvtZxXtLavndqTV+bZVPWTpsDDms985vVpkY0jilEXiKO656itQcXFyIy4oBAORJAACzHUiPNVUdAP0hv1EDMpgaVitNvIW9Y1n8PaMqSmfcjAJZKyZRBOmy6uKYD3ylLwPcruXeUQZJLPYmjGqV+Na7dQ5XQwg5YS50M6ZsrAbM+fzLkef9Xg7Zf2+BNA9OCjN7mmuByuc8w2qEpv39UH/gVWf7dprTzDC2dAowFXXeFOlJbrqKgLtl5e94BamhvkOi0lyKnzRW0BNJGdrjK5o1pr+b7gudtiMfj9lIgnu+gixDehJ4lq1WRn9NzpBDR2+ZoZ2pDn/0KERlxQKAcCSAAlmOpkeZqJODq4fmoHp4mthXdpcaB98ly4a6iJ4YElCuBmJa2MRHws8rAteWaiRJI9/Nqj/+paTZX60V72S4WXgIcScIMBDQd+GmJIV/W8+cHAdftTvX9M/jkVC4EjJ+e4y/r+KoGqV9UH2hrLSZyuRc/hSPQNzLytATaHytGm5ZdENViMndJxc/zTtAA7eMdHR1MBZ4EU7y/jsricL3wXlaIJKhviOkN+5Op3aAr5cWAWTLeqWNdsn77C1LdrFOr/vU47dq81N+oCB0C5UkAAbA8y41UVyEBWWI8qh8FfyiJrG9+i3dXTU3NfSWRHhJRtgRMBNQv3C8qA7/XES3bjBQn4SsloH6tf3Dwcol/vcVJArFWOAFHIuCaYCz2ddW1r2tw+qTyW/bT0opUZsLnPa24vzUwNPQp9X2P6bOJfwUYExcpx+UbrdsWjT6p8rpKWSio8G1qoypEm/68aWx09ISlgUAh1pxTdLiZCLQ2Nh6n84fNdC3f51IdwaMSr+7Nd9jFDk/Pj5uUhlXKm+9JUbs11f7VEgKP9z0yIoBAGRJAACzDQiPJ1UmgJxp9RjkvhSkBrh6sL+oR/qB2KR6pztIg1/kkoOnAD4cikY8qTNvx+jkdlfLWO5+YpoY1oS9PmCAjEcE2VMFBwC8CST2id+PGLolW/50Ihf5NA7hbFRnWprMjbov5363n5mXi+FV9njq1zxjjSozA+kBgQn3sd5Ssx0xQKKRLxdYoc9FPDDc1HVTIuIlrWwISkU7Xy/dDClIHNotjT+qtwCPbpqL8v+m3yuN6dphFbWGc5x3oJBKvLExkxAKB8iKAAFhe5UVqq5yAfoQ8LwQ2ZWhTEVFobWLnGk0Ls7TgIJAXAr29vSYwvE+LN39Bg+RH8xJoZQZiu/wu1wYNH9IP6p9VZhbJVYkRmFQ/3Gh//y3xROJipe8HOl7UgVgvCFncPyXk/EKgLu4fGjJLZ7P6w5U+AVcvpwb0TLIye0K/ewqd4lr186dro7VzFyxYsEuhIye+gLN48eJ6icDHqBw6CsVDQuNTqneFE8oKlTGLx3VXa2r9hkJEae1VZbd/a2vrwYqv4I23EHkkDgjMlQAC4FzJcR8EikBg3PP69ECz9dJMBCiWk229d4OmhT1XrAQQb+US6B8e/nkgFLpYb4q/W7m5nH3OUoPPXv29PByPv0uLatuLABwECk7ApptLrP+cfkC+W8+C6wqegDKJ0EacUk7/qmf2RQPR6Cc0qF9XJkknmVMI2DNJ/e6fp5wq2EezOpNgcomXSJxZsEiJKElgyZIldePj46fqt8iuBUKi4vYe11qDtkxARbpEOPyo+sU7CqjGLQvE46+pSJhkCgI7QAABcAfgcSsECk1AiwL3aGcw2+mzWNOvNurBfafeSK9WGqZOYSo0CuKrYALaWXpVKBz+kuraW5TNpDVgSgCr4Fynz5rlXYPA22RB9FYdX+8ZHX05vW+uQKAgBGJ92slb5uAfk8D1DsV4v8Vaze00mf8UA/Vdz0j8e384EnmnLHVtrdxxu44rUwKe9zeV553FSL0EocXq/8/RrsCHFyP+ao1Tv7dr9YLjnTqWmBBbCKe+9O6Y675QiLiKEce8SOQp5fEBPSh8jz5VZnvKevM8E3N9j5AIIFBGBBAAy6iwSCoEjIB+lPTpB8kKfSzoov+pgV2/HqrXhEKhAUoDAj4ScG1K8PzGxr9I8LpEPxg/onp3n/1krBaBwfKZzG8g8JTy/kknGPyYLIhWSEwY9JE7QUNgNgRiZtUWiUSucUKh96idfkx19YFk3S3AAG82CfXb72S/JJnANo74dwmjl2hd01+qH3tJcduanbgyJqCp2yu0BMv3lYWCv/hUfbJnwekasL2njBGWW9JV3N5e4n6cEt7kc+In1UV75C+XhXVlTv9V5rq7u0c1pX612G7U18l8+4Y32S87zhKNm05fuHBhg28RETAEyoxAuMzSS3IhAAER0C+Tq/TkPFiiQLv9OCyIs3g8b32opuYaDWrs4Y2DgK8EOjs7ba3LRwMdHaubR0dXagB0lur+q3TuSP2wCxas7vuay20Dtx+sypc5e1O+QotY3x6uq1vBhjvbcuJb6RBI1c2/a72s9WNjYytDgcCJqsTHKIXHqj7bRgb+j/SKgMNG62bJorZqFroP6fvt6qNu90KhBwf6+6NFSBJR+kPAijoejETu1gyMq/UMMsv0gloUqR01qJ6d0drU9JbmaPTa9YHAmD9ZJVQj0D5//s5aqPNUfbTdmP12yfqlSFaFE4l/6G9F77Ku9cPXuaHQ9crnG3TU6PDNWd8s1yTAb00kEjabhI0LfaNNwOVEAAGwnEqLtEJgM4GE1qS5r7W52SwN7O1kQZweo70a7NyfsmgoSJxEAoEkga6ujdpCc3lHR8f9mzZterXWQ3q1zh+h4wAd7Uk/lfHfoISEZ/Rj9WGJf3/VoG/5wPDwUGB4uDJyRy4qmYBj1h3K4G12tLW1HStLjzP0jDpaz469Vaf30Hlpg+XvUiJ9Qvl6UerfGglCq7Ru6a0Dzc3LA+vXI8yUfxFvn4OkiqDfPj0tLS3fUF0+SCfs+VMwlxIydtdvsP8Yam39e2Bg4KmCRV6FEbnh8G4q5zepnKXp++tS/Um3Yvme1sizvxXtapuanpdF3s9CjnOKMrqwAJmtVxynBmIxW8uxswDxEQUESp4AAmDJFxEJhMDMBCQQPJiyhtp/Zh/5O2s/UDTQeUJr0dyQv1AJCQKzI9AlIVB32Jvj6zUQO1T1/wJ9trf0i3SYENioo6ycWtYmDTKGdLwok8Z7nXD4t1oD0dYMw0GgnAioCm91qTp8X/3ChTuFJyZeq1H02fKwj45FqvPN8lm71XfZfIor7bYMxrCeh2apc6um+t4wFI2uS+ZgILkyhrxUpMFj2RSSjwmNaQWGJ2SFd4XiqJMY9wof49o+aGtfNmY7WM+9N2ln0yFtBPXC9p74nh8CbjC4v/qsI9TO8xNghlCS/Ynj3K51j23JgEp/2+fY77hl2gikr7n5r8Jyto6WDHjycclE3IVaC/D4RfX1z20YHa14kTUf0AijsgkgAFZ2+ZK7CiagN4X3hmOxuyXO7Z96O+xrbmWZ9KTWwbnD10gIHAI5EtBA7HF5teNTGgy9Vj/U36zjeH1frMMG4Ta1pBSfcZpZlJzik1xLSm3X1pa6JhAO397PgE5o0jjP06KIVqy4ciIw2tNjG9b81A5ZBR4gq8DXqJ2aGPhKnbMCtTYa0VGK1oHWVu2wtmqWfU8rwddJ9Lt5cGjoCX3XEqXTnP+KwbQoi3hi88vBIiag8FFrR+fvaAbGPMX8QR276LC663fntCV8PTP+I+C6tlPs1TpweSagzVaO1DP59AI9b8YUz1Xj2vRsY+WLf1ZSyf5xrX4DNSQSH4uEQlav36jDngFb6rg+59/phXE8FDLL2VvyHzghQqC8CJTi4Ki8CJJaCBSJwHBv79NteoOmH4O2A6O/69G47kMhz7uzSFkl2vQEgvo15e+PpvRxl8wVWULcpMTc1NTU1KINag5QmzhVP+Bfo3OHCk5tCY3ITTBYo/Tco/U7rT3d1TwwsGH95k0CSiiZSllpOZMZClnPCxlXaZH2MTW2u7eCX700EPiupjGa1e5JEjJO0t8TdOyrwyw1SsWZ8LdeguXjWq/qnmAweKvS/3eds9/N1o7tqF5nA/dEoiDtxCIptefcwNDQf8sK/TZV2A/reXO+kuj3RhFb6ppe+prgeOGC5uaXtBP37VsuFO5DQcpd2XHEN1johia+B+olxWEqV7+JRjWT5zKtTffLjYODfX5HVmLhu5oGvKG9vf0TiVjMXuReqmNPP9Mo1kcp/D38jIOwIVAuBBAAy6WkSCcEZiAgS4RndPpXGqQcrbeIkwOTGXzO+ZT90IvoB9hfvGCQNWdywOi57qhYrZdXsxjx8xdkRIVj09H+6XM8Cr7kXXKMEI1G+5XSBzUwWxkMh3/iTEw06I3vKyQGHqtjN7WRpSqQwzSVPZKuYGbzoz85NT4NGoUTUxzrVEZr5W+NEmjt5xEJlL3j4+MT9XV1G7Vm2kZNGkyXlDQhV99pKTFRDQTXaVC2k3K/yU8CKjebRv6SNrNIWmj6GVcVhm113VtvfePAwIvaNOSa0dHRW2pra2tc123VsW9q8H2oyvsV8rxU380yZEaXx7Zq6vIa1a91eqaulDj/mNKyWm11Qzgen4hHIpsk/m1MJYJ6IRBiP6LyeUH96jp9tWedby7heQvUd2/wLYI5Biwr9Kc0pfDfYzU1X1cQx0vMPkg89pLQsLu+C48/fbtmY5jZ1C5icpDiKKgAuF55atUzTeWvJuprX2zhj+t4LhSP+1q/FMc2TmVozxmz8Fytw8oxL04BhRX2yyq3v+v3wGNh170rWFfXqXo0mpcIyjAQTXl+Wbvzfk8i6PXqc49RoR8oTjb1ukPZieU5S/Zsl91Ec6t2r0+u15Dn8AkOAmVDQM8QHAQgUK4EtCnCfA2gdg57nu1U5ld7dgKRSGdfX1+P4pgoV1aFSremuTUF4vEDVBhJUcrHeJ2449gPJM1GG1qnv3n7oepjmgsf9NKldW3RaHswFpsvMbBeCWjW4GWBfmjamoHWbnYTuPZJoUE/0PfXd/OXqfyCKt+XFE631pWxMgjqB+tqDfxG9HlYu9ytSqhs1C5HvXB42M7pGJKIENVf3CwJyLKzLRwO76R2Zbv5ZSqXWYY83bvKNCSLry4Nyl7SVfq76Yj8O6O2Wj862lI3NtaiQXKz+rd6WZ7XaD2u/RRpo9pmg87bZ1diS0RtdrHa6s7J7+lTZW11VG3TrA9NuIrpe68+vqj7x3WiUwJzT7Ktuu5IoKZmKBKJDKQ2NEkfapVf0bILzRJmdpJg2lqANhnWb5AX1H92lip2vXSydcxanHi8Qdai8/1Op/VTiWDw5dSz3+/opoYfVNkfqN3p5/td7mqfrptIbKpralqXWv93ajp8+yyBaA+V4S7BRCLf/b+jMjMxc0h508SFAe1thpskIGvARomALarbrWJvAmxef9Om2ky32oy9NDdxGQeBqiWg/hsHAQiUKQFrv3l9QJYph1JKNmVSSqWROS1hjdka9KNwgX6MN0oASK5BJtFhF23GYesHZmpbJioMSDyI6l7pBxLfI5GuiYmJsYaGhrFCDlYyZ5GrECh/AvaiS9PF6mpqauq0k6NZhqjZqr06TpMaqQySMorCjkSqCbVvG/QF1L5lUOYNq932SeiL9/T0mGiPKw8CPF+nl1O1MClUPgsVz/SS5AwEIAABCEAAAhCAAAQgAAEIQAACEIAABCAAAQhAAAIQgAAEIAABCEAAAhCAAAQgAAEIQAACEIAABCAAAQhAAAIQgAAEIAABCEAAAhCAAAQgAAEIQAACEIAABCAAAQhAAAIQgAAEIAABCEAAAhCAAAQgAAEIQAACEIAABCAAAQhAAAIQgAAEIAABCEAAAhCAAAQgAAEIQAACEIAABCAAAQhAAAIQgAAEIAABCEAAAhCAAAQgAAEIQAACEIAABCAAAQhAAAIQgAAEIAABCEAAAhCAAAQgAAEIQAACEIAABCAAAQhAAAIQgAAEIAABCEAAAhCAAAQgAAEIQAACEIAABCAAAQhAAAIQgAAEIAABCEAAAhCAAAQgAAEIQAACEIAABCAAAQhAAAIQgAAEIAABCEAAAhCAAAQgAAEIQAACEIAABCAAAQhAAAIQgAAEIAABCEAAAhCAAAQgAAEIQAACEIAABCAAAQhAAAIQgAAEIAABCEAAAhCAAAQgAAEIQAACEIAABCAAAQhAAAIQgAAEIAABCEAAAhCAAAQgAAEIQAACEIAABCAAAQhAAAIQgAAEIAABCEAAAhCAAAQgAAEIQAACEIAABCAAAQhAAAIQgAAEIAABCEAAAhCAAAQgAAEIQAACEIAABCAAAQhAAAIQgAAEIAABCEAAAhCAAAQgAAEIQAACEIAABCAAAQhAAAIQgAAEIAABCEAAAhCAAAQgAAEIQAACEIAABCAAAQhAAAIQgAAEIAABCEAAAhCAAAQgAAEIQAACEIAABCAAAQhAAAIQgAAEIAABCEAAAhCAAAQgAAEIQAACEIAABCAAAQhAAAIQgAAEIAABCEAAAhCAAAQgAAEIQAACEIAABCAAAQhAAAIQgAAEIAABCEAAAhCAAAQgAAEIQAACEIAABCAAAQhAAAIQgAAEIAABCEAAAhCAAAQgAAEIQAACEIAABCAAAQhAAAIQgAAEIAABCEAAAhCAAAQgAAEIQAACEIAABCAAAQhAAAIQgAAEIAABCEAAAhCAAAQgAAEIQAACEIAABCAAAQhAAAIQgAAEIAABCEAAAhCAAAQgAAEIQAACEIAABCAAAQhAAAIQgAAEIAABCEAAAhCAAAQgAAEIQAACEIAABCAAAQhAAAIQgAAEIAABCEAAAhCAAAQgAAEIQAACEIAABCAAAQhAAAIQgAAEIAABCEAAAhCAAAQgAAEIQAACEIAABCAAAQhAAAIQgAAEIAABCEAAAhCAAAQgAAEIQAACEIAABCAAAQhAAAIQgAAEIAABCEAAAhCAAAQgAAEIQAACEIAABCAAAQhAAAIQgAAEIAABCEAAAhCAAAQgAAEIQAACEIAABCAAAQhAAAIQgAAEIAABCEAAAhCAAAQgAAEIQAACEIAABCAAAQhAAAIQgAAEIAABCEAAAhCAAAQgAAEIQAACEIAABCAAAQhAAAIQgAAEIAABCEAAAhCAAAQgAAEIQAACEIAABCAAAQhAAAIQgAAEIAABCEAAAhCAAAQgAAEIQAACEIAABCAAAQhAAAIQgAAEIAABCEAAAhCAAAQgAAEIQAACEIAABCAAAQhAAAIQgAAEIAABCEAAAhCAAAQgAAEIlD0Bp+xzQAYgAAEIQAACEIAABCAAgVIkEFyyZEltLBYLjo2N1dQlEpHRQMCbKaGO47i1tbUTvb29E7ru6ojN5K9Cz9UoX8GWlpa62ni8ZiZG4uPNnz9/U3d3dzzFxhjhIAABCEAAAjkTQADMGRUeIQABCFQEAev3wx0dHZFgMDjjIGwyl+HOTm/95gFYYvJcFfw1PhENWEOZ8uq6rtPV1WVcbIBajEGYpc/KMZStHDPlo5jXUgzHlYYdqV9WXqGlS5eGJyYmhCJznS5mfvMZt8/1L+c+Ih95srxYuXV2dk7WA2tPdlj/lLGPykf8PoURXqr2OdHRkbFOpsrR+pBKEbqCyovlPWh5Hx0drVUeF4bD4b31d74u7ikRa6eA45iANc25nrdJJ5/zPK9TRzQUCj09b968WLCry+vc3E9YvZjx3mmBlfaJZBtbqr5LmXEGGxoaI5HIvmJUF3Kcg5T03cRo2zrheULnJDzXfUQNpU9Mu8RmvdWhmq4ud/1mLtaGyrXNKOk4CEAAAhDwm4A9gHAQgAAEIFAlBFpbW5sDicTZGkq8S4MJE19mck5AowoNQF6Uvx8NDg6ulqd0fme6v2zPNTQ0LNLA6iLHdU8JaOiujMw4mHI8b7743Cs/P+rv79fYdGZ/foGQlchhCvs8peNopcOsZcrOKe3zdHyyLxp9cK6JX7hwYYOEv9eEPO+1qqsmLGw7aJ5rwCV+n5/1T3WrRdl/XdDz3iGmY76j8DwTswf1g/RRKYGRhOc9nUgk/i7xp1t9z6Dv8ec/goj62dPVh56roPfI2D5dt1n98JX9Q0M/zX8yCh5iUPk+QLGerLybiPVKHUt11OowZ2MO61MzjT088XIDUv/kb3Pf6zjPK7zHddPDbjD4uKrEHVuu6UM5ura2tqa4+qyQ656svB6vPC9TPiYFcGNkRzo3KfIZx4061ujDU6pHtyjMFUNDQwPpbuQ8BCAAAQhAIAwCCEAAAhCoHgKahlUTCYX20IDhdA08zNpiZqfRhC5skp8jm5qa/jUajT40s8eKOmtsvqU8n64B2Xz9nVH8sxzrwjz92RR3nHr9NVZp/epa3p0ErwWu45gIeEbGcsx7zPkL0BjqaN+REFWfw1KPdpdQdYLC2UMsqkKo9rP+iWmtrJGWKY7TCli3XItP1k3W8YyFg8FxxT3R2tw8JLFztcr3AYntfxsYGFi5I/WlQPcG9QJhifJzrOI7OBNDCZ7z1M3cV6B0+RFNjYmdKrfzpVgdor8LrG6qDK1/nK9j9uOM7btdz9tX/fFuCvd01YWNqhN9Cv9xJ5G4oa+p6eZAV5eJYGXhFjQ3n6ryfpuXSJwoSz9j1KC82TMko8V5hsxZGEeKzSvE/pyg4/S1NTevVSu6Lh6PXz8yMtKT4V4uQQACEIBAFRKY/YO5CiGRZQhAAAIVRMDRYLrGzAs0ELHBQyZXp4HWURqonCejoA2yvHg+k+dyvtbe3t7oxmJnaSB1grTPtgzaXzKbpo9qulpdxPMyWWr4hsSTeZQGwHUaPOZSjr6lY0cCNoZeMDjXgW8yapWTY1Zj+jtfdVVGa1nr9I4kuWTu9bX+zZ8vm9KJSLJ8CsvThJBpTiV8oE6eJCuwd0rceEl/7/XC4VskBj41zXMJnDBTrgGrk5rymo2h6qx1xLb2W1m5tsbG49R2z1F/eZTSv0j52EOfG5L5yX9OrI9oSB0W+u6Kax/1gce1btx4sdPS8qisRq+X5dvDdrHUnJaTmLdxePgc9U2v0/zlw9RnL1W9aND3fCU1ooAiCrdJfzsU6n4qk4PCodBFLU1Nd8TD4T+N9Pf/I1+REQ4EIAABCJQ3AQTA8i4/Ug8BCEBgLgRmO/K4UJHYNOCr5hJZOdyjaaSLtZjev8rCZMEsBmbSJpzZsswPjkTC4rWpcvkJr1ihxOP5yECSxSzKrVi5zXe8/tS/zXU6H+WSr/wmxR+1tT2TATrO0RIBT5W4cY/a64qB4eGHdL7UpsF7EsNsvbqMLllxC2w9nDFBGS4ukVXfxubmE5Xmk3QcL69HyuLMymaL+XMBK02D6sN+ino/tfsTxPr4tpaW+wT8dr2outPSlHK6tCV5k+cK9teWahgdHn6TIjxLAt2hSrO6bC95+JiIiN5KLVN8ZsV7WDiROFRWk7c5odANWq7iRR/jJWgIQAACECgDAgiAZVBIJBECEIBAMQlo0LK7RixnaTBzlwZX64uZFj/ibm5ubpXpmE2ltYEtDgIQKEECWwRex+lQn9ShJJ6uv69Sv3S9DGJv7evrW6Nzk+uolWAOyjRJS5fWNQ8MHKhdaW0K7uvE/FiJS5NClnWZJrIV3G2pD4FAq4TI0/T9NKXvZNWHn2n51ockdtlLq2LVB6etqekMWYlfqjS8XszMOtlv4W9LGSSfY5tfDrWJzRsV9xmadny4nnW/GWpsvC/Q2Zl++Y8tofABAhCAAAQqkQACYCWWKnmCAAQgkEcCqYHW6UHXfUnB/h8dWS1b8hi970GFHecU5fEjiH++oyYCCOSFgNqrNdeQhKjTpKycpk1DrtJadD/StOD7db5Yok9e8lZKgSyqr188PjBwkkSkf5XKd9Kk8CclazKZRRH/JiOf/Jt6Ril5zolK23ESu34vAe7KYE3NPb29vcOT/grxd/HixfVjY2O2/uMXxO1IS9tk+goR//ZxpOJuVFou0efDWkdHv1nT0HBr98hIr/xW1LN8+7zzHQIQgAAEphMoytpF05PBGQhAAAIQKGUCGli1a77ha2RBYBtPlN2aVenY2i6yCdc9QRsM7JPOD+d9JBAO50NAyEcYPmaSoH0gkCzzpLiiwPVj9h2aFvwF9U+n6iv1IQ/AZUm3ezwU+rLY/kxAT0qy3ir85SGG/AeRkiW1bK3zFj2vfunG45/o6OiwzUh2aK3RXFOa2pX8ZDG7QmlJin+53jvFn2XDhLn4docJ23MW7GSN6JkgqXbynXgw+J9a93bGNTcVBw4CEIAABCqYAAJgBRcuWYMABCCQLwI2+JNboofGp2UV0pqvcIsdTnxi4kMaLL4plb9iJ6fq4hf3fIg1WrXOkyFnPoIqnyJQbrUZdF747XCmjfxsjx2OdEoA1n4VvwkvX5Ul4Nm6VDvlMh9nSUDWc2eqTd0sEe2tujWfG1YkU5KurswymWm9p/pz28zpQ5tGR3/W1tZm6wX6/uIqMTFxrAS2XyuundMmLsOFVB82Jj7PypzxQXm1jU3seEhP4Ed1rLXbjd8cnIo0+RwPqVx31i7BBRFF55BOboEABCAAAR8JMAXYR7gEDQEIQKDCCDQqPyfLKsSsAFfoGC/j/IU0KNzZTSROkVXELqmBURlnJ2PS+zTgu8Jx3ee0c+cm5dUGfjYSnBxHTv2cMaApF2e6Z6ZzU27Z9qOmbka0g+/j256d3bf6+vrxTZs2Pa6B8y8V+SL9jc0uhBx8O05czHbSPL5XyPeeOdwxIbDXagAflV9/Btmbdz1+WGudDSoO414Up3xuUMSflmnSIxHXHUnVrcxpMblWxkhuKDRfcPZUnVyoG1p0dpkxVmaOUDkmX1DLX+awplxN+TxYu+9+Q9Zr79V6pffocqltDjIlxaX5UewuFstPqCxMNJuNsyJI9ikpIcumvvbr3BP6/rxM1+xvj/qhHi0nsV7XtrYN23hGYrbqwmE66lQXFiigIxTgAbr/oCnhzSY95tdeVp2jKcH7L2hsfHPf8LCtC+iLk2hqu8h/RoHbczInZ/kSh03qK27XvctlpfeENu14KREOb9I1V+e3hGOfXNcNyZ8eWc4hYniSTh2nvv2VqXC2+E33IekvEHhe9/x4cGCAdQDTgeI8BCAAgQomgABYwYVL1iAAAQj4QKBZg4fPLGhq6u+LRs1CwcYlGpOUjZtMb1DTwz6ukdQhGoGVTeJnm9BUZkc18LtzIpF4sLmhYVjrU5XMs18L9W+cbZ6m+u/q6hrTtM/7lL9/SIAyK8C8F6arwbgXjx/jOs67VVdyEgAlYnxLaXleg3lfLNFMCAjU1o5ofTNbxyvveZ7KON3nVN2KSdh5dmho6An5m/3ae0uXrmwZHKyTNVLNvGCwacJxmiUMLxLrfSQC2TpqtunEfGujOWbSJJNlUko+J0Hm3/qjUVsTEJcjAYl/HxH398i7id2zcion3ZospSf09wE9J+6V2PesFwoNh113VPNZ++fNmzfe3d09poBnrCuarvu8dmQPjY+P16rh/EVhNEsoXixRd3+JYSfovpMVTVJgS8WVKY26PdkhBFV/bnVqa4cCw/4sB6g+qFWRvVbxWJ3N5AyQNR1zfcrDH3XfzaFEYpWU6p7h4WETTHOp6p2ydH04mEj8Um1lV8V7mvi8TgEvycRF12zb9Qckjt+qeNR0cRCAAAQgUG0ESmYQUG3gyS8EIACBMiVgY6pjE45ztgaLazSQMAukcnI2uKrV4OkoiQTn68uickr8rNNqcojn2fJPw6OjowM6Ks0iypX4NCAudvjmVNefk7phFn25uEQsFlszMjLSk4vnOfvxScyYVXrUGYRct0YbH9RJ2NFGsbN069ePqQMxQSgwstmacDKA29VGV6je3qw2aqLPqdnEjckbk3+1GYTue72sfDslMnduc40v0wg0Nja2h4PBd6mveL8u7jHNQ4YTKhvd5g3r+Ju8rVA7eUrPh2eGBgef3f62aDRzE5KgP/lCwGq3idtJp/q1XC8ulmtxv2ulWh2sunC6LhyQijvla9ofEyQ3yu+NEsm+I63crFV9cUrHOwXhNVnSY88eJSeQ0H+P6u+Pla5b9Qh9fg6J0t4sAy/oPjsekgD5uNYDWKEITtP3cxX+ThbZVJdMWyBwv0TZP+r8jALsVP98hgAEIACByiSAAFiZ5UquIAABCPhHQFYeGkxcoAGGDT5+5l9E/oTc1NS0m8Q/G+ju4k8MpReqBsIhWdeENcCuNAGwILBN5JKlTnD7QXWayJ2amhpfLP/SxFeJpyckcDypjD0pIXC56u8TEljerO9H55pZiSCvl6XkP+T/F7neU43+zHotGAhcoLxfpiPn6aspVjbt28Ssu9U+/iAxa4em9KfCnPYnJS4n18NLbtw0MXGP4nu94j5GnveadsPWE3fLevCbg8PDcxHZtoaS/pOjzTQapPifp2fiXkpPep+bxT9bHuAuTd/9Vu/w8HWZPM/mml6CPCf/z0nIXREJhdYoHafq+3FKU/NkmsQhpgf3dQPR6F9nEzZ+IQABCECgsgjomY+DAAQgAAEI5E7AhjgaxBwg84rX2eBx89fc7y+2Ty08dZTSYGKCPuIgAIFSJmCWThKWvi7Lr08qnSYK2u6oWZ36qf3VT70yq8cq96Ap169VX/4xYZit+GcvgH4VDIffNzA09Gm/xL/ti6enp2ekf2jo9+FI5H2qE1/W9RU6pk+F17IAEgl/MzA8bJaJvjhZJs7X9HUT23J6maT6eLf8/nc+xb+pGdMU4t7+wcHLxeWDyvvPJf7ZmoedOkwg/FEgkbhRf/O/TqoCxUEAAhCAQHkQQAAsj3IilRCAAARKkcBBUtD+RQnzfXfFfGVeUwLPklXEuxWePf80HsNBAALlQEBWTn9zQiGz3DXhKatTO7fp74fIgvBEeaatz0BML3BeLauwtweCwb1nuJzulL0DWqXjyxL+Lu3r67PPBXcmBKpO/ER14g2K/IcqYNsh1yycbRpxv0TNbwy2t9uOvL45b2SkQVNqz1cECyYt7TJE1q8pv7+UeHlrBj95uSQu6yTIfiyhl3QSAz+u4xJZ/n18YGRkpSKgLeSFMoFAAAIQKE8CTAEuz3Ij1RCAAASKSsAGOxpF7KWR4Ps1pfZare1kFgYaZ5S2026QJyuFry7tVJI6CEBgBgITWs/vEe3m+ns3GHybrme1upIItMhJJA6RX9+swGZIZ9mc0luQS5TYM3IQrybz5KnfX6HppJ+VZZ1ZsxXdqU7Yzh6fltD7G+XjFOVpkYSva7VD+KrA2rW+7lQ/EYnMUx2z50lLNhBmkacp6QWth3ou2zqM63SYaDv5fLbPOAhAAAIQqFICek7iIAABCEAAAtMI2KAqo6iXGkUs0Juk9y+sr180LYQSOyHh4DwN1l6VtAzKnDZbqX4osxeuQgACRSAwoV2Zv6d4V2Zrx0lRy3Ha1E8tk3+snrYtrBrtkmzTfo/a9nTGb6OyqPyLdrj+WKmIf6nUJh9Fmiq+OhgMXinx72uygHtyyoYiGTO1IxcVX4fub8slDNXXOyTIPZOL3zz6MTa24cek+JfHoAkKAhCAAATKkQACYDmWGmmGAAQg4DMBjZZf1oDFLDwmnxMpvW9axI2ybLg4FokcpyuRaVdL5cTSpXWyGnqP0np0JmuXpKjgOE8o//eXStJJBwQgsIWAZ2sCqg2vytSOJ32r01okwepIfUcAnIQSCIRltX2I2Jj13x5bT2f99LBYfk78bRppKbq4rAGjEv9sR3Df17nT+n/1iUTCrFC1EkZGZwLcC6kjo0cuQgACEIAABPwmMDmw8zsewocABCAAgTIhYCKYhLJuHX/VqPkhWc2NKenpBtBB+W+TZcjbtJ6UTbUrOWe7RrYODFysAe+RSqvlI52YqWx4m/TfXfLw8GavJZcdEgSBqicQCgYf19p1T2UDkWzDnrcgm79quq5+eteQ47xL/Gzdv4z9oXFJMnSce/U8+KbWlXtMp7AmE4QRW//PccwCMJszMfKfEgs3ZfPIdQhAAAIQgIDfBBAA/SZM+BCAAATKkICEsHGtV7RaC5x/VwO/9ZnEMLPE0SjybAmFr1FWS25DkPHx8f2Vrg8rja0pqyEb9KZzVyu/t+uiTYHGQQACJUhAlmjPqBE/k6lf2pJszzMLLDtwIqBpqwfqz1vtYwpIpv7QNlJ5WS9Efivx75qUf/6IQDgcNgFwiT5m5rf5hdME0CAAAQhAAAKlQGDy4V8KaSENEIAABCBQIgQ0oolooDjRt2DBb/X5XhMEMyVNA6FamYqcK+uS12fyV+hrWhh+N1m7WJpMBMw2RblHo+NvK6+Py29jodNKfBCAQG4EJhxnwPW8gZx8O05IU15zWqctp/DK2JN2QV8ScN0T1F/bphW5jQG0c22t511fxtn2Jel6PtoGIGZdmk0AnIw/reX5pAf+QgACEIAABPwmkNvD3+9UED4EIAABCJQiAS+wfv2YRje/1vG3TNY2KSvAI7UY0puVkVwHRL7nWRaMRyuSi3VkHHwpwRt0XKF8vKh8mt+SyYPSgoMABKYQkAXggBpo/5RTmT7WSaw5ZMmSJfMyeaqGa148fpK4nW39dQ4uLj/rNN/3l91DQ7YhFH3iFGiqU3FxtOUxsjnjVlvjednWCswWDtchAAEIQAACO0wAAXCHERIABCAAgYolYAOXUN/Q0G2ytrlLU8EyZtQ8y8cRbS0tH2lvby+6BcLuhfQAAC/KSURBVJ2sfpZp8HqGBD1bqD3j4FXTfp9xHedLmuY2GI/HS24ac0bwXIRAlRGQ8GLtOWOb3oLE80bVrO/u7OxkDTbHOVR9tE0BzsWNqF/8lvrDf6Y8Z34A5BJiBfnRmn4vi8+DylK2NRHr5OeYeCi0UwVln6xAAAIQgECZEkAALNOCI9kQgAAECklAA50bdFydKc7U6HBXDc7frfUDmzP5LcQ1WWhcJIXggkzWLmbVKD9rdPzBxD9Llzd/fm7CQiEyQRwQgMA0AnWu26b+KLfNPYJBa8/ZRJppcVTaCS3PcLiWaTggkyX3dnl+Pjwx8VttdrFhu/N8FYGUCJ3zOErThY9uaGhYBDwIQAACEIBAMQnk/OAqZiKJGwIQgAAEiktgaGjoEQ0ef6tUZFtM36Y57eXFYh+09feKlOqgBrtHaMB1iga7WYVICZcPxxKJXxQprUQLAQjMkoDElzapermt65d5F/NZxly+3tUXniRutvNvduc4XRog3NK7cWNfds/V6UPPxCHl/Dkdub4w+lAkEjmjOmmRawhAAAIQKBUCCIClUhKkAwIQgECJEwiNjz8iq5vvKJmjWZI6T5tpXKrB5qFZ/PlyeeHChfODjvMxBX6Y0pAxDl1/TKO3a4eHhxnoZiTFRQiUDgG126UywVqaQ/uOyV+nUp65IyidrPmWErNAU1+XlVnSQtDznpff3ykxVW85maFAZOju2vRoEwKzOnFdEkgkLm1paTk3q2c8QAACEIAABHwigADoE1iChQAEIFBpBGQN0q0B97eUrzVZ8qaxjtMadN3ztOvkAVn85vWyLfSfmJg4ToN+s7Royha4BM0rI3V1N2bzx3UIQKB0CEjMsnXsXpEpRSmzrC5tGPJwJn/VcE39cJN4LFO/nHV906So6jhre83qOxCwjUBwaQjUxOMj4vqoLmd7KaZHkjRoxzlBdfff25qb/1f9woWsCZiGK6chAAEIQMA/AgiA/rElZAhAAAKVRsDVrCeb8vRHHS9oMJk2fzbYkbh2oZdIXJTWkw8XRkdH91a8H1bQ2cQ/G9g+oDys6O7utsFb+sz4kE6ChAAE5kTAaWxsbNedB6rthvU3vWXf5v5pvfwtz+hvTskon5vspYgs1Q4XqNacUu15L0mt+ntOfqvcU6K2dqMEvb8IQ3+m5+F2mI5VWfwwEot9oLWx8XhZBLZsd52vEIAABCAAAd8IIAD6hpaAIQABCFQkAccJhb6tnN2XLXcaEJm1yfGyPjkmm998XO/o6JivKVYnScl7rcKrzRSmBmB9mtv2qYHm5klrxvRCQqaAuAYBCBSSQE04GPwXRbifRCqLN6NwLx/PDQwMWF9Vte1bL23m64XMkbI+m59iZtxmdEkRSzuih1x31YweOLkNAdWtUTcUuk4nu7a5kP1LmwZgl4n3TyQgvk+i9r5aM9fWq81qoZk9aHxAAAIQgAAE0hNAAEzPhisQgAAEIDCdgNff3x8Net4NGlQ+Mf3y1jPJKU+BwAmyAvyMzvr+vNk0MnKK1IC3puLdmpDpn4aVmHs0+HoksH792PTLnIEABEqQQEhCyVKl60Ide2ZT9DzX7ZLg9Zj8SuuvXifzv7B2ZtpJLCLZmBkl+Xl2vLb26eolNqucxyUCvqBnzr06ZrWOrD2nZK2+n2L7L4na9ziu+z/avOqk9vb2xlmlAM8QgAAEIACBWRDwfUA2i7TgFQIQgAAEyoSAFw7/WQOYP2U0v1FedN12Bd5fs5zOWbx4cb1v2Vu2rNYJBk/X5iPHZYhD4y2lyHGe11bG3x0cHNyYwS+XIACBEiIgS+J9JZT8QElali1Z1s619t9fZa18Zza/lX49VlNTK1Fvf+VzXi551QZKncMNDc/n4hc/mwnEXffL+nSr2NmJXHTWzTdu/b9NN71Vg7LfJmKxu1pbWr4ji8DXSvBesNULnyAAAQhAAAI7TsDWT8FBAAIQgAAEZkXArAA1QFkhEfBkWZa8SjfP+EIpNRLq0DSnz8ZGR9fK3z9mFVGOnlt7et6tuM5MCnzp73FkFdQjAfB6TYu7Q95SyUt/Q4VckRYSHOvq6kLwrJACrbZsyDLq1Zre/ynl2wT+bNMk1S15/eqQbuwfHHyy2lhtn1+t/xcRi11z4Ja8Vf57sYzenmLm7yMjIxv0PPy12O2hZ9Axqn+Zb5h+1ZRDe0FmR5ueqbsrjNNDweBQa3PzOr25ul/n79BLK7O6r2qLVuUfBwEIQAACO0AAAXAH4HErBCAAgWomEA6HH4vH4z/RYOUEcZhRAEzxsQH7YYFQ6OzFDQ293Ros5ZFbUFYSrRpunacR1H6ZBl5Jq6BAYEUwkbhK8VfFICrFY54Tjx/d1tTUKCFwk/KeqazyVjSu54WlPHbPmzdvLeJj3rBWV0Cy7G3r6TlXmX6f2virc8z8hNr692UNfG+O/ivaWziRqNE6dbspk5FsGU32FxKdsvnj+nQCWk/2r20DA7be4pd0dc+UD1MCk2aB0+/IeKZVnXSrXlbp8eq9Ui/QjlFA58gysFNThde5weAToVDowb6+vn9mDIWLEIAABCAAge0IIABuB4SvEIAABCCQG4Genp4RrVd0h6Y/3aARzum6K+MUX1kxvDMeDj8rf9fkFkN2X4q/XiLkBzVAOjQp8G1WvGYccOnSoC7c2jcyUlUL3ItNi4S4t2swGdXUZ/1LDkinDkynfs4OfbOPme7Z5pxY1wdc9/axsbHv6RYTHu06DgJZCbTPn9+RCIcPcXp7Tfi4QDfYFNZMzqb3O/K7SYrJ9eqTrowODnZmuqFarnk1NUFZT9oGE7m4l+VpOBeP+NmGgGNWk8H29hvd8fH56mvfqwp5lKqklsudW7eXvGvrvbtperGJuLZuYFx9+ko3Hn+otanpcfWzz0kQXCXrwOe3SRFfIAABCEAAAjMQQACcAQqnIAABCEAgNwK9cpqe90X5XqKByJGZ7tL1A2UVdpbW8npYU4hfzOQ312sTExP7hxznI/LflhpoKZqZnS78VA+9O2a+WrlnNWCs04D00LRgfMq61mSU/udG446TURj2KXqCLQQB1w0kHCfR390d34HowlojtEFiSZPCaFI73jMhq2LV19fo+4E6b1ZQ2YKXJuKNyddNquv/FR0aei7bDdVy3ZmYcL1QyIR/W481kzPIA7IwY2OkTJRmvmbspFf3mnj68/bGxl7Xcd6lOnmyvrfq2GE3pQ2E1TYOtT5dh7WN1Qr8Fj2H75ZV4Cq9EHs5Go3273CEBAABCEAAAhVJAAGwIouVTEEAAhAoGIEJraf3sNYpWq4Yd9exMF3MqQHMWdoVeJ382KLpO+Q09XdfTWl9m0ZALVkCcnX9JY2Af9U/NPRsFr+VeVkCio1QC+0k3owFJEAUOl7i859Asj7JwkmqUpsEvJ1N7NWR7XelN8/zQvGamhrVDU9iRa3a8C5S7w7QcYjCPF7ixlbRL7vwtyWjuvdXiUjkq8O9vexgu4VKIBAPhebNYs6/eS30u4IpqS3rj1u62N7h4evqFy16MDIx8V4Jqu+TUGcWmPPzxTYZ0da2sZ8KbT+F/RE9W59Ue/ppU1PTjQ0NDVp5ocvEXPpfQcBBAAIQgMBmAtl+qMEJAhCAAAQgkJWArMy+rwH8rhrUv3WKpcK0+3R9N11/gwSDWzRlaaU8xKZ5yvFEJBg8UWF9KAfv/Yr3p7WxGOsl5QALLxCYBQHbvfRTEjmGZIkrrSmUUTzSxbhMBRfLNPRAEzF0j+Y0btZNNv+/OeZMfciMaQsG/8dNJH4o8c82GsKlCMgqrFUC7RFim7FcAJZ/AqMbNnQr1P8na8DfyfL9E1qG4Xx9b8t/TNaEtrSeg/Uc/oba1Wc3jY5evmDBgitYJ9AP4oQJAQhAoHwJIACWb9mRcghAAAIlQ0Bi3nqtR3SvhiFnKlFpBzmpgcoyjVg+sGTJkg93dnbOSQDUNOJjta7VWRL2pg5+ZuahKVIafH1tw+goi9vPTIizEJgrgYhu3F8WTjlZGaVkilkYpM2YLAsmKWjpwxrF/aVwKHTrwMDASzP6ruKT6m8dvZzZUd5VTHDHsy5rwLXaIfgTwXj8cpWFPR/fqr9H5/Tsmlv01jbMKv6zbix2pp7LPxiIRn81t6C4CwIQgAAEKo0AAmCllSj5gQAEIFAkAtpt8g+xSGShRpufmWKRMFNqFmiEcubw8PBxgSVL7g10dtoGEbNzrnu2BlFnT1oPzXRzaoC1WmsxXTU0MID4NxMkzkFgxwiY2FCw35LWphWhI4sqW0P0agmAf4iEw8+k1l7bsZxU4N1aC25U1tYbZBVWgbkrmywlJE7b82dIU3M31HjezfFgsEN1+FTV5aN0HKsNPhqSJaRySpWU/bG2NVdn94Yljh+nD4tbmptfHY5EPqN20jXXALkPAhCAAAQqg0DBfrRVBi5yAQEIQAAC6Qj0jI6+3NbYeIuEuQs18NhD/jItOr+zhML/s2Bo6KN9gYAtYm4DllxGqU5bU9MZEhhPkxgwL9MNKRHy7rq6ul9pncJ0ya6a8yaeFNJZbBrk1gZsF1IcBOZIYLLeqj3HdTwpU8MV6l/uDk9MPDSwcSOCRmau41qXsVNTQjN1lZlD4GreCKQ257ANOp7WDvartYnVn8N6Vmp92v0k0h6g87aW3yGq88nOOlloOybehhTGPgpst0Q8XiMx+Ouy1n8sbxkiIAhAAAIQKDsCCIBlV2QkGAIQgEDpEtCOr6s12LxcKfyCjgUZUmrPnzO1O+VrNBD6Z64WPAsXLqyPj49/SJZ/h2Ua0dr4Sdf/prXGru3u7h7NkI5quDShTL4g8cQ45DRVMx9QxL9R5bAqlEjM3sIzHwkgjHImYM3b6u2AROR/SsBYq/r797DnPRGorV2Ra39RzgDylfaI6464oUzvYraJyfqHTF3rNp75MncCqsM2Zd2Oh3Q4mib8CtXxZXpmHaLvNq1+iUTBRSqMPdSPhs3afQcKpk73v11vYuJaPuPy/v7+vysOHAQgAAEIVCEBBMAqLHSyDAEIQMAvAmbhsHjx4l9MjI29QXGcrKM2U1wa0LwrMTFhg6DfZPJn1yQUNsrvWRoYHa8BUa0GSzYeSlpKbHevXbLFAX+ttY/+ut21qvsqQINi8QvBekY7RJoYVxCLPK27aOvDvaj12WTkuSNj16orMjK8Wfxbo3b+J7X3h2Ox2IMjIyMbkmCGh+EzCwKeWeAmErm0eetLm9RuM/bZs4gar7kT8DRN2DbFsuNavehqkHXgUZJtl+n7EXqe7af+eycVUKu+L9QxJ6cw3qK6YM+Aj+mw9XftGYqDAAQgAIEqIoAAWEWFTVYhAAEIFIKALO4m2pqbf6qRxSINWDJb6gUCB2nK8KuXatCzPhAYy5Q+b2Jif63n9wWFWb9Z+5tR/LMgEor7jkAweJ8+z2mTkUzpKKdrElCk/cnyLxRargHmPUo7A75yKsDST6tZjJmgoM19s9atefJTo8OEpmxuXJ7WOonEb/qHh22JANxcCUxMeGr/1rca/4xO/cUusjpLu4lTxpu5mDcCPT09IwpseeoIyGqvyXPdU4KJxHF6Bp4jUXwnHfPUuWct06mJUvnOk0Xtadod+jwti3Gtro1Pvc5nCEAAAhCofAIIgJVfxuQQAhCAQKEJxPuHhn7f2tx8stSmAxW5WYKldRpwnjjc1HRJIBr9djpPDQ0NCzXweZVEgX3S+ZlyfmPI8z7dNzT0xJRz1fzR0TpgtR0dHfO6uro2VjMI8p53AqNqv3+S2P68xIVxCRLTLc1S68+pDp6g2I/QkYsFU5P6jnNljXaIXia8X/3JrXlPeZUEmJD4J0uyv4vnQcpyVus++TORFldCBDRlN6rk/NkOiXdf1rqBJ+vFzkUqq7N1zsp0ervTye2dvTjTM3SZjn9rbGy8XRtxIQBuD4nvEIAABCqcAAJghRcw2YMABCBQBAIal8gcyHF+p4HG7jpem7LYm5aU5IDEcfaTGdFFGpD8SgMSWyA9ef9UzzWhkImJH5h6Ls1nm+76F618/5yum3USDgIQ8IGA2rW18REJ89fG4/F7dxoZGRpevDjT78pvaFrjHlrj7J269RM5JMkWrttTfcRl2vgn2B+N3pzDPXjZjoCEWRl9eSb859Qfyu8ye+GiKdc92wXF1xIgIMu9QSXjej0v7w6Hw8fIMvAytcUjdc5EQHt2WtPM5MzfnloO4jyFcY2eub2ZPHMNAhCAAAQqi0BOb4wqK8vkBgIQgAAECkFAuw3eKTHuBg0oM07DTal9e4WDwf8t64aW7dOmnQt318j1TI1qlm5/bep3DXRt9POMBIlvavBqgyQcBCDgJwHXtCVvo9ro8FpNJ7QNdzIdyXXOgsFfKEk/0jEpSKW6gDQJdZwT1KbfpDiWpvHB6QwEamKxTeobH5EX2wQoq5PfJaFQaPesHvFQLALWXmIm3Ol5eZta4EWywv2mjm6VXTbxbzLNdRoAnhaJRBZPnuAvBCAAAQhUBwEEwOooZ3IJAQhAoCgEgq67QqOVK3OIvE1i4Ts1fjlUfrd5Nmlgc6FGNWdmC0PxdAYd53pZSDwqvxlFx2xhcR0CEMiBQDAY0HT7oDbp2KbNZrpTIuBTmjL8XfmxFwQ2BTGjaGEXdbxOfz5smyPoL24WBMbD4QlZaj6nNeNsXcXMbvNOs3sEPW/vzB65WgoE1q9fP6aNt9aGE4mv6Pn3E1kD5mrNZ9O8z9a0/EWlkA/SAAEIQAAChSOQ8w+2wiWJmCAAAQhAoFII9GkBfycYvFL5eV5HIkO+ghqgdkgQuHBBQ8O+KX8h7fzboc9nmFWKmT2kcynDhzvDnvfLdH44DwEIlAQB2/H0SQn7X1W7XZlqu2kTZu1ewlW7/F8gofESWQJOsxJOezMXAprmOSYrzZXqW8fUx2YkkmJ9sPwdltEjF0uKwIbR0e5QPP5dle73lTAT1TM9Li3telfmmJi+m33BQQACEIBA9RBAAKyesianEIAABIpF4CkNQH+qyPszDz+TA/03e6HQcZZQWfvM09pil2gwOikIpk2/Rjv/1HHLhqGhZ9N64gIEIFAyBGxNP03tvVp9w7pcREAlfIlEwP+tvydrQ5v5JZOREk9IZ2enTQF+TP1jXw5JlbGgY5tKHBxYtsz+ZuuycwgSLwUg4PRu3PiSGwzac/Z2PTNt1+esTu2pQ9OIW7N6xAMEIAABCFQMAQTAiilKMgIBCECgNAnI2mcoGA5/UxYoq7OZJWjw2Sh/J2pQspesfRZogHKxvu8skSBz5jzv27GaGnYKzUyJqxAoKQJaJ/RbStCPs7bvraneRX3CR8dHR4/ZeopP2QhYHywl79mkFWBmz5sFP8fZtaW3983ymnEH98xBcbWABJIPyNra2l5Nr/+Oynkkl7il9tbqJRu7PucCCz8QgAAEKoQAAmCFFCTZgAAEIFDKBPr7+6MauF+lND6VydrHhAANSg7RVqJvkd9TdWRbpNymFb+ge24Z3bChW59xEIBA+RBw4677R7Xfb+aaZPUfr1Kjv6hhwYL9c70HfzLlc91HpRJ1Zp0GbC9bPG9X9dfnyAobcaiMKo9twKOdge9WkscyPWenZElNz8nydm2Kbz5CAAIQgEDZE0AALPsiJAMQgAAEyoNA//Dwz5VSG5xkc4dqe9B/0QD0AnlMa4GSmps2JD9fSiQSL2YLlOsQgEDpEdBupmuUKusbHteRdfMee0mgtn9xJJH4oPyHdKS6An3CpSXghcP3SelZnyOsRgV09Pj4+M5pA+RCyRJQOa9WO7G1AHEQgAAEIACBbQggAG6Dgy8QgAAEIOAjgYQGn8tlXfJIDnHY4uQn6rAB/oxOg5wJXXgolkj8SSJCLutbzRgOJyEAgeIS0FTgVdp59n1KRWeOlkvBgOue19rc/EXdo64g6XLUtlK+q+yPpgHfI7arZpHt1rDjXNI+f37HLO7Ba5EJBINBTw2hX8lAACxyWRA9BCAAgVIkgABYiqVCmiAAAQhUKIGm1tYbZJnwsxyyZ8JfvY6ZBvU2bUlXnGf0/89GRkZ6cggPLxCAQOkSmOiLRh9Qw/6G+od1KRFwUtibOdW2a3ggcMGClpbXL1myZJ4+Z/Y/cyhVddZJJB4zvjlmul5A3xWLRI6Vf8YLOUIrtrdQKCQTWcdejsmQPqtzvPnzZ3rGZr0RDxCAAAQgUJ4EeKCXZ7mRaghAAALlSMBZv379mCx9livxN+uw9fvm4jQ72EvIkvCu/oUL/6wAGMDMhSL3QKDECEQiEXs58Fu176j+5tKud5PfT4+Ojh5ZYlkpyeSEg8G71G9en6uVpfy1Bx3n4rbGxqNLMkMkakYCahM2ddtE8YxOD9JYcNOmeEZPXIQABCAAgYoigABYUcVJZiAAAQiUNIGkhU54/vwXtVPht5XSzrmkNjV4vV3mDX8IrF1r05yw/JkLSO6BQIkR6OnpGQm57s8lUl2dY9LCsnY6UtOB36+dww/P8Z6q9bZhaOhZLxi8TQKR7RKb1UJM/mxDkHN0z/kdHR3zqxZcGWU8Go02SDnfU0muzZZs+evR8hkD2fxxHQIQgAAEKocAAmDllCU5gQAEIFAOBBzbqVDrUd2mgft1SvCsp+/aoFQDl98NDQ2ZJSEOAhCoHAJOrzYFkeD0E2Xpfh25bQriOG/VD9p/aWtra6ocFP7kRP3nSol6V+mwaaJZXeqFyxvGRkc/kJpqnfUePBSNQI3cXno+mgiY0SXFXW0KI09ZheCMAXERAhCAAATKigACYFkVF4mFAAQgUPYEJq31XCcY/L5EwKdznI42mfG4DV69ROKByRP8hQAEKoZAsn/QpiD/0HqAn1SubHfvyT4jbSZTYsaFbjz+2bSeuJAkoBcn6ySw/kh8bQf1rC75wsVxlqkQPqT1Vt/S2tranPWm4nmwcU2NDrN+K9QO0RZnOBWf/hTP1dfXt7que5zKqiZLo4np+kOaAjxYvNQSMwQgAAEIFIMAAmAxqBMnBCAAAQjE+/v7/+G57l81EHlpFjiGZdnw/YGRkZWzuAevEIBAeREY126mj0ik+oKSvT6XlwTqF1r0UuFMTQV+k+6pK6/sFjS10v+C6zQAuEoC0Mu5xJwSWJfI/2X6bFOt0+7Onkt4fvlpa2jYf0FT0ze1O/QVLdocZvHixb5PW1Z9212i6JsV3wnKl4mPRXNaQ3NnldE7lQDbQCuTi6n8H9XB9N9MlLgGAQhAoAIJIABWYKGSJQhAAALlQiBcU/NjDShv1ELzuSTZBiu/ibjuc7l4xg8EIFC+BPSCIDrY0vJr5eAm9RHD2XKStHjyvP31w/bzEmP2y+a/mq+L7UgwFvuGBNZHZ8HBxgy7SWD6sfh+QEfLLO7122tYyXmnFwr92HWcixTZuXqifGd8fPwT+hzxI3LLv4S/twnKX2SV/t+K71cSHq/VrtTn+xFftjAXLlzYIKHcRMiDdGTLs037XZ4Ih7uzhct1CEAAAhCoLAIIgJVVnuQGAhCAQFkR6O3tfUkPoltcz3s2U8LNAkgDrGe1ecj3u0dGsFrIBItrEKgUAto1XErF5RKd/pSLFaCybW8S9pX//5I+c1ilYPAhH27vxo1d6k+/q2UY/pYjW0uGWf7ZGnP/oePzDQsW7O9D2mYVpCzw9pDw9kXtLv8p3XisjkYd85W+nXVc2tLU9OWmpqa2WQWag2dHU221+YzFeaAEQIurQ5/PVH39T6XnuxIHTYgrmIvFYm9Uej6aU4SO84KE0gdNZM/JP54gAAEIQKBiCCAAVkxRkhEIQAAC5UkgkkjcqcHU95T6TUmhL2UNqAGVxqYS/nTIAugpDVi+q81DntLprBsDlCcJUg0BCGxPQGvWPacO4Iey8Lt+FkLVWRIBL21vbNxn+/D4vpWA+tMbxelKsZ3VjuwmrqlM3hWOx83a8p0NDQ0Lt4ZamE+2FmFbc/MbNZCxaeLv04Ni76kx65kRUN52Vp15TygY/OyCxsa8WYVqmvFRsp58t8LeEqbiMyPUoLgcnEyP531J6bugEBvTiMXrVCbvVXr2mspg+8/2TJV7WWm8XmWG9d9mHvwPAQhAoKoI2KK1OAhAAAIQgEDRCMiib0N7e/tvErHYYo2hXqmE7KTD1lJK6PuYBi09GmxdqY0Bri5aIokYAhAoGoH+4eH7JDR9LSWuLFFCcnmB/bZEMBjV1MjP9/T0jBQt8SUesV7A/CUWDjdJvbJNVxbkktyU2NWgQvhfst4+MRIKHdja1LRciwuuUj+9Ppcw5upHgtoSbXSxzEkkTtZz4XyJXgeZ9mbH9i51pkkXP5QIhRKNjY3fH9Yu09v7m8V309BCbjD4DomL520XZ0pfS4YW1JdzZA24r9K5V1tT0x2h2tqV+a6Hem7uLMu/4/QC7d+V1yOnE9guZ/ZyzfPWxMPhn3d2dvIibTs8fIUABCBQDQQQAKuhlMkjBCAAgRInoKnAXUri/9VUrb0jweCBGlgt0MBuPB4MbtCD6r5BpirtUAmKpdvV1WXrPuEgUK4EHtOU1S9pmqMJVbtly4TqfL3EqfMlkPwzsHTpDwOaTpztniq87tgLGPW7V6if3U1W1m+RRLQ4Bw5JscsEJ/Mv1p/Q53cHE4nfa0ru79R/v5hIJKKyMhvp7u7eKG9ZtakMcdYqffWKo1mbl+wiAev1ivPNqgu76rP+5Ra0BLtTwo5zm+LZEQEwZFaHivMkpUezjtPHbde0tu3e+vtfttZiYmLih9qk5G8xx+mWELlJ/bFxmYurEWPb5GOveDz+OomwlykVyfLIFpjS0qe0LB/u61udzS/XIQABCECgMgkgAFZmuZIrCEAAAmVJIBqNPqOE24HLHwGNQ515GnTWy/rFXbJkSUns4CkrHkeD4HFlM5G/rBJSpRKQZdmg8vYjra9mUywv0JFx2qkJMFJFbErke1uHhh6pX7LkEVk9bdJ33FYCSQVL/W6/dsz9VGzTphYJROfqcutWL9k/GWu5NlkAXipB6lKJc/8IOc49Y2Njt0userCmpqZHO9S6NXoJsX6zGDijcrZMQpZU2mBgyZKA7rUxSoME3ANDnneClL5TtGv8sboxOXaZMQBLxXRn/YtZkX9usLX19kB0h5a9s77zvToOSOV5emxTzkzxc7imKP9QXNZod47rN27c+DeJmneK++hS5Xn95j4w3Qsas3YNik1gsL29RsLqwV4iYZaP56t+L82Vg/wrhMAvY/H49+0DDgIQgAAEqpNA8iFanVkn1xCAAAQgAIHKJpAagC6U1dRl4WBwQNP04qMjIzlZi/hNRhY587SW1if7otEH/Y6L8CuHwMDQ0MdaW1qaVYkvmiKwpM+g5+0p8eh/RkZGLpWnJ9J7rO4rKUu9SyWw2tpwH9ZRN2cinmdr4y2TcvV2/Z2IT0xEdTy7qalplUy7OyVajevY0g/pg0mITr+sCVWmOweGhzt03852KIyIxDsTwWzMYn9n69bq/vfW1tY+kgcr0LisJL+jvqtdgtrBSqvpb1vykSlhSa+OYzrev+r+SyWQDov1k1HHWdnmeavinjetbioOEwX3UKb3GfC8V7jx+KEitUTn5+m8dFGLPkfnebfpTdC1agcbcrwDbxCAAAQgUIEEEAArsFDJEgQgAAEIQGAKARvI246orqxQNg+1p1ws1kcNXefpaC9W/MRblgRM8ZhQPf6BxI9mCSHn5CCCJOu/1kn7eGt9/eUDo6NPlmXO/U+0sR2fV1//ubHR0Uf15d/VWxxqJ+XsT05CV9L3ZqHO1nE1Z/ybdCxUuR0mRWtCn1PB6tOULzoZkR8bm8hQLnnMRfCzIBVMcvOoO51Q6JMD/f2P6JRZG++oS8gQ9XqtR2lWhR+XoPYqTTOfTZiWH+Nih03jbVH9PUp/xyQIzmyd6jg1Ev1qJTzW6W9S+JP/2ThXBfeYrCc/1zs8fM9sbsQvBCAAAQhUHgEEwMorU3IEAQhAAAIQmErABu61U0+UwufkAD0YLInpyKXAgzTkTkC71/5Na7EtliCyp5SeA3K40wSXt3ih0LPaFOS5fG/GkEP8ZePF1qaTmdq1vS0tGyRtvU2ML5LQVZuD0Jotj9YH+d4PpYS/qJYY+Imm3F4l8c8E31mpdFkyEpMIeJOmNo/K38s63mwdbCoC+zMbodTEUTvSu9kJjFvD2fqyxyysPzMwPGx/88lha1x8ggAEIACBsiGAAFg2RUVCIQABCEAAAhVGIB5nQFphRVqo7IRqam6Jj4+bRdTXdGRcD9DS5ASDNRKx3q415Qb09dt2DjcjAWetWcsNDq7QuqH/1NIBa9RIz5XPIyWuGcMZbyr2yZTwN6r03SnR8oa46/5hJBr1a7prbGhoaEVra+sGxbda8b1R+T9QadDs3uLzMRZKk7H4s9Zl/PHA4OAdxS4f4ocABCAAgdIggABYGuVAKiAAAQhAAAIQgAAEciPgmBWfNrT5o0Sew2WhdpFkl0WZbjVhRv6W6e97JdyskxXhjfKfbuOFTEFV+rUtCpY2DbIdc7+iKa/3SVS6QOxO1Pd9dJjwWhLOxC6lK6r/bGfbFQnP+6M213jI58SZlZ+rOvSU/q6UNeo/BO08peMYfV+qo5jOJMi/KwE3atr7lQPR6D+KmRjihgAEIACB0iKAAFha5UFqIAABCEAAAhCAAAQyE0iKVNrVd1xWal+SCNShE2+QKpNxiqkEGgv1wEAi8eXWhob1AyMjJpQkT2aOrrqvasrrXSJwl3auPVMDh7doU40j9X0XHba2X7Gm8ds6fP0q0/6g563QWnxXa5proda4m1pnvP6hod+JzW2qh+drkb8LlC7bfXonHbbOX2GcrSHoeTZte42Y/I8sFG9TxCZwm1g5Nb2FSQ+xQAACEIBASRJAACzJYiFREIAABCAAgRwIbF3nKQfPJeglHLbBKQ4CcyXgykpNy9W1fF9zL5tUmV6Tk9LhOPtoc4jP6b7PS9yatvvqXBNT6ffJsu4W5fGWxvb2fUPx+IViblOD9zDhVdxtTGFioF9t2oo2rjUf4xK6LJ6nJbb92olErujt7X1J34vqxKZfCfiJHapXp4jNJUrwqwWjReeMifGxTUDy6eIKzI4xxbdc031/PjgwcP12EeTUJLa7h68QgAAEIFChBBAAK7RgyRYEIACBDARysdiwXRj9GshlSFoJXPI8y3dWRvIUlqVFcRiFQsGA65b9M7xo/GZbzSIRR1ZjSbVSaU57d2o6orWd8nU51n8JMbbOWEQba+Rb1Jg1O4l4d7Y2NdXLMq1eZXBSpjJKBW67zZ6vz483NDR0jYyM9Mw60sw3BFVLVGkyO6svwTLcCGe4t/cZ5ezzbW1tl8fj8X1V4c9Ufs9SZg6XEGW7e+fVpdrVmMrsdtW5ezXN97ba2tpVmgY+pojMErCkXMpi0tZQ3CccDp/hJBLHKYGnqH6aVeAOuxQP2035MYV5k/5eW9/QsMYsYnc4cAKAAAQgAIGKJlD2g4eKLh0yBwEIQCDPBNrb26ManFyjAXKX5gaZ5YA5G69tGatqOlVEA7kXtIviizpfdWtktdbWDg1PTPxBHNZPYWSctrgkI7vuul06me/x7pZ40n3QAPApz3X/W4O/3ymNkwPgbcox3b2p81P9Tv2c5bYtl2e6Z6ZzW27Y/oMx1MYMj29/vhS/j4+PPxcKhb6ntJkFlOVzprx6IVkmqUzGaiIR22iiLF0u9V8Z81R+YYkxUdXFJ7u7u4suPDRHo8v7m5rWqAz2kSXUYvVx9hvXymlGp/SHVP9ekJBUIwFwRj9zOblW/eqCYPB29Q3diqNtSvucGtxk/akLuq7f69VNjTdfn5PPhf7+/qgCfFw74q5V+7hCzFvVL+0aCIX2kBC4h+rHQcroXvIT0wNmv6RwlSEFut+eORvl19b0W+sGg336vl5hPakI10bC4XFt4rJJ1nZWYLEMQRX7UrJPlnXqWomkL4cSiT/EIpFa1Yd9deEQKeZLjY/6isVK6FJxaUuXYDGxStytezrF5Fnd84JYPKlzq8T8ZTeRGNV032E91yef5+mC4jwEIAABCEBg64APFhCAAAQgUBUETOir0aAk41pZdXV18a6uLrOuSA70qoLM1kyWA6NwR0dHzdjYWFm/yJOAsFHYy2HgGtKGEzUbN27Mat0niy5PUxJNoDCRpxxdTvXfMiYBwp1ihVUq+Q3rRcc8CXCWj4xO4orTPDAwvl5TKDN6nP3FmoULF9YkEomM1pEWvzaSMPE03/HPPsX5uyOsKbANageNyl+LE483Kmjl1GmVMFtjn9NEJS9Ov/wndG9MFs7ReCg0LoajEtJsem0lPItCsgpsVbtpUD6N0TxltkEWgvWypJ3R6lwC8biE0E0yNx+VuDriRSIjEb1gkOg+moYjpyEAAQhAAAIQgAAEIAABCEAAAhCAAAQgAAEIQAACEIAABCAAAQhAAAIQgAAEIAABCEAAAhCAAAQgAAEIQAACEIAABCAAAQhAAAIQgAAEIAABCEAAAhCAAAQgAAEIQAACEIAABCAAAQhAAAIQgAAEIAABCEAAAhCAAAQgAAEIQAACEIAABCAAAQhAAAIQgAAEIAABCEAAAhCAAAQgAAEIQAACEIAABCAAAQhAAAIQgAAEIAABCEAAAhCAAAQgAAEIQAACEIAABCAAAQhAAAIQgAAEIAABCEAAAhCAAAQgAAEIQAACEIAABCAAAQhAAAIQgAAEIAABCEAAAhCAAAQgAAEIQAACEIAABCAAAQhAAAIQgAAEIAABCEAAAhCAAAQgAAEIQAACEIAABCAAAQhAAAIQgAAEIAABCEAAAhCAAAQgAAEIQAACEIAABCAAAQhAAAIQgAAEIAABCEAAAhCAAAQgAAEIQAACEIAABCAAAQhAAAIQgAAEIAABCEAAAhCAAAQgAAEIQAACEIAABCAAAQhAAAIQgAAEIAABCEAAAhCAAAQgAAEIQAACEIAABCAAAQhAAAIQgAAEIAABCEAAAhCAAAQgAAEIQAACEIAABCAAAQhAAAIQgAAEIAABCEAAAhCAAAQgAAEIQAACEIAABCAAAQhAAAIQgAAEIAABCEAAAhCAAAQgAAEIQAACEIAABCAAAQhAAAIQgAAEIAABCEAAAhCAAAQgAAEIQAACEIAABCAAAQhAAAIQgAAEIAABCEAAAhCAAAQgAAEIQAACEIAABCAAAQhAAAIQgAAEIAABCEAAAhCAAAQgAAEIQAACEIAABCAAAQhAAAIQgAAEIAABCEAAAhCAAAQgAAEIQAACEIAABCAAAQhAAAIQgAAEIAABCEAAAhCAAAQgAAEIQAACEIAABCAAAQhAAAIQgAAEIAABCEAAAhCAAAQgAAEIQAACEIAABCAAAQhAAAIQgAAEIAABCEAAAhCAAAQgAAEIQAACEIAABCAAAQhAAAIQgAAEIAABCEAAAhCAAAQgAAEIQAACEIAABCAAAQhAAAIQgAAEIAABCEAAAhCAAAQgAAEIQAACEIAABCAAAQhAAAIQgAAEIAABCEAAAhCAAAQgAAEIQAACEIAABCAAAQhAAAIQgAAEIAABCEAAAhCAAAQgAAEIQAACEIAABCAAAQhAAAIQgAAEIAABCEAAAhCAAAQgAAEIQAACEIAABCAAAQhAAAIQgAAEIAABCEAAAhCAAAQgAAEIQAACEIAABCAAAQhAAAIQgAAEIAABCEAAAhCAAAQgAAEIQAACEIAABCAAAQhAAAIQgAAEIAABCEAAAhCAAAQgAAEIQAACEIAABCAAAQhAAAIQgAAEIAABCEAAAhCAAAQgAAEIQAACEIAABCAAAQhAAAIQgAAEIAABCEAAAhCAAAQgAAEIQAACEIAABCAAAQhAAAIQgAAEIAABCEAAAhCAAAQgAAEIQAACEIAABCAAAQhAAAIQgAAEIAABCEAAAhCAAAQgAAEIQAACEIAABCAAAQhAAAIQgAAEIAABCEAAAhCAAAQgAAEIQAACEIAABCAAAQhAAAIQgAAEIAABCEAAAhCAAAQgAAEIQAACEIAABCAAAQhAAAIQgAAEIAABCEAAAhCAAAQgAAEIQAACEIAABCAAAQhAAAIQgAAEIAABCEAAAhCAAAQgAAEIQAACEIAABCAAAQhAAAIQgAAEIAABCEAAAhCAAAQgAAEIQAACEIAABCAAAQhAAAIQgAAEIAABCEAAAhCAAAQgAAEIQAACEIAABCAAAQhAAAIQgAAEIAABCEAAAhCAAAQgAAEIQAACEIAABCAAAQhAAAIQgAAEIAABCEAAAhCAAAQgAAEIQAACEIAABCAAAQhAAAIQgAAEIAABCEAAAhCAAAQgAAEIQAACEIAABCAAAQhAAAIQgAAEIAABCEAAAhCAAAQgAAEIQKDqCPx/X/56sXy+g/8AAAAASUVORK5CYII=;clipPath=inset(3.33% 14.67% 6.67% 14.33%);" parent="1" vertex="1">
          <mxGeometry x="230.69" y="338.75" width="98.61" height="62.5" as="geometry" />
        </mxCell>
        <mxCell id="JrpFoXeW5vId14_0qBcH-21" value="query" style="edgeStyle=orthogonalEdgeStyle;rounded=0;orthogonalLoop=1;jettySize=auto;html=1;dashed=1;dashPattern=1 4;" parent="1" source="JrpFoXeW5vId14_0qBcH-11" target="JrpFoXeW5vId14_0qBcH-20" edge="1">
          <mxGeometry relative="1" as="geometry" />
        </mxCell>
        <mxCell id="JrpFoXeW5vId14_0qBcH-28" value="query" style="edgeStyle=orthogonalEdgeStyle;rounded=0;orthogonalLoop=1;jettySize=auto;html=1;" parent="1" source="JrpFoXeW5vId14_0qBcH-11" target="JrpFoXeW5vId14_0qBcH-10" edge="1">
          <mxGeometry relative="1" as="geometry" />
        </mxCell>
        <mxCell id="JrpFoXeW5vId14_0qBcH-11" value="Grafana" style="shape=image;verticalLabelPosition=bottom;labelBackgroundColor=default;verticalAlign=top;aspect=fixed;imageAspect=0;image=data:image/png,iVBORw0KGgoAAAANSUhEUgAAAV8AAAFtCAYAAACgB2knAAAAB3RJTUUH4AYXCTc2yHIlhgAAIABJREFUeNrtnXd4lFX2x7/nTsskmRRqCB1CQggqioXiKhZU7MqCFEFBpanY+66OHRHLgg0suHRBxV5+a0FsWHAVDUnoUkNPMukzc8/vD1h3VUrKlLecz/O8/2h4595zz/m+5573vvcCgiAIQswhMYFgVXhQnjvgZL8mPpfB/vR5ha+LVQQRX0GIIoERud11GLMAHP2bszOWhB3q+vQ5+T+JhQQRX0GIZLbbr5+zLHP77QD+DsB9gD8JgzEtJRS4kxZtrhKLCSK+gtBI9ozMa+cI64VgnFCHP19FmkelLCj8SiwniPgKQgMJDO16siZ6BUDL+iTKBHq+0uG8MWP2igqxoiDiKwh1VU+AyoblTgTwKABXA8OgUDl4kG92wS9iUUHEVxAOw45BeckJzvBMJvprBG5XDtC41Hkr54plBRFfQTgIZSO7NuUwvQVGn8gGBM3wbW1xNS1ZEhIrCyK+gvA/lIzI6Uhh9QGA7CiFxYfa7R6S/vKPJWJtQcRXEACUXJp7DGm8h/q9WKs3DPzs0vqspAVFW8XqgoivYGvKhuf0ZVbvA/DF6Cc3ADgjdV7BarG+EGmUmEAwA6VDup3ArN6LofACQAeAv9g7LK+HjIAgma9gO/YOy+uhoD8G0CROTShhhdPS5hT8IKMhiPgK9hDeS/OOUlp/Ekfh/Q87FdMpvvkr82VUBBFfwdLsHtK9rVOFlwHINEiTtkOpE1Pn5K+R0REai9R8BUOyc3SOz0Whtw0kvADQElp/EBhxZAsZIUHEV7AcPKany12tXmWiowzYvM46HHx765ieiTJSgoivYCnKKiqfBHCGgZt4fHJ55cssZTtBxFewCqXDcoeAMcHw2TkwKDCs200yYkJDkSe3YJyM99KcHNbqO8R2LW9jCCngNN+8gqUyeoJkvoIpKR5xZBKzWmwi4QUApwbmlw/t3lJGUBDxFUyJVwcng5FrwqZnhin8koygUF+k7CDEnZLh3U4j5n+Z2R8JPCplXuHLMpqCiK9gCvYM6pTqcHlWAGhn8q6UhsjVvencFZtlVIW6IGUHIa44XJ5JFhBeAEh1cvBZGVFBMl/B8JQM69qTQN8AcFgmoJS6IGVO/lsyuoJkvoIhYT8UET1tJeEFANZ6Mo/p6ZIRFkR8BUMSWN3tcjBOsGDXcsoCVeNkhIXDzpLEBELMs8NBbbxlLl8RgLYW7eJecnKXlFmFu2W0Bcl8BcNQ6ky+zsLCCwDpHKLrZKQFyXwFw7B7eFaKk10bAKRbvKt7qhyudhmzV1TIqAuS+QpxxwHn1TYQXgBo4g0Hr5QRFyTzFeLOvlpv8gaA7LIZ+caU5MQsmrE8KKMvSOYrxI2AO2WojYQXANqVVVQMkpEXRHyF+Ga+rO23BItptIy8cCCk7CDEhP2nEP9ow67rkHZ0aLrgl03iBYJkvkLMcWieYNcYc6jwMPEAQcRXiDlbx/RMZPBQG08vR4oXCH/EKSYQok1yReWZbK4TKiJNt9Jh3fyk6AfWuiAlWLCOFiEsnmFvpOYrRJ3SYbmzAIwQS+yDgSoC8hn8syLka00rKKSWpy7K32OF/u0d0rUDOZCtmNoyUTtiZACczvvWd/+2xpuYnUwUAqMShBqAp6TOK/xQxFcQIiE0g+Aoc+XuhD0+rGikJmM1gGVgfMMOLEvd3HIFLVkSMnCDqXx4Xq7WfAwDPRTpoxl0dMPHmgpTtrY4wsh9FvEVTEPFkJzMkFIbYbGtI2NEOYDPCfRJWOPjtK4rfyI/dDwbtGNQXnKCW/fXjLPBGECE1hEVdKLxaXNXPifiKwiNZPfwI9s4ObgQQG+xRuPNSaAlYP7A4cC7SXMKtsVm9tLGW+ZMGQjiEQD6AXBHUZGKU1xVHenlDdUivoJQzzJDwJnXG4rPgdYDmOgosUrUyhQ/APQOiN5NmZv/Pe37bxGj5NLcY4hxBRjDAKTFrGPEY9LmFj4v4isIdciMAk7fmawwEIxzIPXdOAQyb2aohQC9kjov/9tGie7QvFMV9N+Z0C9OvSlMyV6ZF+8Si4ivYNS0i0qG5fRTpEaDcSGAZLGKYcJ6HTFeISfP880u+KXuopvbnxT8YPSJew+Yz0+ZX/i2iK8g7Kfi0txWQU2jCLgC4E5iEcM/Jr9j0Ex2e+anv/xjyYH+onRYbhcAjwM410DK9G7q3IJzrTwyIr7C4cPXD1ValHuaIhrL4PMByAGR5pupVBH4dQ1+MX1e0acAwIPy3GUu/XcAtyKaL9EaRkg5XK19s1fsEPEVbEdgUFZzdrtGMWMMgM5iEcsE/QomzCTGKAaONHBTr0+dV/APEV/BNpSMyOlIYboeoCsBJIpFhDjxfeq8guNEfAXri+6wrj2J6FYwBkI+ihCMIFAczk2Zv6rQin2TjXUElAzLPZ2A2wGcFtmVooLQWBznARDxFaxF2dCuvUF4gIFTxRqCMVNfGgDgUUt2TUbXjplu154Euh/AALGGYHCCVQ5XesbsFRWS+QqmJTA8rxsz38fgi+XBK5gEV0IofAKAT0R8BdOx9/IeaY7amts16xtgvPWcgnDo6TnpviK+FoX9UCWFXds5yNGGEW5LpFozdFtmaquI0hicAiAVQBL2fUb7x1MZSoHfvkMPANix/9oF0C4G7yBgG6AKw8GqoiaL1pXGql+B1d0u59rqh9leR7YL1qKXJR8qdhvFiiE5mWGinhrII6JuAPIAdEUM17MyYwsRCgAqZPBKxfyjz5f0Pc1YHozUb5QOzzsO0NPAOEFiVzA5G1PnFbQX8TVTRtuvnzPQetsJAPUC0wm87wna1qjPBQDLwLxUAZ8lh8q/pUWbq+p7k93Ds1JccE5mpqsgB6QKFgll7fY0OdjeFCK+BiEwtFueJj4dwOnYt/GzWXfbqgHwHYAPHcRvJs8t/Plw/2D/et0XALSXeBUslib2Tp1bsEzE10iPxEFwlHi6/kWF6QIQLgDQ0aLetw7AG6x4btqcgh/+9//sGJSX7HHpyQDGQVYxCFZMfZkuSZu/cqGIb7wHAqDA0K69mNQwgC8B0NxmWUABa8xN3dbykfJWxX01qZdke0fB0i7PfFPK/MLHrdQnU612KBua3QxwjCojXAWgC+z6LSwjlwgPlGXuOAGgcwCW2q5gbZcn1dpqfTKF+JYNz+nLTOMZ9FcAHnHF31zyPLGBYI98g1NEfGPI/h32ZzFbc52fIAh1gwhJVuuT0aerPQERXkGwfebL8Ir4xvJpx3IooyAIAFnwa1xDiy/Tnz7jFQTBnuJbZbU+Gb3sIJmvIAhgoFrEN7ZPuyRxO0EQCCSZb4yfdpL5CoIABraJ+MbW4iK+giCAwJtEfGPbOjlBVxAEaOBXEd+YZr4UErcTBIGU2iDiG0vtBYv4CoJQmjInf63VOmXohcsEiPgKRqISwG6AgtiXGAT2ZwmVINT84W+TsO+8PAVQKsCp2Hf8lJyhV28d4OVkwV20DP7VCIVsu3OZEFtRJfwKxiYGNtG++uKvTLSFmXZrTbtrUjy7M2csr2z0bG5AlmdPakILpyPcmki10MyZirmDZmQTIRtAFmTzqN+hiZZbsV/GFl/mkGwNLkQua+V8Bv2kmAugaH2Y1XqHM7wpZVbh7pilE++vqQGwaf/1Z5cfBEdpQk47ClM2WGWDOIdA3Rh8HGy69JIYudyvn5OWLLHUTNjQ0lYyrOujBLpZdEOor9Ay8D0I30DzN+Rw/JSSlb+O/L+dMG06uF8/Z0nmzu6KdR8o9AajN4DONqo9LEzZ0nK4lQTY0OJbOqzrPQD5RUuEw7CdgKUMXqq1+jKtuMXPVsuSDkT50O4tNeleGvpEAg3AvpO4razA81KCK0fSIoRFfKMvvtcANE20RfgDe4n5Yw31kULos5T5qwrFJEDJiJyOFKZzAHUuwP1gzdrxrJTsglFmnsWYQ3yHdh0KonkSVgKBNzNhsWZenBYsWmqV7CdaFI84MikxFOyvCecQ4VwwMqzSN2a8lJpTcJXZBdjYNd/hXc8gpg8llGwrueuY+DUCXk+ZW/ANydKXhonVIDjKXLlngnAZGOcDSDC/a/C01LmFE0V8oyW+w7r2JND3Ej62ohTAfJB6KXVu/ndijkjH1BHpoPAlxHwZTH5KDDFuTZlf8KiIbxTYO6RrB6VovYSMLfiCiF8oT0paFIn1tMLhKRua3RVwjmTSVwDUwoxJPYBhqfMKFoj4RpjiEUcmecPBcgkTy1LNwFyGeip9Xv6PYo44KdjlHRJKaxNGEugmANkma36NVnxW+pzCJSK+kZ6DDsvdCaCZhIiFIBQzeKrS+vmU+at2iUEMIsJ+qEBR7vlMdDPAfU3U9BLFdKJv/sp8Ed9Iiu/w3GVgnCChYQXN5c0M9WhKsOx5WrS5Sixi5JJE194adAsRLoDxjxsDgI3K4TrON3vFDrPY2AxGXSehYAHRJRrv2xvKSp23cqoIr/FJmV/4ddr8gosV05EMvAHjrzRpx+HQAu7XzzSnHIv4CtGkHKB7fcHy7LS5K5/bv6+BYCJ881fmp80ruAhQvQB8bOS2MviU0lbbH5SyQ8SmP91GMfFLEgamohagp8ipH4rlpjVC9CkZlns6AQ8CON6oGqzBf02fV/i6iG8jCQzLPUkDn4nbmwTG50qpcb65+SvFGFYdYlBgeO6FzJgEY66OKCOlj0+ZU1QkZYfGDLST88XdzZEUAbg+JaegnwivtSGAU+YWLE5JTuzOwO0Aqg3WxBTW6s3dw7NSJPNtJKXDcn8F0E7c3rBO9Do5XOPN9KZZiGB8XpqXBc1PAXymwRxzYercgktEfBuTUg3LXUzAheLmhsx2J6bOK5gtphBKhnYbTMRPAMg0zMyZaHza3JXPSdmhoU8I5n+LaxuOj0LkOkKEV/gPafNXLgxRMBfE02CQpWnEPKX00rwsEd+Gp+civsYhDNC9KdkFZzadu2KzmEP4X5rOXVOWOrdwIrM6ncBG8I8kaD2LB8Eh4tsAgsot4msMtmnFp6fOW+m3wmbWQjSz4PxPNFxHgrDQAM3pXerueqsBk0pzUDosdz2ADuLW8YGBz5zsuCR5/i/bxRpCPWN3BIBpAFLj2IxaDXWCkTZwUuYZQloibhw35f1nalCdIcIrNITUeQWzteYeDCyNYzPcBD2LB2QZ5mgl04gvQcuHFnFJePH31PkFl9Oi/Foxh9BQ0hcUbkgNFpzKjMmI08s4Ao4obeK6X8oO9UQ2Vo/9NA3Ml6fOL5wvphAiScmwboMI/BKA5Dj8fFhDHWuE8oNpMt/0BYUbAPwqrhsTKsHqAhFeIRqkzVu5iJQ+FoSCOPy8QyE8g/3x1z5lpkFj4F/iulGnlBSdlTo//wMxhRAtUuYUFWmXpw+Ad+Iw4T8usCp3lIhvfRqr1NvitlFlF4NPS5mz8nMxhRD12ezLP5akZBdcAOB+xLgOzMCkspFdm4r41pHyxISPAMjhitFhr4bqnzavcLmYQohZDuqHTp1XcDeYRgKI5UvdZgiph+Lad9PNiYd3fROg88VtI2tWQPWXo9qFuDrhsK5ngug1AEkx+kkNRX1SZ6/8RjLfujwtmN4SN40oAdI8QIRXiDep8wo/BHA6gD0x0z/NT8fr5Zv5xNcTfAuEEGh/3i5XY65aVurClPmFX0voC4YQ4LkFy5STTgJha4xioGfZ6q5DpOxQ1+nJpTnvAnS2uGqjYDCPTJ1bNEdMIRiNkhE5HYnpIwCdYvBz61JqHLmx/pBImXNoSASjscpLuEuEVzAqabOL1jucjr4M/BKDn+tU5gmPkcy3Dmwd0zMxqaqiGIBP3LRBgz4jZXbhWLGEYHQCIzq3CJPrI2IcEeWf2l5T7chqsSi/XDLfQ5A5Y3klGK+LazZIer/weZOuETsIZsA3e+0OBwdPB1AY5Z9q6fHqGyTzrQNlI7NPZCj5GKB+bHM6+dikl4q2iikEM1E5Mrt1EI7PAO4cxZ8pVxzs7Ju9NiZnESqzDkbKrFVfELBC3LLO1EDRxSK8ghlJnLVqC7PuD2BbFH8mOaycN0nZoQ5oxc/KcrG6XQxcl/pywTIJY8GspM0uWq+degAIpdGKEwKN2zOmU0w2fTe1+NZWOOcAKBW3PDTEeD1tVuF0sYRgdtJfWvWT0rgAQHW0JtWq1j0+JnFp9sEIXJ7zBAPXi1seGAY2weHskfpi/h6xhmAVApd1HcjErwBRORiz2IeajvTyhupo9kGZfRAczvBjiO2GHOaqzBAuF+EVrIbvn4WvEdHVUbp9RjknjJSyw2FIfGHNZhAtkLrugS5+xDez6BMJVcGSAjyzcDoIk6PyjkTxzdE+bl5ZYRBIq7idC2Vgq6z0Jet7xQ6CpQW4vOhOAO9F4dZdypNzLhLxPewUZGU+CK9LpvvbpQFcRdPW1Eh4CpZOMRYhXEMYAnB+xLNfwgQR37pxF4CwuCMAwpSUmYVfiSEEO9D8paIAnOpiACURvvUpgSu75Ir4HoaUl4qKAMwTV+Q1vrIKv9hBsBMpzxeuYsLQSCdgrOkKEd86oJ3he0GotfXHFMTX06LNVRKOgt1IfbHoA4DujmxM0WV8bZZHxPcwpM1YsxbA1H3v3ux46bdSX1z9roShYFd87QonEfhfEYyrZmWVNDAabXVazfghR/ABp3ZeBqC5zfyuWmu6QcIv/uwcneNL4HBbKGrG4FQmR6oCJ/5pSgsKE6Pst/9AYAZvh6Yd1QnOLS2eid32hlaB/NDll7tGsjP4I4CWEbknaCyiUNIkKw5A2RXZV4LwvJ2cjsH3p76w+m4Jv9hROapz27By9gJxNw10I6ArgPYAUiMU9JUM3gpGMRE2AZwPoIC1yve1a7WW/EtCMgoHpmR01hlKqfcjNLtnrZGV9tKqdSK+hxUiUOCqnE8BPtkmyltc7XZ1kUwpiiYeBEdFk+zuHMaJAPXRiv9CjLZxbFItiFcxKB/grxyMpUklq3+mRbLi57ck7Mrsh0G4PUK3uzPl+VUPi/jWxfBXdc0G9E8AEiw/1SKa4JtR9KyEW2TZMSEv2RsMnsugvwLcH0CKwZtcCuALEC0FhT/3tWrznZ2zYx7T0xXQga9AODYCt/sp5flVPUR860hgTJe7GPSAxX1slQ++7jRjeVDksvFsHZOZmEyJp4HVIAAXA0gycXf2AviICe/UOFyv23FmFLiySy4r+iESSRiRzvNNX7NSxLeuTz4EvgdwpIWz3kG+6UWvimw2cqY0Nqs3s5pIwIUWnS2VA3ifGK/XJuj3mk5bU2absR2TfSeAByMgln7fjFUR+2SfrG748jFdj9CkvwHgtZzwgn5Inl50LMm+Fg17OA/Kc5c1CQ0m4olgHGeXfhOoklkvYKbnUp9f9Z3lx9nfzxnYtvVroJHlB0ZByoxV3UR86zP1GNtlHIOetWAUXZzy3KrFIqP1o/SKvCbKEbyWCeMAZNjZFgQsZ8L0auWab+WyRGBcbnfm8PcAGvXBBGnd3ff8mnwR33pNK7ssBfAXCz3Pf/ZNX3OUZL31sNgNbbyByoSJAN0OIE0s8vtnEjHPDinnY+nPFW6wpACPybqHifyNvM0tKdNXT4lEe5Qtgs4PBUInK31GTIQHRHjrPv6B8VmDAlXelSCaBEKa7Hz3pyuVFV3jQHhV2bjsWaVjO3Wxmh8kezAJilc1co/sAVJ2qE/WOyb7RCi20jHzRb6M1d3IDy3Seph0bnz2ANL8KAh5Yo16EQRjjmZ+cP9n+xbxhy7nEOOdRtyitqZWNWv+UlFAMt+6PGGcPMhiWe+TIryHeeBe3bVp2fjs2QR+Dwp5ktnW+3JBYZRyUGHZuC4zK8dlt7aCX6Q+u/pdgN5shF3cHg+fJmWHOk45mTHQOj2ivRVJ3tkir4cQ3nFdzoUO/wTwpWKNRuME4fIw8arSCdn+aO3wFUtCOjQRQEUjVCUipQfLi29gR3YfEFpbJiNRmJExZUWFaMIBxvrarOalE7JfgcLblhpzQ2xVikQC3xMI08+lV2efbWY/aTJj3UZW9Fgj7NFfxLcueSJ4kIW6E3Jy+GmR2QMI7zVZ/ThMPxN4sFgjqnQh5nfLJnR5q+TarM5m7UQNux4FsL2B/7xjxTU5mSK+hyk5gDCQ9tVJrXC9mfjM2k0S//8zxgCVT8i+CUz/IkJLC4210a/zHJp+DlzdZSKb8MV9i2fyywl8X0P7rxHuK+J7qNrfzi7HAdzaKpulE+sXRG7/y44JecnlV2ctYNJTAHbadxP9uF1egP9RfnXWh5XXZrUxm/8kh1KfB3hVg/quWcT3kJ0jHmChutvGpJ1r/yWSu//BenWnbK+qWQbCYKnJxv3qH2asCFzdeYipSpIzlgdBdGeDauCKRHwPOSUlOttC3Zkpe7Xuo2JCp+NIqS8BWbtrINJBND9wTed5e6/vYJqvB5OfWv06A9/XW7iBHsU3H9moHe8sK76BcZ1bEHNPi3RHOzk8U+IbCFzT+VRN6mMwmok1DJlPDnWGnMsDEzt3N0VrAQZTQ3YqcyZWlh8t4nsgo7rpTBCURaZ1n3mfXv+r7UsN13S+EETvQcEnU31DX53A9FXZxKwLzOBXvqdXvwvC8np/7ORUR4n4HqjkwJH7BjvufQHPt73wXtvlciJ6FY3clUqInaYR4/XAxM53GX01xL49UuihBgRmo062sKT48iA4QHSGRbKIWnYmvGbnKC6/rsswIn4RBIdklaa6FEAPlE/MWsBjMhON7GPJTVe/AcLK+n14QpL5/pHKVp17AGhqifIJ8H+pT+Tvsa/wZp3JzDNhk31ILMrgck/i5+XXdWxp2DjzQxMwqX6xyd3Z388p4vu/mS/RSSCGNS5t25JD6Q0dj2fwqyB2W2c8bXopPoahPjPyeuCkJm3mE+n19eiXN7D3184ivr8TX8scGV9bo9U7dhTesus65iit3gWQLImjZcjRSi8tuSG7kzGz3yUhZnqifgrqyBbx/Y/w+qEAnGiNmhl9ZqeDDn8T3qu7NlWkPgChmdRNYbENeqijg8NLA9d3yTWi71UnOF8GobSu/VGMLiK++6ko7ZQHi9R7AX7bbsLLfii4grMZ6CCJomVpDegl5dd36WG0hjWfXBQA8HKd/ZVZxPe/xlAnWSVLCCFsO/EtL+l8FxEGSJZo+asFk/6k/IZORxjPC9V0ELiOW7yK+P63cMMnWaQnK9Kf3LDBVsJ7Q6fTQbhHEkPbkM5MH+y9voOhZjm+J1cXAFhaJ7kBGvzCzWnBAe1liWcI4QM7RWHlDdmtwwjPA+AwYfPDBGxiYC2BNmri3QSqIM3lTPhjzb4FiDOgqS0IrQFkYt/x9QQ7Qsh0wvFB2U3ZJ6Y8tmqXcZrFMxh02Bf3DLRmP1RDjvWylPgGrs1qDuJ21nBK/ZGdYjBE4RcIaG4GoQWwEsBXxPiaWX2bnOZeS/782obecO/1HdKcTscxHEZPIvRkoBcB7W00/DlKh94pvvnI04xySktSSL1W7uJ/AIfdQ8RVWZmTARRtrb/AW2ra2vksJn7fAl2pTubaJvTE5ipblBtu6jiCmWYZeTyI8C+tsRjK+XYsMrSSm9t3VNpxCpj6EfHpAFpZ3Q+Y8b6vIv0CmrE8aIhk7saOUwG69nB/p5XulTplwze2znyZdE+QJZ4nX9Dj9hDewM2dWzDz40ZMAwj4FqBnyqn81Ywp22OakaVN+XU9gPUAXmI/VKCiY18Kq8Eg/uv+MoX1KhCEARW+vTMAjDJCezRjjlI4rPgqprYA7C2+AFliC0km2KfkwPxkHaZ2sSRIwBwCPZ302NrlhvBqPzSw/nMAn7Mf11WUdTqFCeMAXGi5BAq4PHBTp+98j617Jt5tSX1i/beBmzoVAcg5TKMb9Nm0tcRXwRriq/VndtDd0ps7nQNgqEGaEyJgdgjh+/dnncZML/zQwLqPAXxceUN267AjOBagqyyWDT9RenOH5Q2Zykfe4DwboAcO88BIbZhcWWX6ekdWcwBWeNlWkxJ0/tvyCa+/n1MBjxmkOYs1oVvylHWjjSy8fyTxiVVbfFPW352crDsS43oA2yziHm4Ftajspuy4z4h0WL1yWBElSrG1+CLIR1hj8Tn/QNPW1FhdfMsrN40GISfOn29vZdDFvinrLk59dN1qs9qS/Buqkx9b94/kcG1nItwIwnYLxEJbUqF5PCi+Sw9Tn1i7BoSfD/3JNGwuvoq7WiIjJPra+llvZiI4vh9TEPBSKBjOS5mydrFV7EpPbK5KfnTdE0GFHBBPBUx/5l//8g4d/QYoPbxxmL+wt/gSOIcIMP3FvMzq4ltRmXAdEWfGw76KUE6KRyQ/uu6K9Cc3lFjRvk0eWVfqm7z+OoI+FsRfmzsm6M7ArZ1PiWtepxyLD9NOe9d8QegKMMx+OR38nZWFt/SGNk0Avi0+9tX5GuHjkx9ZPwc2IPnRDT8mJ64/kaGvA7japDGhAP0C39wyKV52TJq05t8AbzhEG21edmBYoexQkjBpg6UPynS6XOPRwLfDjXw4f1RLqq9v8q8FsBHkh/ZN3jCVw+GeAH40Z16FThWOpAfjXHpYfIgGNuhcQUuIL9/cMgmEthZ4yfDjvsP8rAmP6eliovFxeIk5M2lvk7ObPLKuFDbF99jGlUmJ3JsI00wZG+Bry+7o3Dduvkt46+Bta9gnQpYQ30pnQjYs8ak0/WhlAahI3zsI4NaxnRDhoaRHNlxhlE9W45sFb6hOemT9RACXATDbihqltH6Rb2jjjUsJJyHpKwCBgyfnNhVfDZVliWVmSltafKH4uthmSzTZ98j6u6w8m2iQkDyyfpZS+hQQik0WIzkVHte98Xlw5dcy4dNDZL/2FF8ia+wARez4xaoBX3lH+95gHB8zWwJPJT+y7jaR2gOT+PCvXyuHOh7AzyZr+o2BOzt3j1OEfngQZ7Nv5ktAOytkvtUJtNqqwR4mNTqGNd75iZPWTxSJPYwAP7h2Uzgh2A+E700UJw7SelI87OVC6AOp+f6p7GBRuugsAAAgAElEQVSJzHdHU781D8tkf56bGBfH6FH8Q1J16AopNdSNVP/mPbWaTifCFybKts4J3NEh5ieUJ0zauA7Aqj87OIptKb5ld3T8CxEfB2KY+SKCZbPeypqqM0DcJOp2BO9Qii60yz7IkaLJI+tKE2srzwLxpyaKl0c4Di/ZmfDUH9vCpF+ylfhW3N7puPI7O3ygiJfCAhtNM/EaqwY3g4fEYgLEDh6a+ODaTSKnDUgmp2yvqHE7LwTBLJs6nVB+R8eBsf5R30PrpzH4GgCfg/ABMw/0Pfzr6w1L4E1G1W2d2oWdejKAwbDQSRwE3JP04Ib7rFdyyEysDLq2Myg5ygr/j+SHNlwvMto4yv0dMjiILwnoZILmrkra2bS7WZcRKjMFceCuDveGnboQwCWw2oGDxFssWXIIek6LuvACBUlVoTtEOhtPsn9DsSZ1FoCdJmhudmWL3aPNamtTiG/ZHR3/UhF0/0jA3QC8FvX7bVbsFINPjXa5QQGjpc4bOVIfWLeaCYMBDhnfwfjmeG87aUnx5RvaeMv/1mGScvASELpYY79eHGRPUGXJzBeEU6P7IQVmJT64YRmEiOJ7YMMSgO4yftxQVnlO+wtEfCOZ7d7V6cSKZOePAG6DlTYAOtiDJuTYarU+ld3RuimAqC2IJ3A5ucJ3iVRGh6QHNzxKRK8ZX8ToJhHfSIiQv0NCxd87Pq2UXgog28rZ7v98FBBK9qzZbbmk1+U+FQQVxax3UpJ/01aRyWg93MA1tXQFCBuMnf2iT+Xf2/cW8W0EVX9r37EixF8y9ASAyQr789btQtm+gxGthYI+OYp221tZmzBVJDK6NHlkXSlYXwUwGzmGGLhRxLeBVNzdfkBY4XsoHGOPbPd3l1W3OjwqirW+qc0nFwVEHqNP8gMbP2LCCwbPfi8q+VvbziK+9SozQFXc3e4eBt4B0MSm/m3Nz4qjVO8loJyDwWkii7EjWOO4BcBmAzfR4VRqvIhvHdntz0qp4PZvM5E/qrVBw28lSZYT38q7OrcFIS0a9tLEc1Ie3rJbJDG25QdWfIOx4wjDzLTsLG7iW35nx5YeBJcAONv2ns1suekzu0JHRM1pNb8EIfblB//G15hg3NO1Ga0qcjucLuJ7CErub9uZ3PpLAEfbNtv93UVhqwUqg7tHyV4rku7f9J1IYeyhfW/dbgaBjZv98ggR34NQcV/7o11h9QWAzqK7jdoI3+CBSm2jM7PEP0UG40eK/9evCHjdwLF0IfubJ4v4/oHAve1PgcYSABnixpYnIzoOy2+IaeOLhvbDuPslJ1XAe7EZ7Bgz8a28r11fBbwNQoqkurZIfTOjYKf8BP/GdSJ/8cXn3/QLCO8ZNZaI1KUivv8RXn+HXmC8D3CSfT6cqM+lLRiinBFpOxH4HZE+gwgH68kGjqdTy/yZzWwvvhX3tT+alX6fCT7JcG2V+WZEfImZ4k9E9oyB179pKcDLjHrOm5Mc/W0tvoH72uUB/H8A0sRd7QMvhANAYqRLjcGw41uxroHGmehpA7ftLKPbzxm1UsMDmW2Z8X8AmombHs5TLNaflR1ccES8lFKU7t9QIs5iHJK8NYurqj0BBnwGbN4ZzCAi40ZXVDJf9jdPZna+BSBTXLROU3SHlbqzy+txReG2srbXaG57y/YKJl5k0OZlVDzU4ShblR3YD1Xp8s4FoYfUclHXem+6lYLSXVXhisK2m0UidwYUEMWzDBtXrM+ylfhWOdpOBuN8cct6Zb4trdQdh8sV8cyXiNaIoxiPhDs2LwVgyFNYFPhM24hvxYPtR7OimySbrfdlqY9OyBlyRHzLQIW1InUGHGsCg/hDgx4x1If9mYmWF9/yB9scCeinZM1ug67EPZM6pVolIDnkDEfaRkFAPq4wrADT+waNK3eV23m0pcWX/c2TFdRCWPdk4ajjDFZbJvtNCibujfQ90+7YuFe8xJjU1KqPABjzpGON4ywtvlVu73NMnCPlg4Zf5FStLJMJ+fNrQSiLoH3kWHgDk+7fUALF3xp0lzPrim/Fw22uZPBwccFGChar9hbr0s4IFjLkuCCjl5oY3xu0ZcdYUnyrJ7ftDNCTkrlGIPMl7mKtpwmKI7jfMYu8GRyllhv0pVsWT83yWEp82Q8VCuNFAEnieRF4PgNZ1tJejuQLMod4iMH9N8w/GLRpzorK6mxDNqyh/7DK22YCMU4Wt4uUWMFSmS8T1hjBT4XYkBzcVFiZ0LYKBnzprpi6A/jZEplv9cPtOjHTJHG5iGKpzJcRUfFN3r9Zj2DU5MGPEAy6HJCBXMuUHcIq/ByIk0AMuSJ2pVRNymxnlWBUhDURtI2zcnX7FiJxRldg3mzI2FLoagnxrZzcehBA/cXTIo8mxzFW6UuN27kKkdyvzalbi4cYnk3GnIaxIZOaeokv+5snM+hxWZ0QrYuPtkoUpt+woQSElRFbDQLdQbTN6NMdbDbmWl9j7q5YL/GtSvT8HUAb8bKozduOtlh/Po9Y8qLUMeIfBoeNucEOgFZGfGdQZ/Gtnty2MwPXi4dF1XstJb5M/HnkbqaPFf8w+rNWbzdoy5yV69sabufAOouvJv0AEdxEgFxRu9pUPpbZ1jKzUKU/j5xt6Fj2x+60baEB2gu1w6ixBQdam1J8K6a06wnQJeJesUgelGXWTifetHUTgNURul16la/18eIhRp7pqJBxGxc23MZVdcwkeBIIJC/EYnKdbK2ApEUR+1SU1XkicYZPfw15KSif6cS38tHWvQn6dNlzNzYXg60lvsyvRMo2ClpOSDE0QcPGlSZOMV/mq+g2yUZjenWpeKStZQ4eTb5l8womFERmkxR0r3gs82gROcl86535kvHOSTyk+NZMyegGsGQbsR4UV/hMS/UH/Erk7kVXiYcYVHcdym3UtmmQx3hxcQhCDsctUuuN/cWsLPXAI+WcDUI4ErbRRMP50Zayk54Rx1kj0cAnhMM04lv5WGZbYsgm6XHxYu7P/g4JVulOwg0b1wF4MzKzWk6pcjjHiZMYMLskThYrRCLzVXQjCC7JRONyJVX6Qqdaa0rKT0TQPrfwdOOeSmtfNaEMw9Z8lWZTiC8/3TwZwBXiTXEcGGWtWrv3uq1fAPguQrdrWVWJCeIlhkt9jfuimGAO8a0Oui4B4BNvih8MDOTpPV0WK6c8FsGb3VX+ZIuW4ilGSny1gVfpkDZH5gtcIfvrxv1qVllVbKlVD96SrYtAvDxC9kkjOCaL5BlJ36i1YeMJ2vjiWzM1oxuA3uJJhpgpXWqp/vihienWyNmHRlQ90fpU8RTDzGwMu+MhExnu0+c/iW9Yq8vlhZdhrvN5apMUK8Wn94YtnxDh3QjZh1jxrLIpmc1E+eIsbn44Gehi2OWbQIXxyw6Ei8WVjKNV1Zww0GqdCoX1bQAilYm0drn4n8xGXc1pD2rSMjsDMOzySAUqN4H48lOScRroia0w1mqB6ruxOJ8VPRoxGxGdXTk18x6RwPihibsZO4608cU3ceK2J5lxv7iTUeZzOKFiWivLbSSeuDvNTxE8zpsId1dNyxwlDhMfiFSeodsHx27jZ74Akq7bejeApyXzNMpF4y0XrP78Wq1wOQjBiNV/gekV0zIGiBTGIUcg9DByDIUotNMU4gsA3j1bJwKYJ25lAKFiDC19vE0Tq/Ur6ZqtPzDwUARv6SKoxRVTM2Xf39jLb19Dt86lDHfEkTp4ZgLtdW+9nIB3Zc1t3C+vy6WvtGLIJrbcej8RfxhBW3lI8auV01oNFEGMDdVPt8kCcYZx4wdB37ate0wjvgBAYxFMCKpBAJaKi8Wd63mmdTbb+c3HBiNco1xDQRE7bggA3CAsrHwq8zZxmxhklRzqa/AWhqqatbreaCcYH3Yzdbpxc5W3Sp/NwL/EzeJae2hVWVFtyRdKaRM27nUAFzBQFlnf5kkV01r9kx9v4xUHiqa2kcHFF14Aj1XvaPUWv9jMMNsm1HltJE/N8lQ5KuYDuEi8LW6s9+7clk1+hKzYuYpnMgaQpjdAiOim3AwUQNHwpPFb/y0uFHkqn261HkAHkzT3x7DSZ/rGb99h+Mz3N5WeuKbGu3PbYAZmibvFjY7VzVoNtWrnkiYUvw9gCEDBCGcYuRTmZVVPt7qLF+a5xY0iR81zGd1MJLwA0MOp1ceBqRnNTZP5/pZFMKjmuVaPMeMGcb24sDrBsS2PxiJo1Q5WPttqIDEWAHBGYY68hhSuSxhX/J64UgTG6pmMWwhkvg2OGIVhhE5JvnpnsWnE9z9UPdPqfgB/E/eLw6ART0gYX/yslftY9UyrSwHMjI4AAyD+GGG6z3vNtri9TGYGVT/b6kQAZ4AprEi97pmweYW5xinzE4BPMWUcAcs9DjqJxm6tNJX4AkD1s63GMmgawC4IsaQ4IUln0cjtFVbuZPUzGQOYaCGAaB5Ps5SJp3mp+M1YzSbYD1XVstUFCriLgZ6/02PiWxPHFU8xw/jsfaJDWkJC7Q4zxz8RLfKM3XoJxWGz9UZvRlL1TMbJILwKQHaWii13e8cXW/4z8Irpmccord8B0CrKP7UVoJcdFF7oHrfjp2j8QMkz7dITUDuMgYkgZB80IWbukzhh+zLDZ73PtbwCTC9YwM383vHF95pOfAGg6vmWHRGmNwEcIZoYM8rCDp2dfNWO7VbvaNVTrdqzi98ixpEx+slVRPwuGJ96qHYpjd1b2tAblT/dPMPhcAwgwjnMOAd12fmLaZJ3/LY7jC++GR8DsMJ+yszA4MRxxa+aTnyBfee+1TjUbAZdKLoYM5+Z4x23fYQtevp4G291YngawLE+WzAM0DoiXsGMfDCtYgqvc2hU8P9uU+hg0mFqDge1BdBu/4OiF3DQDPfgfQWeSRxXfLWRx6Py2TatiUIbUY8VUwYnQKSPThi7Y63pxBfYV8uqbpXhB3CXhQbF0JoEjVO944uX2KXDVc9ljAThGQBJlh1UpoGJ47a9bmjxnZ5xEwFTLGb6bxK2FZ8Yq3X0ERVI8kN7xxbfDcX9Ad4i2hiDh6fC0zwdtnnh6R1XPIvCqieAzyz6OH3ZW7ztDYPP0YkAK35teUJ1q4w7Yhe8UaLsqdZNnW79IjFfIBoZ9WC4PXFc8SM26zNVP59xGRiPwhove6uJcFPCmOJnDN/Q51r0Z1L/Z1HXqqGwOiphwtYi04rvbwM1PWM8Ex7Dvu+rhSjNAgmOoxPGbFllt46XTc9s5iR9LwFXAjDr12ufEhzjzDJ+VTMy3gVwtoXnk0sTrizuF+3lZzE596pmRkYeA7MYOEZ0MmosS0grPpEGI2zHzlc9m9EBCneDMALR+jAj8mwF4Y6EK4tnx2OdaYOSqRczczisC2KlHXGbWREPS7xq+/xo/kZMXop5xhTne7YWn8CEm0GokJMponL1qi5teYtdnzze8cUbvGOLRxMceSA8Z3A/qwDxgwnBcI73quJZZhFeAGCtrwOBrB5PRPRQtLdwjfnTq+rZjA5w8tOWnrbEsV6lNI7zjN3+s90NwdPTU6uUexQRJoDRxSDN2g7GU0GP89mUy7bsNptNK1/KbEvh8GoAHlv4ENFtiVcWR23firhNHSqfb3kJEZ4EkCGaGUGHAX7yprh60+DNVWKN/b72QsbxCriEwYMAtI3xz2sAnzLjRa/Tu5hGbag2bWnnhZbPAdY7TfsQ7E6o0R3o6p1ROfk4rnUbntMkpbradTsY14PkhVwEed575fYxYoY/+Jsfqqp1y+MJOA2EU8DoEyW/qwV4GQNvk0O96h1VvMHstqt6vmVHEIoA2GofFwbfknjljqisZzZE0bzypcy2hND9YBoB+TgjQiPLI7yjd8wRQxwisKZmeaqSAz2IcSQD3QnoDqAT9u0jUdepdS2AtQysJsIKAn/hcdIXVtv0qOrFli/Bmmt7D0dxgs/VKRozSUO9sSyf2byHg9VkMPqLNDSaCkV0vGd08UoxRf0pm57ZzOMIZ4RYeZRDpxKgNCgNGsTQQWIqVqR3eRxJm81cSqjT0+XFFkeFQcsBY52BFrtEBld5R29/IfK3NSCVL7XoQ0R3gnE2LL6kJcoUJLiDvejSPWViCqFBswMGVb/cYgmYTrLtJBJYnjB6+7G2EN//UDOz5RFa0y0gHmbbp27jh/jDhI3F51r13DchyuWGmS2HgTHX7nbQRMcnjSr+LpL3NHR91TNq+8/eK4pHEjvymPhpRPZ0W7vkLmdWtW35uNhBqLfnPN08GYzJYglAgSO+ysNUU3p+sZmvhtSlTLgaQJ64RL0G+uqEUTueEUsIdaV6ZovHGLhRLAEQUOIJpGTQxDU1thTf30+Hmv8FoBEE+iuD08U9DjvSIWK+IGHUTjk4UjgslS+36EuMpZDVR/8NIabzEkZvf8f24vtbNjw1y1PlKztHKQxnxgDIBj6HjCkwn+UdtfNzMYVw0JianplY7Qn9CBjmy0CjMMt7+Y7LRHwP4jS1CeH+GjgfzOcBaC7+8idKtdanJo3e9YOYQjjgE3pm8yeJ6DqxxJ9jJyGxeQsanF8r4nsoIfZDBTs366HD6lQQTgVwIgCf+A8AYCfp8EmeUbsLxRTC/1I9u0V/aHwg5YaD6Irik7wjIjNztM0aWl4IR21Vizxm6gXiYwHkEpDLQFOb+tFmQJ+WcNmuVRJSAgBUzcpsRxxaDjmJ/OA6AtzrvWyHX8Q3AgRmtWzhJJ2jWLXV0NcT6Dgbdb+YQP09I7f/ImFlc1GZmuWpTitbSsDxYo1D8kXCyB1/EfGNMLUvN+uplfrWZlOuXYr0me4RUgO2ebnhObCtdixrKEFPAjehwY3f6UzE949OOKvFDBBfZbNul2hNZydetuNr8QBbCu94gGUNeF1nCcz9vCN3NfoAVymq/zH7ZdcdBOy2WbfTlOJPamY3HyweYDPhndPsXICniiXqkbEqHB2J+4j4/oGUy7bsZoX7bHgMUQITFtTMbX6beIFNEo25TY8HaAEITjmGC/U5YkjEN1p4Mnc+A8COR/EQMyZVz23+JPvFNyyd8f6zWbZm9S6AJLFGfcsOkTkIWALsQAp0CkKaaRz2HQFjQ+/CdTWdm7/BC9NTxRssKLxzm3eBgz6GLClraHyUiPhGkcQRO74C4SnbTq8UzqsJOr+vmdPyCPEGCwnvgmbZIHwKQhspIdT/YsICj8dzRkSSPHHHQzzgFjZPrgniZwAdbGyGCgJf6Rm+a4F4hLmpmde0K7P6BPuOSRLqR4iY7vJcuiNiW2yK+B42U2hxBjR/YHtbMaZ60lNvpbMjt6WeEDtq5zbvoQnvQ04LbwirNakRiUO3fxPJm4r41iVjmN90JjNdLpbAClLh4Z4he+WLODMlEHNbnAnSiyB7mzSE5z1OujESH1WI+DYk6Zubml6jXL8AyBRroBpEt3su2TmVCCzmMDZV85tfQeDnADjFGvUinxWu9V6y69No/YCIb10V55Wmp0PTh5CXlP9xnf9jR+gq7+C9G8UWBkwY/FDV2U3vI6K7xBr1ogyA31O26ykai2BUI0hsXQ8BXtBsCoCbxBK/UQ7Q3zxq51M0GGExh0HUY15mM7cKzgX4DLFGnQkR86ygQ92VPHhncUzSF7F5PbKJ97I8NWUlXwOR+bzQMnYBvnNAXeUesuMnsUZ8qVzYpLfS6hUAbcUadSJI4LkMxwMJQ3asjencUWxfP2oWNM1lou8BJIo1fp85gDHV4wndTxeVlIg5Yl9mqOnW7HowHgbgFosclr0AzdDO8FOJA/dsjkcDRHwbUn54pdk4AM+KJQ7ILhDf7Wm++3k6BSExR/SpWtiyI3F4JoCTxRqHRIPwKYP/meD1vEbnba2MZ2NEfBvq8K80m0/AELHEQV3rF3D4poQhe/5PbBGlbJdBNQubjQXwKIBksciBywoAPgfRW4zQYiO9IBbxbajjL2yeXAO9DECeWOOQlvocwP0Jg/f8S2wROWoWNM1lhacAnCrW+L1pCFjOzF8T6Au3O7zEqGUwEd/GlB8WNssB+FsAKWKNwzraMgY94Bm06z1ZH9yIR9nitLSaWuc9IL4agMsm3f43/rvJVSrAFQDtBmg3iHcT41cARVAocO/evTbaS8REfI3ymH21yUBmWiS2rHsgMfBkQlL6K/Kpcn1mWnBUq2ajifkBAC1s02/QQu+gXZdYNCERGp0BL2ryKEA3iyXqxQ4AM7XiuL1tNoX4+KFq85oMZND9AHJs1v0yzeiWOHj3FhFf4cAB8imctbubvgtAFrU3YPIA4DUmzPT8vPsT8tt0D+UDie4RzYaA+e8AutrRBkR8pXvgnhct2z9x8wgFy5vNfLVBfAHwkWKNBrMFhDnM6sWEv+5cbUs/WpyWVhNWlxEwEaBONvaFNz1/3X2hpR8uEu+Ro+q1tPYKjmWQbfsarUEAvgVhMYfojYTBu4qs3uHgoiZ9tKJxAAYD8Nh8/Le53bVH0nmBXSK+Qp2pfa3pcQwsgXwBF0kvXQnGG4r4HWf6nu+s8vFGzevp3QE1BIwhADrLQO978DLx2QkX7/nA+m4tRD6oFje9EMyvAnCINSJOOYDPGfyp0o5PXXrXv82yqQ8vhCPkbHK8JpwBxiDIGvEDCdJU98V7rrNJX4WoZMCvNxnNwAti46gTIPByBn0Pwnca+lvvRSUbDCG2n8JZu7tJDhGfzESnY98HEXIo6cFZ6Q4lHkuDN1eJ+AqNovr1JjfTvk8/hdiyh4ECMApBXAR2FMGJIo9yb4rW9/zlb7Zo6eFQZ2Z010xHE/PRIBwJwCvDUSeqCLq3++IS2+yMJ+Ib7RLEG00fBvPtYgnDUAZgCzEXM6ktBN7BxDtI0x7GoY8EJ8CngTQipBM4jZkyQNQZ4CzIET2NnCbwpZ6L9861U5dFfKPuU6CaN5p+SmDZcUoQDiRCjCfcF++50W79lnOdos29IOrBOWIIQTig8H7iSt9zqx37LueRRZnQkU1OgKz7FYQD8asrWDvErvs+S+YbZbSiC0CyiZcg/IFq0mogDS7faVcDiPhGfW6hz5cNFAXh9zkJgFHui3Ytt7MRRHyj+Wh/O6ULGLnyWlMQ/gsT3ZJw3p4Fts/LxBWi6WXqLDGCIPyOSQnn7XlczCCZb1Qhor5iBUH4TzKCOe7z9t4phpDMNxb0ERMIAgDgHbdv7yg5QkrEN+pUvt20NYC2YglBwDdut9u2S8oOhpQdooQDfKK8aBME/tYdxFl03vYKsYVkvjGBCL3ECoKtZRf40q1Uf6Me3S6Zr2XVV+fJ1hmCjYV3qSfkOJfO3RUQa4j4xtr5ukLeLQj2nPZ96ClPusgu+/I22ExigigI74ctk2rDNQGxr2BD73/P7U0fSKdsqBZbHBqp+UaBYLgmW4RXsGEu94q7vPQiEd66IWWHaDz7ibrKckbBTi7PjAfcA/beI+t4RXzjO51g3Y5JEl/BFtSAMcZzdsksMYWIb/zTAEXNxQqCDdhNhItdZ5YsFVOI+BqFFmICweL8EiY+33tm6XoxRQNnyGKCKGS+YMl8BctCwBsurfqK8ErmazznJLSQNb6CBakF0a3O/iVT5cWaiK9RSRETCBZLd38F8RB3/9JlYgwRXyM7qluMIFjHnbHYWYsr6NyyvWINEV9Dwwy3rDQTLEA1QLe7zij5h5hCxNccmYKSzFewBBqALCOLErLaITqI+ApWIJGBdmIGyXxNlPrKjv2CVbIzlk3QJfM1DwySrfQEa/gyc7lYQTJf8yS+pCvFCoIlxNfBcgqFZL6mkl/JfAVLaK+73LdRzCDia6a5mkzVBAu4MYrpvK0yi4sSUnaIRt6rsF2+vRRM78cE2btBMl+TZQzg7WIFwQKI+ErmazLxVVRMkvoKZs98mVeIFSTzNZfTgorFCoL51UH9W4wgma/ZMob1LHs7CCafwDndvFzMIOJrKsLAGiXbnQrmJp/6BPaIGUR8TYUHZRuC5AsCcNkw7/+RwR8Q4yIQcsQbTDuOn4kNoovUfKPhtqcgBMY6u01TQTzNVVHWy3Ny4A53v0BXdnB3Ir4boB/FK0w2mKQ/FStEWSfEBNEhuNS3CMBfbSK7W4horPOksncP+idfeVsHw84zwNyfQKdBDhk1MrVOt6s59dpTJqYQ8TWj+N4J4EHLJ0jAC44a5y3Uf29pnf8Rg4JLE3uAnCcTuC+AvgBaidcYZlg/dJ1UfpbYIbpIzTdaTzWmH9nCi30JWMvQY50nVXxc739LYKDy3wD+DeBJAKj+PLWTE9wXjD5MfCIY3SBlsThNZPCmWEEyX/M68LKklqGg2mZBG5eA8ZCzPDCVzkZN9OzXJCVUE+zODj5CsTqCwd0BHAGgiXhXVAk5XboN9aqQrzRFfE1cevjcVwQg2ypBSaDpjhD76ZTArrg91L7ytg6FXN2ZkEPg9gDagdEehHYAWorXNVoR3nWdGDhXDCFlB3P7sdJfMJMFxJff1krd6ulTVhh3m/ap2gJUbQHw4Z+FGd5a+NorrdsSo5kGpRPQBKB0gk5nRekA0sGUDLCPACcDyfj9ksBqAqr+MA2vAtDNDskKAbMkciXzNX+q+HnSSCb6p1kVF8TvMjnud/cp+9b2s5gvkyaB6TaLd3OPM1jemk5BtUSvZL6mxqHog9C+E2DN9OIoxMBrUHqyu3flDzKK+wOltuJvIU/yCWD0s24v+XkRXsl8LZQxJX8NoJcJmhoAMNOJ0OPUt/pXGbkDSNOXyS1CwA8AWltxouYMhTvRyVWbZKQl87UGCu+ADS2+XzHTC67kxIV01HY5qfZQmUrf8h3BZb4h0PwxALelHizA6yK8kvlaipplSUcqTT8ZLNA2EvgVTTTT07u8QEapnini18mXMGMeLLQOmVkf7+5b+Z2Mroivpaj92rdh/7KoeLIZhFcRpoXOPoFl+z50EBo8pl8ljyXCs9aIIX7H1bviPBlVKTtY8AnHcwHcGeOfDe/b0IbfYdJvu06o/EEEN3K4+5RPD37lawLih0wvvYZkPIoAAAKDSURBVJrvkxGVzNeSVH/jy3ZoXRTtnwHjOxC+IvCXDpdnKR1b9/0WhIYR/DrxHoD85lUAesPVq/wiGUkRX+sG6TeJX4KpT4RutwfAL8S0UhN+BsI/uHxVP1AeasXScShBfJ08noinAXCYzS21oqM9x5fnyyhK2cG6Tzmm5xg4nPhqAKUElDBQBmAzMW1i6M1EtJE1bXRqvZpOrNwqFjVQCaJ3+bOhZck7mXgOGB4TNf1pEV7JfC0PfwpnTXJCuwP9Pw87KuGpCNBRkKVeZp7dfJt8MpgXwhx7FW93Otw5UpoS8RUEazxkv/K2DjloIRCxElN02kkY5T6+4mUZMRFfQbCOAOfDHa5MnMJM1xq0iZ85j6s4lQhaRkvEVxAsR+i7xAHMNANAGwM1qyLscPRI6Fm2RkYovshJAYIQJZzHVb7vVO7uRDQDtD/VifPFxDeJ8ErmKwj2yYK/TzwHjCcZyIpjM/7lPLbyTPnYRsRXEGwFr4YnVJJ0HUj/DSBfjH9+lzPER1Ovqs0yEiK+gmBPEf42KSOs+O8ArgBisi44zExnuY6r+EisL+IrCCLC33rbhpS6mcBjACREL8jpTsexFQ+LxUV8BUH4XxH+ydsmFMbVxHQVgKYRvv1bjmMqL5Q6r4ivIAgHE+Hvkagp8VIGrgJwbKPvBy5yKk8vOrqkRKwr4isIQh2o+Sm5u9I8mpgvAZDZgFsUOxy6Dx1VvV6sKeIrCEJ9s1eGCi339oFDDQTjbAJn1+EfBTRTP/excgCqiK8gCJER42+TMsIu/ReATgdw7gGy4iATnefqUfGhWEvEVxCEaInx957OYafqyYyeBD4CjPnOY6pni2UEQRAE4QD8P6TFdQxEZIBXAAAAAElFTkSuQmCC;" parent="1" vertex="1">
          <mxGeometry x="80" y="327.5" width="81.74" height="85" as="geometry" />
        </mxCell>
        <mxCell id="JrpFoXeW5vId14_0qBcH-19" value="File Server" style="image;aspect=fixed;html=1;points=[];align=center;fontSize=12;image=img/lib/azure2/storage/Storage_Accounts.svg;" parent="1" vertex="1">
          <mxGeometry x="540" y="674" width="65" height="52" as="geometry" />
        </mxCell>
        <mxCell id="JrpFoXeW5vId14_0qBcH-22" style="edgeStyle=orthogonalEdgeStyle;rounded=0;orthogonalLoop=1;jettySize=auto;html=1;dashed=1;dashPattern=1 4;endArrow=none;endFill=0;exitX=0.502;exitY=1.016;exitDx=0;exitDy=0;exitPerimeter=0;" parent="1" source="JrpFoXeW5vId14_0qBcH-20" target="JrpFoXeW5vId14_0qBcH-19" edge="1">
          <mxGeometry relative="1" as="geometry" />
        </mxCell>
        <mxCell id="JrpFoXeW5vId14_0qBcH-20" value="Azure Monitor" style="image;aspect=fixed;html=1;points=[];align=center;fontSize=12;image=img/lib/azure2/management_governance/Monitor.svg;" parent="1" vertex="1">
          <mxGeometry x="88.87" y="610" width="64" height="64" as="geometry" />
        </mxCell>
        <mxCell id="JrpFoXeW5vId14_0qBcH-25" style="edgeStyle=orthogonalEdgeStyle;rounded=0;orthogonalLoop=1;jettySize=auto;html=1;dashed=1;dashPattern=1 4;" parent="1" source="JrpFoXeW5vId14_0qBcH-24" target="JrpFoXeW5vId14_0qBcH-20" edge="1">
          <mxGeometry relative="1" as="geometry" />
        </mxCell>
        <mxCell id="JrpFoXeW5vId14_0qBcH-24" value="azure-monitor-exporter" style="rounded=0;whiteSpace=wrap;html=1;" parent="1" vertex="1">
          <mxGeometry x="235" y="622" width="90" height="40" as="geometry" />
        </mxCell>
        <mxCell id="JrpFoXeW5vId14_0qBcH-34" style="edgeStyle=orthogonalEdgeStyle;rounded=0;orthogonalLoop=1;jettySize=auto;html=1;" parent="1" source="JrpFoXeW5vId14_0qBcH-30" target="JrpFoXeW5vId14_0qBcH-33" edge="1">
          <mxGeometry relative="1" as="geometry">
            <Array as="points">
              <mxPoint x="475" y="130" />
              <mxPoint x="660" y="130" />
            </Array>
          </mxGeometry>
        </mxCell>
        <mxCell id="JrpFoXeW5vId14_0qBcH-35" style="edgeStyle=orthogonalEdgeStyle;rounded=0;orthogonalLoop=1;jettySize=auto;html=1;" parent="1" source="JrpFoXeW5vId14_0qBcH-30" target="JrpFoXeW5vId14_0qBcH-32" edge="1">
          <mxGeometry relative="1" as="geometry" />
        </mxCell>
        <mxCell id="JrpFoXeW5vId14_0qBcH-36" value="GET :443" style="edgeStyle=orthogonalEdgeStyle;rounded=0;orthogonalLoop=1;jettySize=auto;html=1;" parent="1" source="JrpFoXeW5vId14_0qBcH-30" target="JrpFoXeW5vId14_0qBcH-31" edge="1">
          <mxGeometry x="-0.6071" relative="1" as="geometry">
            <Array as="points">
              <mxPoint x="475" y="130" />
              <mxPoint x="290" y="130" />
            </Array>
            <mxPoint as="offset" />
          </mxGeometry>
        </mxCell>
        <mxCell id="JrpFoXeW5vId14_0qBcH-30" value="blackbox-exporter" style="rounded=0;whiteSpace=wrap;html=1;" parent="1" vertex="1">
          <mxGeometry x="430" y="287.5" width="90" height="40" as="geometry" />
        </mxCell>
        <mxCell id="JrpFoXeW5vId14_0qBcH-31" value="cariad.technology" style="image;aspect=fixed;html=1;points=[];align=center;fontSize=12;image=img/lib/azure2/app_services/App_Services.svg;" parent="1" vertex="1">
          <mxGeometry x="256" y="10" width="68" height="68" as="geometry" />
        </mxCell>
        <mxCell id="JrpFoXeW5vId14_0qBcH-32" value="capgemini.com" style="image;aspect=fixed;html=1;points=[];align=center;fontSize=12;image=img/lib/azure2/app_services/App_Services.svg;" parent="1" vertex="1">
          <mxGeometry x="441" y="10" width="68" height="68" as="geometry" />
        </mxCell>
        <mxCell id="JrpFoXeW5vId14_0qBcH-33" value="azure.status.microsoft" style="image;aspect=fixed;html=1;points=[];align=center;fontSize=12;image=img/lib/azure2/app_services/App_Services.svg;" parent="1" vertex="1">
          <mxGeometry x="626" y="10" width="68" height="68" as="geometry" />
        </mxCell>
        <mxCell id="M0Q4n2A1zxkFsByB2gW8-1" value="Azure&lt;div&gt;Subscription&lt;/div&gt;" style="image;aspect=fixed;html=1;points=[];align=center;fontSize=12;image=img/lib/azure2/general/Subscriptions.svg;" parent="1" vertex="1">
          <mxGeometry x="60" y="170" width="44" height="71" as="geometry" />
        </mxCell>
      </root>
    </mxGraphModel>
  </diagram>
</mxfile>
